SplineFontDB: 3.0
FontName: LinLibertineO
FullName: Linux Libertine O
FamilyName: Linux Libertine O
Weight: Book
Copyright: Linux Libertine by Philipp H. Poll,\nOpen Font under Terms of following Free Software Licenses:\nGPL (General Public License) with font-exception and OFL (Open Font License).\nCreated with FontForge (http://fontforge.sf.net)\nSept 2003, 2004, 2005, 2006, 2007, 2008, 2009, 2010, 2011,2012
Version: 5.3.0
ItalicAngle: 0
UnderlinePosition: -200
UnderlineWidth: 80
Ascent: 1638
Descent: 410
sfntRevision: 0x00054ccc
LayerCount: 2
Layer: 0 1 "Back"  1
Layer: 1 1 "Fore"  0
XUID: [1021 659 359406346 8679892]
FSType: 0
OS2Version: 3
OS2_WeightWidthSlopeOnly: 0
OS2_UseTypoMetrics: 1
CreationTime: 1156455862
ModificationTime: 1365551588
PfmFamily: 17
TTFWeight: 400
TTFWidth: 5
LineGap: 0
VLineGap: 0
Panose: 2 0 5 3 0 0 0 0 0 0
OS2TypoAscent: 1830
OS2TypoAOffset: 0
OS2TypoDescent: -504
OS2TypoDOffset: 0
OS2TypoLinegap: 0
OS2WinAscent: 1830
OS2WinAOffset: 0
OS2WinDescent: 504
OS2WinDOffset: 0
HheadAscent: 1830
HheadAOffset: 0
HheadDescent: -504
HheadDOffset: 0
OS2SubXSize: 1332
OS2SubYSize: 1434
OS2SubXOff: 0
OS2SubYOff: 286
OS2SupXSize: 1332
OS2SupYSize: 1434
OS2SupXOff: 0
OS2SupYOff: 984
OS2StrikeYSize: 100
OS2StrikeYPos: 528
OS2FamilyClass: 261
OS2Vendor: 'PfEd'
OS2CodePages: 600001bf.00000000
OS2UnicodeRanges: e0000aff.5200e5fb.02000020.00000000
Lookup: 1 0 0 "'sups' Superscript lookup 9"  {"'sups' Superscript lookup 9 subtable" ("superior" ) } ['sups' ('DFLT' <'dflt' > 'cyrl' <'dflt' > 'grek' <'dflt' > 'latn' <'AZE ' 'CRT ' 'DEU ' 'MOL ' 'ROM ' 'TRK ' 'dflt' > ) ]
Lookup: 1 0 0 "'sinf' Scientific Inferiors lookup 10"  {"'sinf' Scientific Inferiors lookup 10 subtable"  } ['sinf' ('DFLT' <'dflt' > 'cyrl' <'dflt' > 'grek' <'dflt' > 'latn' <'AZE ' 'CRT ' 'DEU ' 'MOL ' 'ROM ' 'TRK ' 'dflt' > ) ]

StartChar: .notdef
Encoding: 65536 -1 0
Width: 1024
Flags: W
LayerCount: 2
Fore
SplineSet
102 1234 m 1,0,-1
 102 194 l 1,1,-1
 450 714 l 1,2,-1
 102 1234 l 1,0,-1
164 102 m 1,3,-1
 860 102 l 1,4,-1
 512 622 l 1,5,-1
 164 102 l 1,3,-1
574 714 m 1,6,-1
 922 194 l 1,7,-1
 922 1234 l 1,8,-1
 574 714 l 1,6,-1
512 806 m 1,9,-1
 860 1326 l 1,10,-1
 164 1326 l 1,11,-1
 512 806 l 1,9,-1
0 0 m 1,12,-1
 0 1430 l 1,13,-1
 1024 1430 l 1,14,-1
 1024 0 l 1,15,-1
 0 0 l 1,12,-1
EndSplineSet
EndChar

StartChar: exclam
Encoding: 33 33 2
Width: 588
GlyphClass: 2
Flags: W
LayerCount: 2
Fore
SplineSet
295 1348 m 128,-1,1
 338 1348 338 1348 371 1311 c 128,-1,2
 404 1274 404 1274 404 1198 c 0,3,4
 404 1138 404 1138 397 1082 c 128,-1,5
 390 1026 390 1026 376 947 c 128,-1,6
 362 868 362 868 354 802 c 0,7,8
 342 706 342 706 336 619 c 128,-1,9
 330 532 330 532 328 485 c 128,-1,10
 326 438 326 438 324 430 c 0,11,12
 320 390 320 390 295 390 c 128,-1,13
 270 390 270 390 266 416 c 0,14,15
 264 428 264 428 260 494 c 128,-1,16
 256 560 256 560 249 647 c 128,-1,17
 242 734 242 734 234 802 c 0,18,19
 228 866 228 866 207 991 c 128,-1,20
 186 1116 186 1116 186 1198 c 0,21,22
 186 1274 186 1274 219 1311 c 128,-1,0
 252 1348 252 1348 295 1348 c 128,-1,1
186 89 m 128,-1,24
 186 134 186 134 218 165 c 128,-1,25
 250 196 250 196 295 196 c 128,-1,26
 340 196 340 196 372 165 c 128,-1,27
 404 134 404 134 404 89 c 128,-1,28
 404 44 404 44 372 12 c 128,-1,29
 340 -20 340 -20 295 -20 c 128,-1,30
 250 -20 250 -20 218 12 c 128,-1,23
 186 44 186 44 186 89 c 128,-1,24
EndSplineSet
EndChar

StartChar: quotedbl
Encoding: 34 34 3
Width: 688
GlyphClass: 2
Flags: W
LayerCount: 2
Fore
SplineSet
440 874 m 1,0,1
 386 1200 386 1200 388 1218 c 0,2,3
 388 1254 388 1254 418 1287 c 128,-1,4
 448 1320 448 1320 492 1320 c 0,5,6
 564 1320 564 1320 564 1254 c 1,7,-1
 496 882 l 1,8,-1
 440 874 l 1,0,1
182 872 m 1,9,10
 128 1198 128 1198 130 1216 c 0,11,12
 130 1252 130 1252 160 1285 c 128,-1,13
 190 1318 190 1318 234 1318 c 0,14,15
 306 1318 306 1318 306 1252 c 1,16,-1
 238 880 l 1,17,-1
 182 872 l 1,9,10
EndSplineSet
EndChar

StartChar: numbersign
Encoding: 35 35 4
Width: 952
GlyphClass: 2
Flags: W
LayerCount: 2
Fore
SplineSet
572 502 m 1,0,-1
 608 738 l 1,1,-1
 376 738 l 1,2,-1
 338 502 l 1,3,-1
 572 502 l 1,0,-1
686 738 m 1,4,-1
 648 502 l 1,5,-1
 842 502 l 1,6,-1
 828 394 l 1,7,-1
 634 394 l 1,8,-1
 574 28 l 1,9,-1
 496 28 l 1,10,-1
 550 394 l 1,11,-1
 322 394 l 1,12,-1
 262 28 l 1,13,-1
 186 28 l 1,14,-1
 244 394 l 1,15,-1
 54 394 l 1,16,-1
 70 502 l 1,17,-1
 262 502 l 1,18,-1
 300 738 l 1,19,-1
 108 738 l 1,20,-1
 124 846 l 1,21,-1
 316 846 l 1,22,-1
 374 1212 l 1,23,-1
 452 1212 l 1,24,-1
 392 846 l 1,25,-1
 624 846 l 1,26,-1
 682 1212 l 1,27,-1
 760 1212 l 1,28,-1
 700 846 l 1,29,-1
 898 846 l 1,30,-1
 880 738 l 1,31,-1
 686 738 l 1,4,-1
EndSplineSet
EndChar

StartChar: dollar
Encoding: 36 36 5
Width: 952
GlyphClass: 2
Flags: W
LayerCount: 2
Fore
SplineSet
424 752 m 1,0,-1
 448 1184 l 1,1,2
 392 1184 392 1184 344 1153 c 128,-1,3
 296 1122 296 1122 269 1074 c 128,-1,4
 242 1026 242 1026 242 974 c 0,5,6
 242 842 242 842 424 752 c 1,0,-1
488 548 m 1,7,-1
 460 50 l 1,8,9
 572 52 572 52 633 112 c 128,-1,10
 694 172 694 172 694 284 c 0,11,12
 694 392 694 392 639 451 c 128,-1,13
 584 510 584 510 488 548 c 1,7,-1
760 1198 m 1,14,15
 786 1062 786 1062 794 952 c 1,16,17
 780 940 780 940 732 940 c 1,18,19
 702 1038 702 1038 656 1099 c 128,-1,20
 610 1160 610 1160 522 1178 c 1,21,-1
 498 718 l 1,22,23
 512 712 512 712 531 705 c 128,-1,24
 550 698 550 698 566 692 c 128,-1,25
 582 686 582 686 592 682 c 0,26,27
 854 570 854 570 854 350 c 0,28,29
 854 260 854 260 806 177 c 128,-1,30
 758 94 758 94 676 44 c 0,31,32
 584 -14 584 -14 456 -18 c 1,33,-1
 446 -190 l 1,34,35
 430 -200 430 -200 372 -200 c 1,36,-1
 382 -16 l 1,37,38
 320 -12 320 -12 237 6 c 128,-1,39
 154 24 154 24 98 24 c 1,40,41
 68 148 68 148 60 314 c 1,42,43
 90 330 90 330 120 320 c 1,44,45
 174 84 174 84 386 54 c 1,46,-1
 414 576 l 1,47,48
 396 584 396 584 380 590 c 0,49,50
 104 708 104 708 104 924 c 0,51,52
 104 1068 104 1068 205 1156 c 128,-1,53
 306 1244 306 1244 450 1250 c 1,54,-1
 460 1412 l 1,55,56
 486 1422 486 1422 536 1422 c 1,57,-1
 526 1248 l 1,58,59
 598 1244 598 1244 660 1223 c 128,-1,60
 722 1202 722 1202 760 1198 c 1,14,15
EndSplineSet
EndChar

StartChar: percent
Encoding: 37 37 6
Width: 1304
GlyphClass: 2
Flags: W
LayerCount: 2
Fore
SplineSet
886 170 m 0,0,1
 886 38 886 38 976 38 c 0,2,3
 1054 38 1054 38 1106 138 c 128,-1,4
 1158 238 1158 238 1158 336 c 0,5,6
 1158 406 1158 406 1130 433 c 128,-1,7
 1102 460 1102 460 1072 460 c 0,8,9
 1000 460 1000 460 943 363 c 128,-1,10
 886 266 886 266 886 170 c 0,0,1
774 200 m 0,11,12
 774 326 774 326 855 425 c 128,-1,13
 936 524 936 524 1048 524 c 0,14,15
 1122 524 1122 524 1173 482 c 128,-1,16
 1224 440 1224 440 1224 338 c 0,17,18
 1224 218 1224 218 1153 97 c 128,-1,19
 1082 -24 1082 -24 964 -24 c 0,20,21
 876 -24 876 -24 825 44 c 128,-1,22
 774 112 774 112 774 200 c 0,11,12
746 1068 m 0,23,24
 828 1068 828 1068 919 1094 c 128,-1,25
 1010 1120 1010 1120 1052 1178 c 1,26,-1
 1118 1144 l 1,27,-1
 278 -24 l 1,28,-1
 208 6 l 1,29,-1
 944 1030 l 1,30,31
 846 992 846 992 724 992 c 0,32,33
 634 992 634 992 562 1034 c 1,34,35
 568 1012 568 1012 568 984 c 0,36,37
 568 866 568 866 495 743 c 128,-1,38
 422 620 422 620 306 620 c 0,39,40
 218 620 218 620 167 689 c 128,-1,41
 116 758 116 758 116 844 c 0,42,43
 116 980 116 980 197 1075 c 128,-1,44
 278 1170 278 1170 390 1170 c 0,45,46
 430 1170 430 1170 470 1154 c 128,-1,47
 510 1138 510 1138 526 1118 c 1,48,49
 638 1068 638 1068 746 1068 c 0,23,24
228 816 m 0,50,51
 228 744 228 744 255 714 c 128,-1,52
 282 684 282 684 318 684 c 0,53,54
 396 684 396 684 448 782 c 128,-1,55
 500 880 500 880 500 980 c 0,56,57
 500 1104 500 1104 412 1106 c 0,58,59
 340 1106 340 1106 284 1009 c 128,-1,60
 228 912 228 912 228 816 c 0,50,51
EndSplineSet
EndChar

StartChar: ampersand
Encoding: 38 38 7
Width: 1442
GlyphClass: 2
Flags: W
LayerCount: 2
Fore
SplineSet
512 692 m 1,0,1
 362 610 362 610 309 524 c 128,-1,2
 256 438 256 438 256 320 c 0,3,4
 256 178 256 178 323 113 c 128,-1,5
 390 48 390 48 496 48 c 0,6,7
 598 48 598 48 665 96 c 128,-1,8
 732 144 732 144 816 258 c 1,9,10
 732 368 732 368 631 513 c 128,-1,11
 530 658 530 658 512 692 c 1,0,1
862 192 m 1,12,13
 786 88 786 88 695 34 c 128,-1,14
 604 -20 604 -20 482 -20 c 0,15,16
 396 -20 396 -20 327 -2 c 128,-1,17
 258 16 258 16 203 55 c 128,-1,18
 148 94 148 94 118 162 c 128,-1,19
 88 230 88 230 88 320 c 0,20,21
 88 442 88 442 177 550 c 128,-1,22
 266 658 266 658 466 770 c 1,23,24
 362 950 362 950 362 1058 c 0,25,26
 362 1094 362 1094 376 1132 c 128,-1,27
 390 1170 390 1170 416 1205 c 128,-1,28
 442 1240 442 1240 478 1266 c 128,-1,29
 514 1292 514 1292 566 1309 c 128,-1,30
 618 1326 618 1326 678 1326 c 0,31,32
 750 1326 750 1326 809 1298 c 128,-1,33
 868 1270 868 1270 904 1219 c 128,-1,34
 940 1168 940 1168 940 1104 c 0,35,36
 940 1022 940 1022 854 930 c 128,-1,37
 768 838 768 838 634 760 c 1,38,-1
 644 744 l 1,39,40
 708 636 708 636 892 382 c 1,41,42
 978 508 978 508 1050 646 c 1,43,44
 1080 700 1080 700 1090 730 c 128,-1,45
 1100 760 1100 760 1089 776 c 128,-1,46
 1078 792 1078 792 1056 797 c 128,-1,47
 1034 802 1034 802 988 804 c 1,48,49
 980 814 980 814 979 839 c 128,-1,50
 978 864 978 864 988 872 c 1,51,52
 1070 868 1070 868 1182 868 c 0,53,54
 1272 868 1272 868 1354 872 c 1,55,56
 1364 864 1364 864 1364 840 c 128,-1,57
 1364 816 1364 816 1354 804 c 1,58,59
 1260 798 1260 798 1225 771 c 128,-1,60
 1190 744 1190 744 1120 618 c 0,61,62
 1020 440 1020 440 938 322 c 1,63,-1
 1012 220 l 2,64,65
 1058 158 1058 158 1100 124 c 128,-1,66
 1142 90 1142 90 1170 90 c 0,67,68
 1268 90 1268 90 1326 200 c 1,69,70
 1348 200 1348 200 1368 180 c 1,71,72
 1336 80 1336 80 1276 30 c 128,-1,73
 1216 -20 1216 -20 1158 -20 c 0,74,75
 1118 -20 1118 -20 1088 -15 c 128,-1,76
 1058 -10 1058 -10 1012 23 c 128,-1,77
 966 56 966 56 922 116 c 1,78,-1
 862 192 l 1,12,13
592 838 m 1,79,80
 688 902 688 902 743 974 c 128,-1,81
 798 1046 798 1046 798 1104 c 0,82,83
 798 1174 798 1174 764 1216 c 128,-1,84
 730 1258 730 1258 668 1258 c 0,85,86
 618 1258 618 1258 566 1207 c 128,-1,87
 514 1156 514 1156 514 1062 c 0,88,89
 514 986 514 986 592 838 c 1,79,80
EndSplineSet
Substitution2: "'c2sc' Capitals to Small Capitals lookup 9 subtable" ampersand.alt
Substitution2: "'smcp' Lowercase to Small Capitals lookup 4 subtable" ampersand.alt
AlternateSubs2: "'aalt' Access All Alternates lookup 0 subtable" ampersand.alt
EndChar

StartChar: quotesingle
Encoding: 39 39 8
Width: 388
GlyphClass: 2
Flags: W
LayerCount: 2
Fore
SplineSet
162 872 m 1,0,1
 108 1198 108 1198 108 1216 c 0,2,3
 108 1252 108 1252 139 1285 c 128,-1,4
 170 1318 170 1318 212 1318 c 0,5,6
 284 1318 284 1318 284 1252 c 1,7,-1
 218 880 l 1,8,-1
 162 872 l 1,0,1
EndSplineSet
EndChar

StartChar: parenleft
Encoding: 40 40 9
Width: 610
GlyphClass: 2
Flags: W
GlyphCompositionVertical: 3  uni239D%0,0,278,1830 uni239C%1,1828,1828,1830 uni239B%0,278,0,1830
LayerCount: 2
Fore
SplineSet
90 516 m 0,0,1
 90 790 90 790 211 1036 c 128,-1,2
 332 1282 332 1282 524 1448 c 1,3,4
 554 1446 554 1446 568 1412 c 1,5,6
 260 1066 260 1066 260 516 c 0,7,8
 260 -28 260 -28 568 -382 c 1,9,10
 558 -410 558 -410 524 -418 c 1,11,12
 404 -314 404 -314 317 -187 c 128,-1,13
 230 -60 230 -60 188 42 c 128,-1,14
 146 144 146 144 121 255 c 128,-1,15
 96 366 96 366 93 416 c 128,-1,16
 90 466 90 466 90 516 c 0,0,1
EndSplineSet
Substitution2: "'sups' Superscript lookup 9 subtable" parenleft.superior
Substitution2: "'sinf' Scientific Inferiors lookup 10 subtable" parenleft.inferior
EndChar

StartChar: parenright
Encoding: 41 41 10
Width: 610
GlyphClass: 2
Flags: W
LayerCount: 2
Fore
SplineSet
520 516 m 0,0,1
 520 242 520 242 399 -4 c 128,-1,2
 278 -250 278 -250 86 -416 c 1,3,4
 56 -414 56 -414 44 -378 c 1,5,6
 352 -32 352 -32 350 516 c 0,7,8
 350 1060 350 1060 44 1416 c 1,9,10
 54 1444 54 1444 86 1450 c 1,11,12
 206 1346 206 1346 293 1219 c 128,-1,13
 380 1092 380 1092 422 990 c 128,-1,14
 464 888 464 888 489 777 c 128,-1,15
 514 666 514 666 517 616 c 128,-1,16
 520 566 520 566 520 516 c 0,0,1
EndSplineSet
Substitution2: "'sups' Superscript lookup 9 subtable" parenright.superior
Substitution2: "'sinf' Scientific Inferiors lookup 10 subtable" parenright.inferior
EndChar

StartChar: asterisk
Encoding: 42 42 11
Width: 754
GlyphClass: 2
Flags: W
LayerCount: 2
Fore
SplineSet
344 1120 m 1,0,1
 310 1128 310 1128 258 1128 c 0,2,3
 92 1128 92 1128 92 1204 c 0,4,5
 92 1228 92 1228 108 1247 c 128,-1,6
 124 1266 124 1266 160 1266 c 0,7,8
 198 1266 198 1266 259 1221 c 128,-1,9
 320 1176 320 1176 356 1162 c 1,10,11
 352 1202 352 1202 331 1263 c 128,-1,12
 310 1324 310 1324 310 1350 c 0,13,14
 310 1382 310 1382 327 1406 c 128,-1,15
 344 1430 344 1430 370 1430 c 0,16,17
 438 1430 438 1430 438 1358 c 0,18,19
 438 1330 438 1330 420 1259 c 128,-1,20
 402 1188 402 1188 400 1160 c 1,21,22
 438 1176 438 1176 498 1221 c 128,-1,23
 558 1266 558 1266 594 1266 c 128,-1,24
 630 1266 630 1266 647 1245 c 128,-1,25
 664 1224 664 1224 664 1204 c 0,26,27
 664 1128 664 1128 522 1128 c 0,28,29
 458 1128 458 1128 410 1120 c 1,30,31
 434 1094 434 1094 481 1062 c 128,-1,32
 528 1030 528 1030 554 1004 c 128,-1,33
 580 978 580 978 580 942 c 0,34,35
 580 916 580 916 561 899 c 128,-1,36
 542 882 542 882 520 882 c 0,37,38
 486 882 486 882 462 915 c 128,-1,39
 438 948 438 948 415 1009 c 128,-1,40
 392 1070 392 1070 374 1096 c 1,41,42
 360 1070 360 1070 336 1006 c 128,-1,43
 312 942 312 942 289 912 c 128,-1,44
 266 882 266 882 232 882 c 0,45,46
 206 882 206 882 189 900 c 128,-1,47
 172 918 172 918 172 940 c 0,48,49
 172 978 172 978 199 1005 c 128,-1,50
 226 1032 226 1032 273 1062 c 128,-1,51
 320 1092 320 1092 344 1120 c 1,0,1
EndSplineSet
EndChar

StartChar: plus
Encoding: 43 43 12
Width: 1126
GlyphClass: 2
Flags: W
LayerCount: 2
Fore
SplineSet
512 890 m 2,0,1
 512 908 512 908 538 927 c 128,-1,2
 564 946 564 946 580 946 c 0,3,4
 614 946 614 946 614 918 c 2,5,-1
 614 566 l 1,6,-1
 974 566 l 2,7,8
 1002 566 1002 566 1004 530 c 0,9,10
 1004 514 1004 514 985 488 c 128,-1,11
 966 462 966 462 948 462 c 2,12,-1
 614 462 l 1,13,-1
 614 136 l 2,14,15
 614 118 614 118 591 101 c 128,-1,16
 568 84 568 84 544 84 c 0,17,18
 512 84 512 84 512 114 c 2,19,-1
 512 462 l 1,20,-1
 154 462 l 2,21,22
 124 462 124 462 122 496 c 0,23,24
 122 518 122 518 139 542 c 128,-1,25
 156 566 156 566 174 566 c 2,26,-1
 512 566 l 1,27,-1
 512 890 l 2,0,1
EndSplineSet
Substitution2: "'sups' Superscript lookup 9 subtable" plus.superior
Substitution2: "'sinf' Scientific Inferiors lookup 10 subtable" plus.inferior
EndChar

StartChar: comma
Encoding: 44 44 13
Width: 450
GlyphClass: 2
Flags: W
LayerCount: 2
Fore
SplineSet
212 194 m 0,0,1
 274 194 274 194 311 139 c 128,-1,2
 348 84 348 84 348 -8 c 0,3,4
 348 -110 348 -110 276 -182 c 128,-1,5
 204 -254 204 -254 106 -272 c 1,6,7
 88 -254 88 -254 88 -224 c 1,8,9
 162 -206 162 -206 215 -151 c 128,-1,10
 268 -96 268 -96 268 -60 c 0,11,12
 268 -4 268 -4 194 4 c 1,13,14
 104 18 104 18 104 94 c 0,15,16
 104 138 104 138 134 166 c 128,-1,17
 164 194 164 194 212 194 c 0,0,1
EndSplineSet
EndChar

StartChar: hyphen
Encoding: 45 45 14
Width: 692
GlyphClass: 2
Flags: W
LayerCount: 2
Fore
SplineSet
556 456 m 2,0,-1
 112 456 l 2,1,2
 82 456 82 456 82 496 c 0,3,4
 82 524 82 524 98 552 c 128,-1,5
 114 580 114 580 134 580 c 2,6,-1
 582 580 l 2,7,8
 610 580 610 580 610 538 c 0,9,10
 610 518 610 518 592 487 c 128,-1,11
 574 456 574 456 556 456 c 2,0,-1
EndSplineSet
Substitution2: "'sups' Superscript lookup 9 subtable" minus.superior
Substitution2: "'sinf' Scientific Inferiors lookup 10 subtable" minus.inferior
Substitution2: "'case' Case-Sensitive Forms lookup 27 subtable" hyphen.cap
Substitution2: "'c2sc' Capitals to Small Capitals lookup 9 subtable" hyphen.sc
Substitution2: "'smcp' Lowercase to Small Capitals lookup 4 subtable" hyphen.sc
AlternateSubs2: "'aalt' Access All Alternates lookup 0 subtable" hyphen.sc
Position2: "'lfbd' Left Bounds lookup 5 subtable" dx=-88 dy=0 dh=-88 dv=0
Position2: "'rtbd' Right Bounds lookup 4 subtable" dx=0 dy=0 dh=0 dv=0
EndChar

StartChar: period
Encoding: 46 46 15
Width: 450
GlyphClass: 2
Flags: W
LayerCount: 2
Fore
SplineSet
116 89 m 128,-1,1
 116 134 116 134 148 165 c 128,-1,2
 180 196 180 196 225 196 c 128,-1,3
 270 196 270 196 302 165 c 128,-1,4
 334 134 334 134 334 89 c 128,-1,5
 334 44 334 44 302 12 c 128,-1,6
 270 -20 270 -20 225 -20 c 128,-1,7
 180 -20 180 -20 148 12 c 128,-1,0
 116 44 116 44 116 89 c 128,-1,1
EndSplineSet
EndChar

StartChar: slash
Encoding: 47 47 16
Width: 660
GlyphClass: 3
Flags: W
LayerCount: 2
Fore
SplineSet
600 1324 m 1,0,-1
 114 -120 l 1,1,-1
 30 -120 l 1,2,-1
 516 1324 l 1,3,-1
 600 1324 l 1,0,-1
EndSplineSet
Substitution2: "'sups' Superscript lookup 9 subtable" fraction
Ligature2: "'frac' Diagonal Fractions lookup 8 subtable" uni2215
EndChar

StartChar: zero
Encoding: 48 48 17
Width: 952
GlyphClass: 2
Flags: W
LayerCount: 2
Fore
SplineSet
476 1178 m 0,0,1
 438 1178 438 1178 402 1153 c 128,-1,2
 366 1128 366 1128 333 1069 c 128,-1,3
 300 1010 300 1010 279 884 c 128,-1,4
 258 758 258 758 258 580 c 0,5,6
 258 52 258 52 468 52 c 0,7,8
 486 52 486 52 507 58 c 128,-1,9
 528 64 528 64 556 81 c 128,-1,10
 584 98 584 98 609 138 c 128,-1,11
 634 178 634 178 652 238 c 0,12,13
 686 364 686 364 686 660 c 0,14,15
 686 1042 686 1042 568 1142 c 0,16,17
 530 1178 530 1178 476 1178 c 0,0,1
466 -20 m 0,18,19
 346 -20 346 -20 260 66 c 0,20,21
 204 122 204 122 163 205 c 128,-1,22
 122 288 122 288 101 391 c 128,-1,23
 80 494 80 494 80 602 c 0,24,25
 80 892 80 892 198 1071 c 128,-1,26
 316 1250 316 1250 476 1250 c 0,27,28
 626 1250 626 1250 724 1116 c 0,29,30
 864 932 864 932 864 620 c 0,31,32
 864 450 864 450 825 319 c 128,-1,33
 786 188 786 188 724 118 c 128,-1,34
 662 48 662 48 596 14 c 128,-1,35
 530 -20 530 -20 466 -20 c 0,18,19
EndSplineSet
Substitution2: "'sups' Superscript lookup 9 subtable" zero.superior
Substitution2: "'sinf' Scientific Inferiors lookup 10 subtable" zero.inferior
Substitution2: "'case' Case-Sensitive Forms lookup 27 subtable" zero.cap
Substitution2: "'zero' Slashed Zero lookup 18 subtable" zero.slash
Substitution2: "'pnum' Proportional Numbers lookup 16 subtable" zero.fitted
Substitution2: "'onum' Oldstyle Figures lookup 14 subtable" zero.taboldstyle
AlternateSubs2: "'aalt' Access All Alternates lookup 0 subtable" zero.oldstyle zero.fitted
EndChar

StartChar: one
Encoding: 49 49 18
Width: 952
GlyphClass: 2
Flags: W
LayerCount: 2
Fore
SplineSet
590 250 m 2,0,1
 590 128 590 128 622 98 c 128,-1,2
 654 68 654 68 768 64 c 1,3,4
 778 54 778 54 778 29 c 128,-1,5
 778 4 778 4 768 -4 c 1,6,7
 564 0 564 0 518 0 c 0,8,9
 434 0 434 0 234 -4 c 1,10,11
 226 4 226 4 226 29 c 128,-1,12
 226 54 226 54 234 64 c 1,13,14
 352 68 352 68 392 100 c 128,-1,15
 432 132 432 132 432 250 c 2,16,-1
 432 918 l 2,17,18
 432 1036 432 1036 392 1036 c 0,19,20
 336 1036 336 1036 212 986 c 1,21,22
 188 1002 188 1002 182 1040 c 1,23,24
 468 1174 468 1174 584 1246 c 1,25,26
 596 1246 596 1246 596 1234 c 0,27,28
 590 1186 590 1186 590 960 c 2,29,-1
 590 250 l 2,0,1
EndSplineSet
Substitution2: "'sups' Superscript lookup 9 subtable" one.superior
Substitution2: "'sinf' Scientific Inferiors lookup 10 subtable" one.inferior
Substitution2: "'case' Case-Sensitive Forms lookup 27 subtable" one.cap
Substitution2: "'pnum' Proportional Numbers lookup 16 subtable" one.fitted
Substitution2: "'onum' Oldstyle Figures lookup 14 subtable" one.taboldstyle
AlternateSubs2: "'aalt' Access All Alternates lookup 0 subtable" one.oldstyle one.fitted
EndChar

StartChar: two
Encoding: 50 50 19
Width: 952
GlyphClass: 2
Flags: W
LayerCount: 2
Fore
SplineSet
124 958 m 0,0,1
 124 1060 124 1060 229 1155 c 128,-1,2
 334 1250 334 1250 494 1250 c 0,3,4
 634 1250 634 1250 737 1171 c 128,-1,5
 840 1092 840 1092 840 938 c 0,6,7
 840 864 840 864 809 799 c 128,-1,8
 778 734 778 734 742 692 c 128,-1,9
 706 650 706 650 634 580 c 2,10,-1
 428 380 l 1,11,12
 276 228 276 228 276 134 c 1,13,-1
 642 134 l 2,14,15
 698 134 698 134 728 177 c 128,-1,16
 758 220 758 220 784 330 c 1,17,18
 822 338 822 338 844 320 c 1,19,20
 840 176 840 176 794 -4 c 1,21,22
 700 0 700 0 634 0 c 2,23,-1
 276 0 l 1,24,-1
 106 -4 l 1,25,26
 106 94 106 94 152 185 c 128,-1,27
 198 276 198 276 340 420 c 1,28,-1
 492 570 l 1,29,30
 660 740 660 740 660 930 c 0,31,32
 660 1064 660 1064 605 1121 c 128,-1,33
 550 1178 550 1178 482 1178 c 0,34,35
 380 1178 380 1178 329 1139 c 128,-1,36
 278 1100 278 1100 278 1052 c 0,37,38
 278 1042 278 1042 286 1024 c 128,-1,39
 294 1006 294 1006 294 1004 c 0,40,41
 302 976 302 976 304 960 c 0,42,43
 304 930 304 930 270 904 c 128,-1,44
 236 878 236 878 206 878 c 0,45,46
 174 878 174 878 149 902 c 128,-1,47
 124 926 124 926 124 958 c 0,0,1
EndSplineSet
Substitution2: "'sups' Superscript lookup 9 subtable" two.superior
Substitution2: "'sinf' Scientific Inferiors lookup 10 subtable" two.inferior
Substitution2: "'case' Case-Sensitive Forms lookup 27 subtable" two.cap
Substitution2: "'pnum' Proportional Numbers lookup 16 subtable" two.fitted
Substitution2: "'onum' Oldstyle Figures lookup 14 subtable" two.taboldstyle
AlternateSubs2: "'aalt' Access All Alternates lookup 0 subtable" two.oldstyle two.fitted
EndChar

StartChar: three
Encoding: 51 51 20
Width: 952
GlyphClass: 2
Flags: W
LayerCount: 2
Fore
SplineSet
440 1178 m 0,0,1
 416 1178 416 1178 387 1172 c 128,-1,2
 358 1166 358 1166 324 1150 c 128,-1,3
 290 1134 290 1134 268 1101 c 128,-1,4
 246 1068 246 1068 246 1022 c 0,5,6
 246 916 246 916 166 916 c 0,7,8
 134 916 134 916 115 938 c 128,-1,9
 96 960 96 960 96 986 c 0,10,11
 96 1016 96 1016 116 1056 c 128,-1,12
 136 1096 136 1096 177 1142 c 128,-1,13
 218 1188 218 1188 298 1219 c 128,-1,14
 378 1250 378 1250 484 1250 c 0,15,16
 630 1250 630 1250 706 1170 c 0,17,18
 770 1104 770 1104 770 1008 c 0,19,20
 770 922 770 922 723 857 c 128,-1,21
 676 792 676 792 556 736 c 1,22,-1
 558 732 l 1,23,24
 610 724 610 724 655 703 c 128,-1,25
 700 682 700 682 745 646 c 128,-1,26
 790 610 790 610 818 549 c 128,-1,27
 846 488 846 488 846 408 c 0,28,29
 846 214 846 214 711 97 c 128,-1,30
 576 -20 576 -20 386 -20 c 0,31,32
 322 -20 322 -20 254 -4 c 128,-1,33
 186 12 186 12 138 45 c 128,-1,34
 90 78 90 78 90 116 c 0,35,36
 90 140 90 140 118 164 c 128,-1,37
 146 188 146 188 176 188 c 0,38,39
 226 188 226 188 264 136 c 0,40,41
 266 134 266 134 273 122 c 128,-1,42
 280 110 280 110 283 106 c 128,-1,43
 286 102 286 102 294 93 c 128,-1,44
 302 84 302 84 308 80 c 128,-1,45
 314 76 314 76 325 69 c 128,-1,46
 336 62 336 62 348 59 c 128,-1,47
 360 56 360 56 377 54 c 128,-1,48
 394 52 394 52 412 52 c 0,49,50
 436 52 436 52 466 59 c 128,-1,51
 496 66 496 66 533 88 c 128,-1,52
 570 110 570 110 598 145 c 128,-1,53
 626 180 626 180 646 241 c 128,-1,54
 666 302 666 302 666 378 c 0,55,56
 666 642 666 642 398 644 c 0,57,58
 334 644 334 644 300 638 c 1,59,-1
 288 704 l 1,60,61
 430 724 430 724 520 816 c 128,-1,62
 610 908 610 908 610 994 c 0,63,64
 610 1042 610 1042 596 1078 c 128,-1,65
 582 1114 582 1114 558 1136 c 128,-1,66
 534 1158 534 1158 504 1168 c 128,-1,67
 474 1178 474 1178 440 1178 c 0,0,1
EndSplineSet
Substitution2: "'sups' Superscript lookup 9 subtable" three.superior
Substitution2: "'sinf' Scientific Inferiors lookup 10 subtable" three.inferior
Substitution2: "'case' Case-Sensitive Forms lookup 27 subtable" three.cap
Substitution2: "'pnum' Proportional Numbers lookup 16 subtable" three.fitted
Substitution2: "'onum' Oldstyle Figures lookup 14 subtable" three.taboldstyle
AlternateSubs2: "'aalt' Access All Alternates lookup 0 subtable" three.oldstyle three.fitted
EndChar

StartChar: four
Encoding: 52 52 21
Width: 952
GlyphClass: 2
Flags: W
LayerCount: 2
Fore
SplineSet
556 1038 m 1,0,1
 400 826 400 826 164 448 c 1,2,-1
 556 448 l 1,3,-1
 556 1038 l 1,0,1
880 448 m 2,4,5
 910 448 910 448 912 416 c 0,6,7
 912 398 912 398 892 375 c 128,-1,8
 872 352 872 352 852 352 c 2,9,-1
 710 352 l 1,10,-1
 710 164 l 2,11,12
 710 132 710 132 715 112 c 128,-1,13
 720 92 720 92 742 83 c 128,-1,14
 764 74 764 74 776 72 c 128,-1,15
 788 70 788 70 834 66 c 0,16,17
 848 64 848 64 854 64 c 1,18,19
 864 54 864 54 864 29 c 128,-1,20
 864 4 864 4 854 -4 c 1,21,22
 722 0 722 0 630 0 c 0,23,24
 520 0 520 0 390 -4 c 1,25,26
 382 4 382 4 381 29 c 128,-1,27
 380 54 380 54 390 64 c 1,28,29
 500 72 500 72 526 92 c 0,30,31
 554 114 554 114 556 164 c 2,32,-1
 556 352 l 1,33,-1
 138 352 l 2,34,35
 74 352 74 352 58 438 c 1,36,37
 376 936 376 936 612 1226 c 0,38,39
 630 1248 630 1248 646 1250 c 2,40,-1
 710 1250 l 1,41,-1
 714 1246 l 1,42,43
 710 1228 710 1228 710 1046 c 2,44,-1
 710 448 l 1,45,-1
 880 448 l 2,4,5
EndSplineSet
Substitution2: "'sups' Superscript lookup 9 subtable" four.superior
Substitution2: "'sinf' Scientific Inferiors lookup 10 subtable" four.inferior
Substitution2: "'case' Case-Sensitive Forms lookup 27 subtable" four.cap
Substitution2: "'pnum' Proportional Numbers lookup 16 subtable" four.fitted
Substitution2: "'onum' Oldstyle Figures lookup 14 subtable" four.taboldstyle
AlternateSubs2: "'aalt' Access All Alternates lookup 0 subtable" four.oldstyle four.fitted
EndChar

StartChar: five
Encoding: 53 53 22
Width: 952
GlyphClass: 2
Flags: W
LayerCount: 2
Fore
SplineSet
654 388 m 0,0,1
 654 548 654 548 588 623 c 128,-1,2
 522 698 522 698 416 698 c 0,3,4
 286 698 286 698 156 650 c 1,5,-1
 226 1240 l 1,6,7
 344 1230 344 1230 446 1228 c 0,8,9
 568 1228 568 1228 782 1252 c 1,10,-1
 796 1244 l 1,11,-1
 764 1104 l 1,12,13
 638 1092 638 1092 548 1092 c 0,14,15
 478 1092 478 1092 310 1110 c 1,16,-1
 268 768 l 1,17,18
 352 800 352 800 468 800 c 0,19,20
 634 800 634 800 735 690 c 128,-1,21
 836 580 836 580 836 424 c 0,22,23
 836 230 836 230 714 104 c 128,-1,24
 592 -22 592 -22 402 -22 c 0,25,26
 308 -22 308 -22 209 25 c 128,-1,27
 110 72 110 72 110 132 c 0,28,29
 110 162 110 162 134 184 c 128,-1,30
 158 206 158 206 188 206 c 0,31,32
 244 206 244 206 292 142 c 0,33,34
 294 138 294 138 305 124 c 128,-1,35
 316 110 316 110 320 104 c 128,-1,36
 324 98 324 98 334 88 c 128,-1,37
 344 78 344 78 352 73 c 128,-1,38
 360 68 360 68 373 61 c 128,-1,39
 386 54 386 54 399 52 c 128,-1,40
 412 50 412 50 428 50 c 0,41,42
 522 50 522 50 588 147 c 128,-1,43
 654 244 654 244 654 388 c 0,0,1
EndSplineSet
Substitution2: "'sups' Superscript lookup 9 subtable" five.superior
Substitution2: "'sinf' Scientific Inferiors lookup 10 subtable" five.inferior
Substitution2: "'case' Case-Sensitive Forms lookup 27 subtable" five.cap
Substitution2: "'pnum' Proportional Numbers lookup 16 subtable" five.fitted
Substitution2: "'onum' Oldstyle Figures lookup 14 subtable" five.taboldstyle
AlternateSubs2: "'aalt' Access All Alternates lookup 0 subtable" five.oldstyle five.fitted
EndChar

StartChar: six
Encoding: 54 54 23
Width: 952
GlyphClass: 2
Flags: W
LayerCount: 2
Fore
SplineSet
276 628 m 1,0,1
 260 546 260 546 260 468 c 0,2,3
 260 226 260 226 327 138 c 128,-1,4
 394 50 394 50 506 50 c 0,5,6
 586 50 586 50 639 134 c 128,-1,7
 692 218 692 218 692 376 c 0,8,9
 692 422 692 422 681 468 c 128,-1,10
 670 514 670 514 645 563 c 128,-1,11
 620 612 620 612 569 644 c 128,-1,12
 518 676 518 676 446 676 c 0,13,14
 348 676 348 676 276 628 c 1,0,1
294 702 m 1,15,16
 392 748 392 748 490 748 c 0,17,18
 684 748 684 748 773 655 c 128,-1,19
 862 562 862 562 862 414 c 0,20,21
 862 358 862 358 849 300 c 128,-1,22
 836 242 836 242 806 183 c 128,-1,23
 776 124 776 124 733 79 c 128,-1,24
 690 34 690 34 626 6 c 128,-1,25
 562 -22 562 -22 484 -22 c 0,26,27
 430 -22 430 -22 381 -11 c 128,-1,28
 332 0 332 0 278 34 c 128,-1,29
 224 68 224 68 184 120 c 128,-1,30
 144 172 144 172 117 264 c 128,-1,31
 90 356 90 356 90 476 c 0,32,33
 90 600 90 600 139 731 c 128,-1,34
 188 862 188 862 280 970 c 0,35,36
 368 1072 368 1072 473 1139 c 128,-1,37
 578 1206 578 1206 730 1252 c 1,38,39
 754 1236 754 1236 754 1198 c 1,40,41
 566 1128 566 1128 455 995 c 128,-1,42
 344 862 344 862 294 702 c 1,15,16
EndSplineSet
Substitution2: "'sups' Superscript lookup 9 subtable" six.superior
Substitution2: "'sinf' Scientific Inferiors lookup 10 subtable" six.inferior
Substitution2: "'case' Case-Sensitive Forms lookup 27 subtable" six.cap
Substitution2: "'pnum' Proportional Numbers lookup 16 subtable" six.fitted
Substitution2: "'onum' Oldstyle Figures lookup 14 subtable" six.taboldstyle
AlternateSubs2: "'aalt' Access All Alternates lookup 0 subtable" six.oldstyle six.fitted
EndChar

StartChar: seven
Encoding: 55 55 24
Width: 952
GlyphClass: 2
Flags: W
LayerCount: 2
Fore
SplineSet
348 1096 m 2,0,1
 310 1096 310 1096 282 1087 c 128,-1,2
 254 1078 254 1078 222 1037 c 128,-1,3
 190 996 190 996 170 918 c 1,4,5
 140 914 140 914 104 924 c 1,6,7
 142 1180 142 1180 146 1252 c 0,8,9
 146 1258 146 1258 154 1258 c 0,10,11
 162 1256 162 1256 189 1242 c 128,-1,12
 216 1228 216 1228 256 1228 c 2,13,-1
 678 1228 l 2,14,15
 760 1228 760 1228 836 1252 c 1,16,-1
 868 1226 l 1,17,18
 646 686 646 686 410 -20 c 1,19,-1
 270 -26 l 1,20,-1
 254 -12 l 1,21,22
 406 326 406 326 714 1096 c 1,23,-1
 348 1096 l 2,0,1
EndSplineSet
Substitution2: "'sups' Superscript lookup 9 subtable" seven.superior
Substitution2: "'sinf' Scientific Inferiors lookup 10 subtable" seven.inferior
Substitution2: "'case' Case-Sensitive Forms lookup 27 subtable" seven.cap
Substitution2: "'pnum' Proportional Numbers lookup 16 subtable" seven.fitted
Substitution2: "'onum' Oldstyle Figures lookup 14 subtable" seven.taboldstyle
AlternateSubs2: "'aalt' Access All Alternates lookup 0 subtable" seven.oldstyle seven.fitted
EndChar

StartChar: eight
Encoding: 56 56 25
Width: 952
GlyphClass: 2
Flags: W
LayerCount: 2
Fore
SplineSet
480 1178 m 0,0,1
 392 1178 392 1178 341 1129 c 128,-1,2
 290 1080 290 1080 290 1006 c 0,3,4
 290 948 290 948 318 898 c 128,-1,5
 346 848 346 848 434 790 c 1,6,-1
 498 752 l 1,7,8
 662 872 662 872 662 996 c 0,9,10
 662 1074 662 1074 618 1126 c 128,-1,11
 574 1178 574 1178 480 1178 c 0,0,1
804 994 m 0,12,13
 804 906 804 906 726 831 c 128,-1,14
 648 756 648 756 552 708 c 1,15,-1
 698 620 l 2,16,17
 858 524 858 524 858 332 c 0,18,19
 858 200 858 200 752 90 c 128,-1,20
 646 -20 646 -20 458 -20 c 0,21,22
 292 -20 292 -20 193 63 c 128,-1,23
 94 146 94 146 94 300 c 0,24,25
 94 442 94 442 212 544 c 0,26,27
 284 606 284 606 376 658 c 1,28,-1
 326 690 l 1,29,30
 146 802 146 802 146 966 c 0,31,32
 146 1086 146 1086 241 1168 c 128,-1,33
 336 1250 336 1250 490 1250 c 0,34,35
 638 1250 638 1250 721 1178 c 128,-1,36
 804 1106 804 1106 804 994 c 0,12,13
462 52 m 0,37,38
 556 52 556 52 632 104 c 128,-1,39
 708 156 708 156 708 290 c 0,40,41
 708 454 708 454 530 564 c 1,42,-1
 434 620 l 1,43,44
 320 544 320 544 276 455 c 128,-1,45
 232 366 232 366 232 300 c 0,46,47
 232 176 232 176 304 114 c 128,-1,48
 376 52 376 52 462 52 c 0,37,38
EndSplineSet
Substitution2: "'sups' Superscript lookup 9 subtable" eight.superior
Substitution2: "'sinf' Scientific Inferiors lookup 10 subtable" eight.inferior
Substitution2: "'case' Case-Sensitive Forms lookup 27 subtable" eight.cap
Substitution2: "'pnum' Proportional Numbers lookup 16 subtable" eight.fitted
Substitution2: "'onum' Oldstyle Figures lookup 14 subtable" eight.taboldstyle
AlternateSubs2: "'aalt' Access All Alternates lookup 0 subtable" eight.oldstyle eight.fitted
EndChar

StartChar: nine
Encoding: 57 57 26
Width: 952
GlyphClass: 2
Flags: W
LayerCount: 2
Fore
SplineSet
688 598 m 1,0,1
 704 680 704 680 704 758 c 0,2,3
 704 1000 704 1000 638 1089 c 128,-1,4
 572 1178 572 1178 458 1178 c 0,5,6
 378 1178 378 1178 325 1094 c 128,-1,7
 272 1010 272 1010 272 850 c 0,8,9
 272 804 272 804 283 758 c 128,-1,10
 294 712 294 712 319 663 c 128,-1,11
 344 614 344 614 395 582 c 128,-1,12
 446 550 446 550 518 550 c 0,13,14
 616 550 616 550 688 598 c 1,0,1
670 524 m 1,15,16
 572 478 572 478 476 480 c 0,17,18
 282 480 282 480 192 573 c 128,-1,19
 102 666 102 666 102 814 c 0,20,21
 102 884 102 884 125 957 c 128,-1,22
 148 1030 148 1030 191 1097 c 128,-1,23
 234 1164 234 1164 310 1207 c 128,-1,24
 386 1250 386 1250 482 1250 c 0,25,26
 536 1250 536 1250 584 1238 c 128,-1,27
 632 1226 632 1226 687 1193 c 128,-1,28
 742 1160 742 1160 782 1107 c 128,-1,29
 822 1054 822 1054 848 962 c 128,-1,30
 874 870 874 870 874 752 c 0,31,32
 874 628 874 628 825 496 c 128,-1,33
 776 364 776 364 684 256 c 0,34,35
 596 154 596 154 492 87 c 128,-1,36
 388 20 388 20 236 -24 c 1,37,38
 212 -10 212 -10 210 28 c 1,39,40
 398 98 398 98 509 231 c 128,-1,41
 620 364 620 364 670 524 c 1,15,16
EndSplineSet
Substitution2: "'sups' Superscript lookup 9 subtable" nine.superior
Substitution2: "'sinf' Scientific Inferiors lookup 10 subtable" nine.inferior
Substitution2: "'case' Case-Sensitive Forms lookup 27 subtable" nine.cap
Substitution2: "'pnum' Proportional Numbers lookup 16 subtable" nine.fitted
Substitution2: "'onum' Oldstyle Figures lookup 14 subtable" nine.taboldstyle
AlternateSubs2: "'aalt' Access All Alternates lookup 0 subtable" nine.oldstyle nine.fitted
EndChar

StartChar: colon
Encoding: 58 58 27
Width: 482
GlyphClass: 2
Flags: W
LayerCount: 2
Fore
SplineSet
144 727 m 128,-1,1
 144 772 144 772 175 804 c 128,-1,2
 206 836 206 836 251 836 c 128,-1,3
 296 836 296 836 328 804 c 128,-1,4
 360 772 360 772 360 727 c 128,-1,5
 360 682 360 682 328 650 c 128,-1,6
 296 618 296 618 251 618 c 128,-1,7
 206 618 206 618 175 650 c 128,-1,0
 144 682 144 682 144 727 c 128,-1,1
144 147 m 128,-1,9
 144 192 144 192 175 224 c 128,-1,10
 206 256 206 256 251 256 c 128,-1,11
 296 256 296 256 328 224 c 128,-1,12
 360 192 360 192 360 147 c 128,-1,13
 360 102 360 102 328 70 c 128,-1,14
 296 38 296 38 251 38 c 128,-1,15
 206 38 206 38 175 70 c 128,-1,8
 144 102 144 102 144 147 c 128,-1,9
EndSplineSet
EndChar

StartChar: semicolon
Encoding: 59 59 28
Width: 482
GlyphClass: 2
Flags: W
LayerCount: 2
Fore
SplineSet
144 727 m 128,-1,1
 144 772 144 772 175 804 c 128,-1,2
 206 836 206 836 251 836 c 128,-1,3
 296 836 296 836 328 804 c 128,-1,4
 360 772 360 772 360 727 c 128,-1,5
 360 682 360 682 328 650 c 128,-1,6
 296 618 296 618 251 618 c 128,-1,7
 206 618 206 618 175 650 c 128,-1,0
 144 682 144 682 144 727 c 128,-1,1
252 194 m 0,8,9
 314 194 314 194 351 139 c 128,-1,10
 388 84 388 84 388 -8 c 0,11,12
 388 -110 388 -110 316 -182 c 128,-1,13
 244 -254 244 -254 146 -272 c 1,14,15
 128 -254 128 -254 126 -224 c 1,16,17
 200 -206 200 -206 254 -151 c 128,-1,18
 308 -96 308 -96 308 -60 c 0,19,20
 308 -4 308 -4 234 4 c 1,21,22
 144 18 144 18 144 94 c 0,23,24
 144 138 144 138 174 166 c 128,-1,25
 204 194 204 194 252 194 c 0,8,9
EndSplineSet
EndChar

StartChar: less
Encoding: 60 60 29
Width: 1126
GlyphClass: 2
Flags: W
LayerCount: 2
Fore
SplineSet
282 490 m 1,0,-1
 932 252 l 1,1,2
 952 230 952 230 952 195 c 128,-1,3
 952 160 952 160 932 150 c 1,4,-1
 134 440 l 1,5,6
 106 486 106 486 134 538 c 1,7,-1
 932 828 l 1,8,9
 952 818 952 818 952 783 c 128,-1,10
 952 748 952 748 932 724 c 1,11,-1
 282 490 l 1,0,-1
EndSplineSet
EndChar

StartChar: equal
Encoding: 61 61 30
Width: 1126
GlyphClass: 2
Flags: W
LayerCount: 2
Fore
SplineSet
950 632 m 2,0,-1
 154 632 l 2,1,2
 124 632 124 632 122 666 c 0,3,4
 122 688 122 688 139 712 c 128,-1,5
 156 736 156 736 174 736 c 2,6,-1
 976 736 l 2,7,8
 1004 736 1004 736 1006 700 c 0,9,10
 1006 684 1006 684 987 658 c 128,-1,11
 968 632 968 632 950 632 c 2,0,-1
950 292 m 2,12,-1
 154 292 l 2,13,14
 124 292 124 292 122 326 c 0,15,16
 122 348 122 348 139 372 c 128,-1,17
 156 396 156 396 174 396 c 2,18,-1
 976 396 l 2,19,20
 1004 396 1004 396 1006 360 c 0,21,22
 1006 344 1006 344 987 318 c 128,-1,23
 968 292 968 292 950 292 c 2,12,-1
EndSplineSet
Substitution2: "'sups' Superscript lookup 9 subtable" equal.superior
Substitution2: "'sinf' Scientific Inferiors lookup 10 subtable" equal.inferior
EndChar

StartChar: greater
Encoding: 62 62 31
Width: 1126
GlyphClass: 2
Flags: W
LayerCount: 2
Fore
SplineSet
844 484 m 1,0,-1
 194 720 l 1,1,2
 174 742 174 742 174 778 c 128,-1,3
 174 814 174 814 194 824 c 1,4,-1
 994 532 l 1,5,6
 1022 486 1022 486 994 434 c 1,7,-1
 194 146 l 1,8,9
 174 156 174 156 174 191 c 128,-1,10
 174 226 174 226 194 248 c 1,11,-1
 844 484 l 1,0,-1
EndSplineSet
EndChar

StartChar: question
Encoding: 63 63 32
Width: 890
GlyphClass: 2
Flags: W
LayerCount: 2
Fore
SplineSet
234 1172 m 0,0,1
 234 1136 234 1136 246 1119 c 128,-1,2
 258 1102 258 1102 258 1069 c 128,-1,3
 258 1036 258 1036 233 1017 c 128,-1,4
 208 998 208 998 178 998 c 0,5,6
 146 998 146 998 120 1018 c 128,-1,7
 94 1038 94 1038 94 1086 c 0,8,9
 94 1186 94 1186 198 1270 c 1,10,11
 290 1350 290 1350 452 1350 c 0,12,13
 608 1350 608 1350 702 1265 c 128,-1,14
 796 1180 796 1180 796 1040 c 0,15,16
 796 982 796 982 778 933 c 128,-1,17
 760 884 760 884 719 842 c 128,-1,18
 678 800 678 800 651 778 c 128,-1,19
 624 756 624 756 574 718 c 0,20,21
 488 654 488 654 466 616 c 0,22,23
 438 560 438 560 438 466 c 2,24,-1
 438 376 l 2,25,26
 438 356 438 356 404 356 c 0,27,28
 372 356 372 356 370 376 c 2,29,-1
 370 472 l 2,30,31
 370 670 370 670 514 800 c 0,32,33
 576 858 576 858 601 909 c 128,-1,34
 626 960 626 960 626 1032 c 0,35,36
 626 1134 626 1134 572 1208 c 128,-1,37
 518 1282 518 1282 432 1282 c 128,-1,38
 346 1282 346 1282 290 1251 c 128,-1,39
 234 1220 234 1220 234 1172 c 0,0,1
294 89 m 128,-1,41
 294 134 294 134 326 165 c 128,-1,42
 358 196 358 196 403 196 c 128,-1,43
 448 196 448 196 480 165 c 128,-1,44
 512 134 512 134 512 89 c 128,-1,45
 512 44 512 44 480 12 c 128,-1,46
 448 -20 448 -20 403 -20 c 128,-1,47
 358 -20 358 -20 326 12 c 128,-1,40
 294 44 294 44 294 89 c 128,-1,41
EndSplineSet
EndChar

StartChar: at
Encoding: 64 64 33
Width: 1832
GlyphClass: 2
Flags: W
LayerCount: 2
Fore
SplineSet
1166 648 m 0,0,1
 1166 706 1166 706 1128 741 c 128,-1,2
 1090 776 1090 776 1032 776 c 0,3,4
 998 776 998 776 943 757 c 128,-1,5
 888 738 888 738 848 694 c 0,6,7
 708 554 708 554 708 332 c 0,8,9
 708 144 708 144 868 144 c 0,10,11
 922 144 922 144 989 220 c 128,-1,12
 1056 296 1056 296 1104 410 c 0,13,14
 1166 558 1166 558 1166 648 c 0,0,1
1194 152 m 0,15,16
 1194 128 1194 128 1216 126 c 0,17,18
 1384 126 1384 126 1469 224 c 128,-1,19
 1554 322 1554 322 1554 564 c 0,20,21
 1554 716 1554 716 1495 838 c 128,-1,22
 1436 960 1436 960 1343 1034 c 128,-1,23
 1250 1108 1250 1108 1145 1148 c 128,-1,24
 1040 1188 1040 1188 940 1188 c 0,25,26
 820 1188 820 1188 706 1146 c 128,-1,27
 592 1104 592 1104 497 1023 c 128,-1,28
 402 942 402 942 343 805 c 128,-1,29
 284 668 284 668 284 494 c 0,30,31
 284 396 284 396 304 297 c 128,-1,32
 324 198 324 198 374 97 c 128,-1,33
 424 -4 424 -4 499 -81 c 128,-1,34
 574 -158 574 -158 696 -207 c 128,-1,35
 818 -256 818 -256 968 -256 c 0,36,37
 1210 -256 1210 -256 1380 -120 c 1,38,-1
 1406 -158 l 1,39,40
 1298 -240 1298 -240 1194 -282 c 128,-1,41
 1090 -324 1090 -324 930 -324 c 0,42,43
 570 -324 570 -324 345 -101 c 128,-1,44
 120 122 120 122 120 456 c 0,45,46
 120 786 120 786 367 1019 c 128,-1,47
 614 1252 614 1252 960 1252 c 0,48,49
 1288 1252 1288 1252 1503 1059 c 128,-1,50
 1718 866 1718 866 1718 578 c 0,51,52
 1718 484 1718 484 1687 397 c 128,-1,53
 1656 310 1656 310 1592 231 c 128,-1,54
 1528 152 1528 152 1408 104 c 128,-1,55
 1288 56 1288 56 1128 56 c 0,56,57
 1054 56 1054 56 1054 140 c 0,58,59
 1054 172 1054 172 1086 268 c 1,60,-1
 1082 270 l 1,61,62
 1018 164 1018 164 943 112 c 128,-1,63
 868 60 868 60 808 60 c 0,64,65
 736 60 736 60 683 87 c 128,-1,66
 630 114 630 114 606 156 c 128,-1,67
 582 198 582 198 571 237 c 128,-1,68
 560 276 560 276 560 314 c 0,69,70
 560 524 560 524 712 682 c 128,-1,71
 864 840 864 840 1036 840 c 0,72,73
 1088 840 1088 840 1134 815 c 128,-1,74
 1180 790 1180 790 1194 752 c 1,75,-1
 1204 800 l 1,76,-1
 1312 828 l 1,77,-1
 1344 818 l 1,78,-1
 1220 288 l 2,79,80
 1194 170 1194 170 1194 152 c 0,15,16
EndSplineSet
EndChar

StartChar: A
Encoding: 65 65 34
Width: 1422
GlyphClass: 2
Flags: W
AnchorPoint: "Anchor-6" 630 -226 basechar 0
AnchorPoint: "Anchor-5" 238 10 basechar 0
AnchorPoint: "Anchor-2" 724 1740 basechar 0
LayerCount: 2
Fore
SplineSet
538 580 m 2,0,-1
 902 580 l 1,1,-1
 708 1136 l 1,2,-1
 696 1136 l 1,3,-1
 488 606 l 2,4,5
 482 592 482 592 493 586 c 128,-1,6
 504 580 504 580 538 580 c 2,0,-1
318 162 m 1,7,8
 316 142 316 142 312 126 c 128,-1,9
 308 110 308 110 323 100 c 128,-1,10
 338 90 338 90 347 84 c 128,-1,11
 356 78 356 78 381 73 c 128,-1,12
 406 68 406 68 420 67 c 128,-1,13
 434 66 434 66 458 64 c 1,14,15
 466 54 466 54 466 29 c 128,-1,16
 466 4 466 4 458 -4 c 1,17,18
 306 0 306 0 196 0 c 0,19,20
 120 0 120 0 14 -4 c 1,21,22
 4 4 4 4 4 29 c 128,-1,23
 4 54 4 54 14 64 c 1,24,25
 92 70 92 70 137 95 c 128,-1,26
 182 120 182 120 220 208 c 2,27,-1
 684 1306 l 1,28,29
 730 1306 730 1306 796 1348 c 1,30,-1
 1218 176 l 2,31,32
 1234 128 1234 128 1266 104 c 128,-1,33
 1298 80 1298 80 1325 74 c 128,-1,34
 1352 68 1352 68 1402 64 c 1,35,36
 1412 54 1412 54 1413 29 c 128,-1,37
 1414 4 1414 4 1402 -4 c 1,38,39
 1258 0 1258 0 1170 0 c 0,40,41
 1054 0 1054 0 902 -4 c 1,42,43
 894 4 894 4 893 29 c 128,-1,44
 892 54 892 54 902 64 c 1,45,46
 920 66 920 66 930 66 c 128,-1,47
 940 66 940 66 956 68 c 128,-1,48
 972 70 972 70 982 72 c 128,-1,49
 992 74 992 74 1004 76 c 128,-1,50
 1016 78 1016 78 1023 81 c 128,-1,51
 1030 84 1030 84 1038 89 c 128,-1,52
 1046 94 1046 94 1049 99 c 128,-1,53
 1052 104 1052 104 1055 111 c 128,-1,54
 1058 118 1058 118 1057 128 c 128,-1,55
 1056 138 1056 138 1052 148 c 2,56,-1
 934 494 l 1,57,-1
 502 494 l 2,58,59
 466 494 466 494 452 487 c 128,-1,60
 438 480 438 480 430 458 c 2,61,-1
 318 162 l 1,7,8
EndSplineSet
Substitution2: "'c2sc' Capitals to Small Capitals lookup 9 subtable" a.sc
Position2: "'cpsp' Capital Spacing lookup 0 subtable" dx=4 dy=0 dh=10 dv=0
EndChar

StartChar: B
Encoding: 66 66 35
Width: 1204
GlyphClass: 2
Flags: W
AnchorPoint: "Anchor-6" 548 -226 basechar 0
AnchorPoint: "Anchor-5" 512 0 basechar 0
AnchorPoint: "Anchor-3" 626 358 basechar 0
AnchorPoint: "Anchor-2" 546 1740 basechar 0
AnchorPoint: "Anchor-0" 1042 1500 basechar 0
LayerCount: 2
Fore
SplineSet
392 1126 m 2,0,-1
 392 750 l 1,1,-1
 542 750 l 2,2,3
 832 750 832 750 834 986 c 0,4,5
 834 1128 834 1128 754 1192 c 128,-1,6
 674 1256 674 1256 570 1256 c 0,7,8
 480 1256 480 1256 444 1244 c 128,-1,9
 408 1232 408 1232 400 1211 c 128,-1,10
 392 1190 392 1190 392 1126 c 2,0,-1
392 680 m 1,11,-1
 392 242 l 2,12,13
 392 144 392 144 425 104 c 128,-1,14
 458 64 458 64 562 64 c 0,15,16
 778 64 778 64 854 136 c 128,-1,17
 930 208 930 208 930 338 c 0,18,19
 930 488 930 488 831 584 c 128,-1,20
 732 680 732 680 532 680 c 2,21,-1
 392 680 l 1,11,-1
304 1320 m 0,22,23
 340 1320 340 1320 432 1323 c 128,-1,24
 524 1326 524 1326 560 1326 c 0,25,26
 1000 1326 1000 1326 1000 1010 c 0,27,28
 1000 930 1000 930 943 856 c 128,-1,29
 886 782 886 782 804 742 c 1,30,-1
 804 738 l 1,31,32
 948 698 948 698 1034 607 c 128,-1,33
 1120 516 1120 516 1120 376 c 0,34,35
 1120 304 1120 304 1096 241 c 128,-1,36
 1072 178 1072 178 1016 121 c 128,-1,37
 960 64 960 64 855 30 c 128,-1,38
 750 -4 750 -4 604 -4 c 0,39,40
 506 -4 506 -4 418 -2 c 128,-1,41
 330 0 330 0 306 0 c 0,42,43
 200 0 200 0 38 -4 c 1,44,45
 28 4 28 4 28 29 c 128,-1,46
 28 54 28 54 38 64 c 1,47,48
 152 68 152 68 185 97 c 128,-1,49
 218 126 218 126 218 250 c 2,50,-1
 218 1072 l 2,51,52
 218 1194 218 1194 186 1224 c 128,-1,53
 154 1254 154 1254 38 1258 c 1,54,55
 28 1266 28 1266 28 1290 c 128,-1,56
 28 1314 28 1314 38 1326 c 1,57,58
 200 1320 200 1320 304 1320 c 0,22,23
EndSplineSet
Substitution2: "'c2sc' Capitals to Small Capitals lookup 9 subtable" b.sc
Position2: "'cpsp' Capital Spacing lookup 0 subtable" dx=4 dy=0 dh=10 dv=0
EndChar

StartChar: C
Encoding: 67 67 36
Width: 1322
GlyphClass: 2
Flags: W
AnchorPoint: "Anchor-6" 744 -226 basechar 0
AnchorPoint: "Anchor-5" 730 -14 basechar 0
AnchorPoint: "Anchor-3" 708 646 basechar 0
AnchorPoint: "Anchor-2" 696 1740 basechar 0
AnchorPoint: "Anchor-1" 1270 1242 basechar 0
AnchorPoint: "Anchor-0" 1248 1500 basechar 0
LayerCount: 2
Fore
SplineSet
732 -20 m 0,0,1
 416 -20 416 -20 246 166 c 128,-1,2
 76 352 76 352 76 634 c 0,3,4
 76 794 76 794 133 937 c 128,-1,5
 190 1080 190 1080 292 1174 c 0,6,7
 482 1348 482 1348 734 1348 c 0,8,9
 882 1348 882 1348 1022 1303 c 128,-1,10
 1162 1258 1162 1258 1182 1256 c 1,11,12
 1212 1086 1212 1086 1226 938 c 1,13,14
 1188 918 1188 918 1160 928 c 1,15,16
 1056 1272 1056 1272 710 1272 c 0,17,18
 532 1272 532 1272 382 1090 c 0,19,20
 262 940 262 940 262 674 c 0,21,22
 262 438 262 438 396 251 c 128,-1,23
 530 64 530 64 730 64 c 0,24,25
 874 64 874 64 985 116 c 128,-1,26
 1096 168 1096 168 1204 286 c 1,27,28
 1234 286 1234 286 1252 256 c 1,29,30
 1042 -20 1042 -20 732 -20 c 0,0,1
EndSplineSet
Substitution2: "'c2sc' Capitals to Small Capitals lookup 9 subtable" c.sc
Position2: "'cpsp' Capital Spacing lookup 0 subtable" dx=4 dy=0 dh=10 dv=0
EndChar

StartChar: D
Encoding: 68 68 37
Width: 1434
GlyphClass: 2
Flags: W
AnchorPoint: "Anchor-6" 632 -226 basechar 0
AnchorPoint: "Anchor-5" 632 2 basechar 0
AnchorPoint: "Anchor-3" 708 646 basechar 0
AnchorPoint: "Anchor-2" 626 1740 basechar 0
AnchorPoint: "Anchor-0" 1268 1500 basechar 0
LayerCount: 2
Fore
SplineSet
392 172 m 2,0,1
 392 116 392 116 434 91 c 128,-1,2
 476 66 476 66 614 66 c 0,3,4
 730 66 730 66 821 89 c 128,-1,5
 912 112 912 112 990 168 c 128,-1,6
 1068 224 1068 224 1109 328 c 128,-1,7
 1150 432 1150 432 1150 582 c 0,8,9
 1150 706 1150 706 1120 821 c 128,-1,10
 1090 936 1090 936 1024 1036 c 128,-1,11
 958 1136 958 1136 839 1196 c 128,-1,12
 720 1256 720 1256 564 1256 c 0,13,14
 392 1256 392 1256 392 1156 c 2,15,-1
 392 172 l 2,0,1
304 1320 m 0,16,17
 336 1320 336 1320 449 1323 c 128,-1,18
 562 1326 562 1326 642 1326 c 0,19,20
 936 1326 936 1326 1142 1122 c 128,-1,21
 1348 918 1348 918 1348 630 c 0,22,23
 1348 450 1348 450 1285 320 c 128,-1,24
 1222 190 1222 190 1119 123 c 128,-1,25
 1016 56 1016 56 906 26 c 128,-1,26
 796 -4 796 -4 678 -4 c 0,27,28
 556 -4 556 -4 441 -2 c 128,-1,29
 326 0 326 0 306 0 c 0,30,31
 200 0 200 0 38 -4 c 1,32,33
 28 4 28 4 28 29 c 128,-1,34
 28 54 28 54 38 64 c 1,35,36
 152 68 152 68 185 97 c 128,-1,37
 218 126 218 126 218 250 c 2,38,-1
 218 1072 l 2,39,40
 218 1194 218 1194 186 1224 c 128,-1,41
 154 1254 154 1254 38 1258 c 1,42,43
 28 1266 28 1266 28 1290 c 128,-1,44
 28 1314 28 1314 38 1326 c 1,45,46
 204 1320 204 1320 304 1320 c 0,16,17
EndSplineSet
Substitution2: "'c2sc' Capitals to Small Capitals lookup 9 subtable" d.sc
Position2: "'cpsp' Capital Spacing lookup 0 subtable" dx=4 dy=0 dh=10 dv=0
EndChar

StartChar: E
Encoding: 69 69 38
Width: 1140
GlyphClass: 2
Flags: W
AnchorPoint: "Anchor-6" 588 -226 basechar 0
AnchorPoint: "Anchor-5" 588 8 basechar 0
AnchorPoint: "Anchor-2" 576 1740 basechar 0
AnchorPoint: "Anchor-0" 1080 1500 basechar 0
LayerCount: 2
Fore
SplineSet
576 740 m 2,0,1
 700 740 700 740 729 764 c 128,-1,2
 758 788 758 788 762 878 c 1,3,4
 770 888 770 888 795 888 c 128,-1,5
 820 888 820 888 830 878 c 1,6,7
 826 780 826 780 826 702 c 0,8,9
 826 628 826 628 830 522 c 1,10,11
 820 512 820 512 795 512 c 128,-1,12
 770 512 770 512 762 522 c 1,13,14
 758 578 758 578 750 601 c 128,-1,15
 742 624 742 624 701 643 c 128,-1,16
 660 662 660 662 576 662 c 2,17,-1
 390 662 l 1,18,-1
 390 208 l 2,19,20
 390 136 390 136 415 108 c 128,-1,21
 440 80 440 80 504 80 c 2,22,-1
 742 80 l 2,23,24
 936 80 936 80 1010 348 c 1,25,26
 1046 356 1046 356 1082 338 c 1,27,28
 1058 176 1058 176 1006 -4 c 1,29,30
 842 0 842 0 744 0 c 2,31,-1
 304 0 l 2,32,33
 190 0 190 0 36 -4 c 1,34,35
 28 4 28 4 28 29 c 128,-1,36
 28 54 28 54 36 64 c 1,37,38
 150 68 150 68 183 97 c 128,-1,39
 216 126 216 126 216 250 c 2,40,-1
 216 1072 l 2,41,42
 216 1194 216 1194 184 1224 c 128,-1,43
 152 1254 152 1254 36 1258 c 1,44,45
 28 1266 28 1266 28 1290 c 128,-1,46
 28 1314 28 1314 36 1326 c 1,47,48
 200 1322 200 1322 302 1320 c 2,49,-1
 824 1320 l 2,50,51
 878 1320 878 1320 924 1330 c 0,52,53
 932 1330 932 1330 932 1324 c 0,54,55
 948 1254 948 1254 976 1026 c 1,56,57
 944 1010 944 1010 910 1016 c 1,58,59
 872 1138 872 1138 828 1189 c 128,-1,60
 784 1240 784 1240 678 1240 c 2,61,-1
 524 1240 l 2,62,63
 444 1240 444 1240 417 1210 c 128,-1,64
 390 1180 390 1180 390 1108 c 2,65,-1
 390 740 l 1,66,-1
 576 740 l 2,0,1
EndSplineSet
Substitution2: "'c2sc' Capitals to Small Capitals lookup 9 subtable" e.sc
Position2: "'cpsp' Capital Spacing lookup 0 subtable" dx=4 dy=0 dh=10 dv=0
EndChar

StartChar: F
Encoding: 70 70 39
Width: 992
GlyphClass: 2
Flags: W
AnchorPoint: "Anchor-6" 428 -226 basechar 0
AnchorPoint: "Anchor-5" 314 -2 basechar 0
AnchorPoint: "Anchor-2" 582 1740 basechar 0
AnchorPoint: "Anchor-0" 1038 1500 basechar 0
LayerCount: 2
Fore
SplineSet
580 662 m 2,0,-1
 390 662 l 1,1,-1
 390 250 l 2,2,3
 390 184 390 184 396 149 c 128,-1,4
 402 114 402 114 425 95 c 128,-1,5
 448 76 448 76 477 71 c 128,-1,6
 506 66 506 66 568 64 c 1,7,8
 576 54 576 54 576 29 c 128,-1,9
 576 4 576 4 568 -4 c 1,10,11
 424 0 424 0 304 0 c 0,12,13
 182 0 182 0 36 -4 c 1,14,15
 26 4 26 4 26 29 c 128,-1,16
 26 54 26 54 36 64 c 1,17,18
 98 66 98 66 127 71 c 128,-1,19
 156 76 156 76 179 95 c 128,-1,20
 202 114 202 114 209 149 c 128,-1,21
 216 184 216 184 216 250 c 2,22,-1
 216 1072 l 2,23,24
 216 1138 216 1138 209 1172 c 128,-1,25
 202 1206 202 1206 179 1226 c 128,-1,26
 156 1246 156 1246 127 1251 c 128,-1,27
 98 1256 98 1256 36 1258 c 1,28,29
 26 1266 26 1266 26 1290 c 128,-1,30
 26 1314 26 1314 36 1326 c 1,31,32
 200 1322 200 1322 302 1320 c 2,33,-1
 824 1320 l 2,34,35
 880 1320 880 1320 920 1330 c 0,36,37
 928 1330 928 1330 928 1324 c 0,38,39
 950 1206 950 1206 972 1026 c 1,40,41
 946 1016 946 1016 910 1016 c 1,42,43
 886 1096 886 1096 857 1139 c 128,-1,44
 828 1182 828 1182 764 1211 c 128,-1,45
 700 1240 700 1240 596 1240 c 2,46,-1
 504 1240 l 2,47,48
 434 1240 434 1240 412 1215 c 128,-1,49
 390 1190 390 1190 390 1108 c 2,50,-1
 390 740 l 1,51,-1
 580 740 l 2,52,53
 704 740 704 740 733 764 c 128,-1,54
 762 788 762 788 766 878 c 1,55,56
 774 888 774 888 799 888 c 128,-1,57
 824 888 824 888 834 878 c 1,58,59
 830 772 830 772 830 702 c 0,60,61
 830 624 830 624 834 522 c 1,62,63
 824 512 824 512 799 512 c 128,-1,64
 774 512 774 512 766 522 c 1,65,66
 762 578 762 578 754 601 c 128,-1,67
 746 624 746 624 705 643 c 128,-1,68
 664 662 664 662 580 662 c 2,0,-1
EndSplineSet
Substitution2: "'c2sc' Capitals to Small Capitals lookup 9 subtable" f.sc
Position2: "'cpsp' Capital Spacing lookup 0 subtable" dx=4 dy=0 dh=10 dv=0
EndChar

StartChar: G
Encoding: 71 71 40
Width: 1402
GlyphClass: 2
Flags: W
AnchorPoint: "Anchor-6" 752 -226 basechar 0
AnchorPoint: "Anchor-5" 690 4 basechar 0
AnchorPoint: "Anchor-3" 630 686 basechar 0
AnchorPoint: "Anchor-2" 748 1740 basechar 0
AnchorPoint: "Anchor-1" 1228 1242 basechar 0
AnchorPoint: "Anchor-0" 1292 1500 basechar 0
LayerCount: 2
Fore
SplineSet
772 1348 m 0,0,1
 872 1348 872 1348 949 1329 c 128,-1,2
 1026 1310 1026 1310 1091 1286 c 128,-1,3
 1156 1262 1156 1262 1198 1256 c 1,4,5
 1236 1082 1236 1082 1246 940 c 1,6,7
 1212 926 1212 926 1178 928 c 1,8,9
 1156 1006 1156 1006 1129 1059 c 128,-1,10
 1102 1112 1102 1112 1054 1165 c 128,-1,11
 1006 1218 1006 1218 928 1246 c 128,-1,12
 850 1274 850 1274 744 1274 c 0,13,14
 558 1274 558 1274 415 1102 c 128,-1,15
 272 930 272 930 272 670 c 0,16,17
 272 528 272 528 326 390 c 128,-1,18
 380 252 380 252 497 153 c 128,-1,19
 614 54 614 54 768 54 c 0,20,21
 1004 54 1004 54 1086 132 c 1,22,-1
 1086 444 l 2,23,24
 1086 502 1086 502 1050 518 c 128,-1,25
 1014 534 1014 534 918 542 c 1,26,27
 910 552 910 552 910 579 c 128,-1,28
 910 606 910 606 918 616 c 1,29,30
 1098 612 1098 612 1172 612 c 0,31,32
 1256 612 1256 612 1354 616 c 1,33,34
 1364 606 1364 606 1364 579 c 128,-1,35
 1364 552 1364 552 1354 542 c 1,36,37
 1304 538 1304 538 1282 517 c 128,-1,38
 1260 496 1260 496 1260 444 c 2,39,-1
 1260 206 l 2,40,41
 1260 176 1260 176 1292 150 c 1,42,43
 1094 -20 1094 -20 720 -20 c 0,44,45
 432 -20 432 -20 254 164 c 128,-1,46
 76 348 76 348 76 628 c 0,47,48
 76 844 76 844 179 1012 c 128,-1,49
 282 1180 282 1180 440 1264 c 128,-1,50
 598 1348 598 1348 772 1348 c 0,0,1
EndSplineSet
Substitution2: "'c2sc' Capitals to Small Capitals lookup 9 subtable" g.sc
Position2: "'cpsp' Capital Spacing lookup 0 subtable" dx=4 dy=0 dh=10 dv=0
EndChar

StartChar: H
Encoding: 72 72 41
Width: 1494
GlyphClass: 2
Flags: W
AnchorPoint: "Anchor-6" 738 -226 basechar 0
AnchorPoint: "Anchor-5" 308 0 basechar 0
AnchorPoint: "Anchor-3" 730 994 basechar 0
AnchorPoint: "Anchor-2" 740 1740 basechar 0
AnchorPoint: "Anchor-0" 1492 1500 basechar 0
LayerCount: 2
Fore
SplineSet
1266 250 m 2,0,1
 1266 128 1266 128 1298 98 c 128,-1,2
 1330 68 1330 68 1444 64 c 1,3,4
 1454 54 1454 54 1454 29 c 128,-1,5
 1454 4 1454 4 1444 -4 c 1,6,7
 1264 0 1264 0 1180 0 c 0,8,9
 1098 0 1098 0 914 -4 c 1,10,11
 906 4 906 4 906 29 c 128,-1,12
 906 54 906 54 914 64 c 1,13,14
 1028 68 1028 68 1060 97 c 128,-1,15
 1092 126 1092 126 1092 250 c 2,16,-1
 1092 658 l 1,17,-1
 392 658 l 1,18,-1
 392 250 l 2,19,20
 392 128 392 128 423 98 c 128,-1,21
 454 68 454 68 570 64 c 1,22,23
 578 54 578 54 578 29 c 128,-1,24
 578 4 578 4 570 -4 c 1,25,26
 390 0 390 0 306 0 c 0,27,28
 220 0 220 0 38 -4 c 1,29,30
 28 4 28 4 28 29 c 128,-1,31
 28 54 28 54 38 64 c 1,32,33
 152 68 152 68 185 97 c 128,-1,34
 218 126 218 126 218 250 c 2,35,-1
 218 1072 l 2,36,37
 218 1194 218 1194 186 1224 c 128,-1,38
 154 1254 154 1254 38 1258 c 1,39,40
 28 1266 28 1266 28 1290 c 128,-1,41
 28 1314 28 1314 38 1326 c 1,42,43
 194 1322 194 1322 304 1320 c 0,44,45
 414 1320 414 1320 570 1326 c 1,46,47
 578 1316 578 1316 578 1291 c 128,-1,48
 578 1266 578 1266 570 1258 c 1,49,50
 456 1254 456 1254 424 1224 c 128,-1,51
 392 1194 392 1194 392 1072 c 2,52,-1
 392 744 l 1,53,-1
 1092 744 l 1,54,-1
 1092 1072 l 2,55,56
 1092 1194 1092 1194 1060 1224 c 128,-1,57
 1028 1254 1028 1254 914 1258 c 1,58,59
 906 1266 906 1266 906 1290 c 128,-1,60
 906 1314 906 1314 914 1326 c 1,61,62
 1094 1322 1094 1322 1178 1320 c 0,63,64
 1276 1320 1276 1320 1444 1326 c 1,65,66
 1454 1316 1454 1316 1454 1291 c 128,-1,67
 1454 1266 1454 1266 1444 1258 c 1,68,69
 1330 1254 1330 1254 1298 1224 c 128,-1,70
 1266 1194 1266 1194 1266 1072 c 2,71,-1
 1266 250 l 2,0,1
EndSplineSet
Substitution2: "'c2sc' Capitals to Small Capitals lookup 9 subtable" h.sc
Position2: "'cpsp' Capital Spacing lookup 0 subtable" dx=4 dy=0 dh=10 dv=0
EndChar

StartChar: I
Encoding: 73 73 42
Width: 608
GlyphClass: 2
Flags: W
AnchorPoint: "Anchor-6" 302 -226 basechar 0
AnchorPoint: "Anchor-5" 302 2 basechar 0
AnchorPoint: "Anchor-3" 304 666 basechar 0
AnchorPoint: "Anchor-2" 308 1740 basechar 0
LayerCount: 2
Fore
SplineSet
392 250 m 2,0,1
 392 128 392 128 423 98 c 128,-1,2
 454 68 454 68 570 64 c 1,3,4
 578 54 578 54 578 29 c 128,-1,5
 578 4 578 4 570 -4 c 1,6,7
 386 0 386 0 306 0 c 0,8,9
 224 0 224 0 38 -4 c 1,10,11
 28 4 28 4 28 29 c 128,-1,12
 28 54 28 54 38 64 c 1,13,14
 152 68 152 68 185 97 c 128,-1,15
 218 126 218 126 218 250 c 2,16,-1
 218 1072 l 2,17,18
 218 1194 218 1194 186 1224 c 128,-1,19
 154 1254 154 1254 38 1258 c 1,20,21
 28 1266 28 1266 28 1290 c 128,-1,22
 28 1314 28 1314 38 1326 c 1,23,24
 230 1322 230 1322 304 1320 c 0,25,26
 390 1320 390 1320 570 1326 c 1,27,28
 578 1316 578 1316 578 1291 c 128,-1,29
 578 1266 578 1266 570 1258 c 1,30,31
 456 1254 456 1254 424 1224 c 128,-1,32
 392 1194 392 1194 392 1072 c 2,33,-1
 392 250 l 2,0,1
EndSplineSet
Substitution2: "'c2sc' Capitals to Small Capitals lookup 9 subtable" i.sc
Position2: "'cpsp' Capital Spacing lookup 0 subtable" dx=4 dy=0 dh=10 dv=0
EndChar

StartChar: J
Encoding: 74 74 43
Width: 658
GlyphClass: 2
Flags: W
AnchorPoint: "Anchor-3" 380 646 basechar 0
AnchorPoint: "Anchor-2" 372 1740 basechar 0
LayerCount: 2
Fore
SplineSet
462 1072 m 2,0,-1
 462 210 l 2,1,2
 462 106 462 106 444 26 c 128,-1,3
 426 -54 426 -54 389 -111 c 128,-1,4
 352 -168 352 -168 326 -197 c 128,-1,5
 300 -226 300 -226 254 -264 c 0,6,7
 152 -352 152 -352 14 -352 c 0,8,9
 -32 -352 -32 -352 -86 -321 c 128,-1,10
 -140 -290 -140 -290 -140 -242 c 0,11,12
 -140 -212 -140 -212 -107 -183 c 128,-1,13
 -74 -154 -74 -154 -50 -154 c 0,14,15
 8 -154 8 -154 32 -204 c 0,16,17
 56 -260 56 -260 114 -260 c 0,18,19
 154 -260 154 -260 190 -233 c 128,-1,20
 226 -206 226 -206 257 -105 c 128,-1,21
 288 -4 288 -4 288 166 c 2,22,-1
 288 1072 l 2,23,24
 288 1194 288 1194 254 1224 c 128,-1,25
 220 1254 220 1254 90 1258 c 1,26,27
 82 1266 82 1266 82 1290 c 128,-1,28
 82 1314 82 1314 90 1326 c 1,29,30
 294 1322 294 1322 374 1320 c 0,31,32
 464 1320 464 1320 620 1326 c 1,33,34
 630 1316 630 1316 630 1291 c 128,-1,35
 630 1266 630 1266 620 1258 c 1,36,37
 522 1254 522 1254 492 1223 c 128,-1,38
 462 1192 462 1192 462 1072 c 2,0,-1
EndSplineSet
Substitution2: "'c2sc' Capitals to Small Capitals lookup 9 subtable" j.sc
Position2: "'cpsp' Capital Spacing lookup 0 subtable" dx=4 dy=0 dh=10 dv=0
EndChar

StartChar: K
Encoding: 75 75 44
Width: 1304
GlyphClass: 2
Flags: W
AnchorPoint: "Anchor-6" 700 -226 basechar 0
AnchorPoint: "Anchor-5" 304 -2 basechar 0
AnchorPoint: "Anchor-2" 688 1740 basechar 0
AnchorPoint: "Anchor-0" 1330 1500 basechar 0
LayerCount: 2
Fore
SplineSet
392 250 m 2,0,1
 392 206 392 206 395 178 c 128,-1,2
 398 150 398 150 407 128 c 128,-1,3
 416 106 416 106 426 95 c 128,-1,4
 436 84 436 84 460 77 c 128,-1,5
 484 70 484 70 506 68 c 128,-1,6
 528 66 528 66 570 64 c 1,7,8
 580 54 580 54 580 29 c 128,-1,9
 580 4 580 4 570 -4 c 1,10,11
 386 0 386 0 306 0 c 0,12,13
 224 0 224 0 38 -4 c 1,14,15
 30 4 30 4 30 29 c 128,-1,16
 30 54 30 54 38 64 c 1,17,18
 100 66 100 66 129 71 c 128,-1,19
 158 76 158 76 181 95 c 128,-1,20
 204 114 204 114 211 149 c 128,-1,21
 218 184 218 184 218 250 c 2,22,-1
 218 1072 l 2,23,24
 218 1138 218 1138 211 1172 c 128,-1,25
 204 1206 204 1206 181 1226 c 128,-1,26
 158 1246 158 1246 129 1251 c 128,-1,27
 100 1256 100 1256 38 1258 c 1,28,29
 30 1266 30 1266 30 1290 c 128,-1,30
 30 1314 30 1314 38 1326 c 1,31,32
 222 1322 222 1322 304 1320 c 0,33,34
 382 1320 382 1320 570 1326 c 1,35,36
 580 1316 580 1316 580 1291 c 128,-1,37
 580 1266 580 1266 570 1258 c 1,38,39
 508 1256 508 1256 479 1251 c 128,-1,40
 450 1246 450 1246 427 1226 c 128,-1,41
 404 1206 404 1206 398 1171 c 128,-1,42
 392 1136 392 1136 392 1072 c 2,43,-1
 392 710 l 1,44,45
 486 718 486 718 552 790 c 2,46,-1
 890 1150 l 2,47,48
 920 1182 920 1182 929 1204 c 128,-1,49
 938 1226 938 1226 922 1237 c 128,-1,50
 906 1248 906 1248 888 1251 c 128,-1,51
 870 1254 870 1254 834 1258 c 1,52,53
 824 1266 824 1266 824 1290 c 128,-1,54
 824 1314 824 1314 834 1326 c 1,55,56
 986 1322 986 1322 1064 1320 c 0,57,58
 1132 1320 1132 1320 1260 1326 c 1,59,60
 1270 1316 1270 1316 1270 1291 c 128,-1,61
 1270 1266 1270 1266 1260 1258 c 1,62,63
 1206 1254 1206 1254 1174 1248 c 128,-1,64
 1142 1242 1142 1242 1094 1216 c 128,-1,65
 1046 1190 1046 1190 1002 1142 c 2,66,-1
 700 834 l 2,67,68
 628 760 628 760 628 734 c 0,69,70
 628 714 628 714 656 682 c 2,71,-1
 1104 150 l 2,72,73
 1122 130 1122 130 1142 113 c 128,-1,74
 1162 96 1162 96 1177 88 c 128,-1,75
 1192 80 1192 80 1213 75 c 128,-1,76
 1234 70 1234 70 1248 68 c 128,-1,77
 1262 66 1262 66 1284 64 c 1,78,79
 1294 56 1294 56 1294 31 c 128,-1,80
 1294 6 1294 6 1284 -4 c 1,81,82
 1148 0 1148 0 1078 0 c 0,83,84
 1050 0 1050 0 966 -4 c 0,85,86
 958 -4 958 -4 956 8 c 0,87,88
 948 66 948 66 882 150 c 2,89,-1
 562 556 l 2,90,91
 502 630 502 630 392 632 c 1,92,-1
 392 250 l 2,0,1
EndSplineSet
Substitution2: "'c2sc' Capitals to Small Capitals lookup 9 subtable" k.sc
Position2: "'cpsp' Capital Spacing lookup 0 subtable" dx=4 dy=0 dh=10 dv=0
EndChar

StartChar: L
Encoding: 76 76 45
Width: 1080
GlyphClass: 2
Flags: W
AnchorPoint: "Anchor-6" 536 -226 basechar 0
AnchorPoint: "Anchor-5" 536 2 basechar 0
AnchorPoint: "Anchor-3" 590 646 basechar 0
AnchorPoint: "Anchor-2" 310 1740 basechar 0
AnchorPoint: "Anchor-0" 964 1500 basechar 0
LayerCount: 2
Fore
SplineSet
306 0 m 2,0,1
 200 0 200 0 38 -4 c 1,2,3
 28 4 28 4 28 29 c 128,-1,4
 28 54 28 54 38 64 c 1,5,6
 152 68 152 68 185 97 c 128,-1,7
 218 126 218 126 218 250 c 2,8,-1
 218 1072 l 2,9,10
 218 1194 218 1194 186 1224 c 128,-1,11
 154 1254 154 1254 38 1258 c 1,12,13
 28 1266 28 1266 28 1290 c 128,-1,14
 28 1314 28 1314 38 1326 c 1,15,16
 226 1322 226 1322 304 1320 c 0,17,18
 386 1320 386 1320 570 1326 c 1,19,20
 578 1316 578 1316 578 1291 c 128,-1,21
 578 1266 578 1266 570 1258 c 1,22,23
 456 1254 456 1254 424 1224 c 128,-1,24
 392 1194 392 1194 392 1072 c 2,25,-1
 392 224 l 2,26,27
 392 146 392 146 419 113 c 128,-1,28
 446 80 446 80 508 80 c 2,29,-1
 636 80 l 2,30,31
 786 80 786 80 861 151 c 128,-1,32
 936 222 936 222 970 348 c 1,33,34
 1004 354 1004 354 1038 338 c 1,35,36
 1018 160 1018 160 986 -4 c 1,37,38
 798 0 798 0 742 0 c 2,39,-1
 306 0 l 2,0,1
EndSplineSet
Substitution2: "'c2sc' Capitals to Small Capitals lookup 9 subtable" l.sc
Position2: "'cpsp' Capital Spacing lookup 0 subtable" dx=4 dy=0 dh=10 dv=0
EndChar

StartChar: M
Encoding: 77 77 46
Width: 1718
GlyphClass: 2
Flags: W
AnchorPoint: "Anchor-6" 804 -226 basechar 0
AnchorPoint: "Anchor-5" 220 4 basechar 0
AnchorPoint: "Anchor-3" 872 912 basechar 0
AnchorPoint: "Anchor-2" 882 1740 basechar 0
LayerCount: 2
Fore
SplineSet
1358 238 m 2,0,-1
 1304 1094 l 1,1,-1
 1300 1094 l 1,2,-1
 840 10 l 2,3,4
 826 -20 826 -20 812 -20 c 0,5,6
 794 -20 794 -20 780 10 c 2,7,-1
 356 1074 l 1,8,-1
 352 1074 l 1,9,-1
 274 252 l 2,10,11
 270 208 270 208 272 175 c 128,-1,12
 274 142 274 142 287 118 c 128,-1,13
 300 94 300 94 330 81 c 128,-1,14
 360 68 360 68 410 64 c 1,15,16
 420 54 420 54 420 29 c 128,-1,17
 420 4 420 4 410 -4 c 1,18,19
 288 0 288 0 218 0 c 0,20,21
 164 0 164 0 40 -4 c 1,22,23
 32 4 32 4 32 29 c 128,-1,24
 32 54 32 54 40 64 c 1,25,26
 124 72 124 72 154 111 c 128,-1,27
 184 150 184 150 194 248 c 2,28,-1
 276 1092 l 2,29,30
 278 1122 278 1122 280 1143 c 128,-1,31
 282 1164 282 1164 280 1182 c 128,-1,32
 278 1200 278 1200 276 1209 c 128,-1,33
 274 1218 274 1218 265 1229 c 128,-1,34
 256 1240 256 1240 248 1243 c 128,-1,35
 240 1246 240 1246 220 1250 c 128,-1,36
 200 1254 200 1254 184 1255 c 128,-1,37
 168 1256 168 1256 138 1258 c 1,38,39
 130 1266 130 1266 130 1290 c 128,-1,40
 130 1314 130 1314 138 1326 c 1,41,-1
 434 1320 l 1,42,-1
 854 280 l 2,43,44
 864 254 864 254 870 254 c 256,45,46
 876 254 876 254 888 282 c 2,47,-1
 1324 1320 l 1,48,-1
 1592 1326 l 1,49,50
 1602 1316 1602 1316 1602 1291 c 128,-1,51
 1602 1266 1602 1266 1592 1258 c 1,52,53
 1492 1252 1492 1252 1468 1224 c 128,-1,54
 1444 1196 1444 1196 1450 1110 c 2,55,-1
 1512 248 l 2,56,57
 1516 198 1516 198 1518 175 c 128,-1,58
 1520 152 1520 152 1527 127 c 128,-1,59
 1534 102 1534 102 1542 94 c 128,-1,60
 1550 86 1550 86 1570 77 c 128,-1,61
 1590 68 1590 68 1610 67 c 128,-1,62
 1630 66 1630 66 1670 64 c 1,63,64
 1680 54 1680 54 1680 29 c 128,-1,65
 1680 4 1680 4 1670 -4 c 1,66,67
 1534 0 1534 0 1446 0 c 0,68,69
 1378 0 1378 0 1226 -4 c 1,70,71
 1216 4 1216 4 1216 29 c 128,-1,72
 1216 54 1216 54 1226 64 c 1,73,74
 1266 66 1266 66 1283 67 c 128,-1,75
 1300 68 1300 68 1321 75 c 128,-1,76
 1342 82 1342 82 1347 90 c 128,-1,77
 1352 98 1352 98 1357 121 c 128,-1,78
 1362 144 1362 144 1361 167 c 128,-1,79
 1360 190 1360 190 1358 238 c 2,0,-1
EndSplineSet
Substitution2: "'c2sc' Capitals to Small Capitals lookup 9 subtable" m.sc
Position2: "'cpsp' Capital Spacing lookup 0 subtable" dx=4 dy=0 dh=10 dv=0
EndChar

StartChar: N
Encoding: 78 78 47
Width: 1430
GlyphClass: 2
Flags: W
AnchorPoint: "Anchor-6" 712 -226 basechar 0
AnchorPoint: "Anchor-5" 256 -8 basechar 0
AnchorPoint: "Anchor-3" 730 656 basechar 0
AnchorPoint: "Anchor-2" 708 1740 basechar 0
LayerCount: 2
Fore
SplineSet
1138 1048 m 2,0,1
 1138 1120 1138 1120 1132 1158 c 128,-1,2
 1126 1196 1126 1196 1102 1218 c 128,-1,3
 1078 1240 1078 1240 1051 1246 c 128,-1,4
 1024 1252 1024 1252 960 1258 c 1,5,6
 950 1266 950 1266 950 1290 c 128,-1,7
 950 1314 950 1314 960 1326 c 1,8,9
 1140 1322 1140 1322 1188 1320 c 0,10,11
 1250 1320 1250 1320 1418 1326 c 1,12,13
 1426 1316 1426 1316 1426 1291 c 128,-1,14
 1426 1266 1426 1266 1418 1258 c 1,15,16
 1304 1246 1304 1246 1272 1213 c 128,-1,17
 1240 1180 1240 1180 1240 1048 c 2,18,-1
 1240 44 l 2,19,20
 1240 -20 1240 -20 1192 -20 c 0,21,22
 1146 -20 1146 -20 1110 28 c 2,23,-1
 396 932 l 2,24,25
 342 1000 342 1000 326 1000 c 128,-1,26
 310 1000 310 1000 310 900 c 2,27,-1
 310 272 l 2,28,29
 310 200 310 200 316 162 c 128,-1,30
 322 124 322 124 346 103 c 128,-1,31
 370 82 370 82 397 76 c 128,-1,32
 424 70 424 70 488 64 c 1,33,34
 496 54 496 54 496 29 c 128,-1,35
 496 4 496 4 488 -4 c 1,36,37
 316 0 316 0 260 0 c 0,38,39
 206 0 206 0 30 -4 c 1,40,41
 20 4 20 4 20 29 c 128,-1,42
 20 54 20 54 30 64 c 1,43,44
 144 76 144 76 176 109 c 128,-1,45
 208 142 208 142 208 272 c 2,46,-1
 208 1126 l 1,47,48
 198 1172 198 1172 153 1213 c 128,-1,49
 108 1254 108 1254 48 1258 c 1,50,51
 38 1266 38 1266 37 1290 c 128,-1,52
 36 1314 36 1314 48 1326 c 1,53,-1
 324 1320 l 1,54,-1
 1026 430 l 2,55,56
 1114 318 1114 318 1124 318 c 0,57,58
 1138 318 1138 318 1138 378 c 2,59,-1
 1138 1048 l 2,0,1
EndSplineSet
Substitution2: "'c2sc' Capitals to Small Capitals lookup 9 subtable" n.sc
Position2: "'cpsp' Capital Spacing lookup 0 subtable" dx=4 dy=0 dh=10 dv=0
EndChar

StartChar: O
Encoding: 79 79 48
Width: 1436
GlyphClass: 2
Flags: W
AnchorPoint: "Anchor-6" 716 -226 basechar 0
AnchorPoint: "Anchor-5" 716 0 basechar 0
AnchorPoint: "Anchor-3" 708 660 basechar 0
AnchorPoint: "Anchor-2" 686 1740 basechar 0
AnchorPoint: "Anchor-1" 1270 1242 basechar 0
LayerCount: 2
Fore
SplineSet
678 1274 m 0,0,1
 510 1274 510 1274 391 1122 c 128,-1,2
 272 970 272 970 272 670 c 0,3,4
 272 388 272 388 416 221 c 128,-1,5
 560 54 560 54 758 54 c 0,6,7
 938 54 938 54 1053 210 c 128,-1,8
 1168 366 1168 366 1168 634 c 0,9,10
 1168 934 1168 934 1028 1104 c 128,-1,11
 888 1274 888 1274 678 1274 c 0,0,1
1364 674 m 0,12,13
 1364 418 1364 418 1236 238 c 0,14,15
 1150 116 1150 116 1017 48 c 128,-1,16
 884 -20 884 -20 716 -20 c 0,17,18
 446 -20 446 -20 261 160 c 128,-1,19
 76 340 76 340 76 634 c 0,20,21
 76 942 76 942 246 1145 c 128,-1,22
 416 1348 416 1348 704 1348 c 0,23,24
 988 1348 988 1348 1176 1166 c 128,-1,25
 1364 984 1364 984 1364 674 c 0,12,13
EndSplineSet
Substitution2: "'c2sc' Capitals to Small Capitals lookup 9 subtable" o.sc
Position2: "'cpsp' Capital Spacing lookup 0 subtable" dx=4 dy=0 dh=10 dv=0
EndChar

StartChar: P
Encoding: 80 80 49
Width: 1106
GlyphClass: 2
Flags: W
AnchorPoint: "Anchor-6" 492 -226 basechar 0
AnchorPoint: "Anchor-5" 308 -6 basechar 0
AnchorPoint: "Anchor-3" 586 950 basechar 0
AnchorPoint: "Anchor-2" 568 1740 basechar 0
AnchorPoint: "Anchor-0" 1042 1500 basechar 0
LayerCount: 2
Fore
SplineSet
388 1134 m 2,0,-1
 388 658 l 1,1,2
 424 648 424 648 542 648 c 0,3,4
 694 648 694 648 771 722 c 128,-1,5
 848 796 848 796 848 958 c 0,6,7
 848 1136 848 1136 770 1201 c 128,-1,8
 692 1266 692 1266 566 1266 c 0,9,10
 388 1266 388 1266 388 1134 c 2,0,-1
212 1072 m 2,11,12
 212 1194 212 1194 181 1224 c 128,-1,13
 150 1254 150 1254 34 1258 c 1,14,15
 24 1266 24 1266 24 1290 c 128,-1,16
 24 1314 24 1314 34 1326 c 1,17,18
 198 1322 198 1322 300 1320 c 0,19,20
 340 1320 340 1320 440 1328 c 128,-1,21
 540 1336 540 1336 580 1336 c 0,22,23
 714 1336 714 1336 810 1301 c 128,-1,24
 906 1266 906 1266 953 1210 c 128,-1,25
 1000 1154 1000 1154 1019 1101 c 128,-1,26
 1038 1048 1038 1048 1038 996 c 0,27,28
 1038 924 1038 924 1014 855 c 128,-1,29
 990 786 990 786 937 722 c 128,-1,30
 884 658 884 658 785 618 c 128,-1,31
 686 578 686 578 552 578 c 0,32,33
 450 578 450 578 388 598 c 1,34,-1
 388 250 l 2,35,36
 388 130 388 130 426 100 c 128,-1,37
 464 70 464 70 596 64 c 1,38,39
 606 54 606 54 606 29 c 128,-1,40
 606 4 606 4 596 -4 c 1,41,42
 392 0 392 0 302 0 c 0,43,44
 220 0 220 0 34 -4 c 1,45,46
 24 4 24 4 24 29 c 128,-1,47
 24 54 24 54 34 64 c 1,48,49
 148 68 148 68 180 97 c 128,-1,50
 212 126 212 126 212 250 c 2,51,-1
 212 1072 l 2,11,12
EndSplineSet
Substitution2: "'c2sc' Capitals to Small Capitals lookup 9 subtable" p.sc
Position2: "'cpsp' Capital Spacing lookup 0 subtable" dx=4 dy=0 dh=10 dv=0
EndChar

StartChar: Q
Encoding: 81 81 50
Width: 1436
GlyphClass: 2
Flags: W
AnchorPoint: "Anchor-3" 688 664 basechar 0
AnchorPoint: "Anchor-2" 712 1740 basechar 0
AnchorPoint: "Anchor-1" 1270 1242 basechar 0
AnchorPoint: "Anchor-0" 1268 1500 basechar 0
LayerCount: 2
Fore
SplineSet
678 1274 m 0,0,1
 510 1274 510 1274 391 1122 c 128,-1,2
 272 970 272 970 272 670 c 0,3,4
 272 388 272 388 416 221 c 128,-1,5
 560 54 560 54 758 54 c 0,6,7
 938 54 938 54 1053 210 c 128,-1,8
 1168 366 1168 366 1168 634 c 0,9,10
 1168 934 1168 934 1028 1104 c 128,-1,11
 888 1274 888 1274 678 1274 c 0,0,1
1364 674 m 0,12,13
 1364 418 1364 418 1236 238 c 0,14,15
 1092 34 1092 34 838 -10 c 1,16,17
 702 -48 702 -48 570 -146 c 1,18,19
 592 -144 592 -144 610 -144 c 0,20,21
 740 -144 740 -144 926 -234 c 0,22,23
 1088 -312 1088 -312 1182 -312 c 0,24,25
 1298 -312 1298 -312 1360 -236 c 1,26,-1
 1394 -260 l 1,27,28
 1332 -348 1332 -348 1264 -388 c 128,-1,29
 1196 -428 1196 -428 1100 -428 c 256,30,31
 1004 -428 1004 -428 926 -399 c 128,-1,32
 848 -370 848 -370 756 -318 c 0,33,34
 606 -234 606 -234 514 -234 c 0,35,36
 482 -234 482 -234 442 -260 c 1,37,38
 398 -306 398 -306 364 -354 c 1,39,-1
 284 -314 l 1,40,41
 298 -290 298 -290 322 -266 c 1,42,43
 448 -112 448 -112 632 -16 c 1,44,45
 392 12 392 12 234 188 c 128,-1,46
 76 364 76 364 76 634 c 0,47,48
 76 942 76 942 246 1145 c 128,-1,49
 416 1348 416 1348 704 1348 c 0,50,51
 988 1348 988 1348 1176 1166 c 128,-1,52
 1364 984 1364 984 1364 674 c 0,12,13
EndSplineSet
Substitution2: "'c2sc' Capitals to Small Capitals lookup 9 subtable" q.sc
Position2: "'cpsp' Capital Spacing lookup 0 subtable" dx=4 dy=0 dh=10 dv=0
EndChar

StartChar: R
Encoding: 82 82 51
Width: 1202
GlyphClass: 2
Flags: W
AnchorPoint: "Anchor-6" 528 -226 basechar 0
AnchorPoint: "Anchor-5" 304 -2 basechar 0
AnchorPoint: "Anchor-3" 570 958 basechar 0
AnchorPoint: "Anchor-2" 550 1740 basechar 0
AnchorPoint: "Anchor-0" 1062 1500 basechar 0
LayerCount: 2
Fore
SplineSet
558 1266 m 0,0,1
 388 1266 388 1266 388 1134 c 2,2,-1
 388 666 l 1,3,-1
 486 666 l 2,4,5
 652 666 652 666 741 733 c 128,-1,6
 830 800 830 800 830 978 c 0,7,8
 830 1266 830 1266 558 1266 c 0,0,1
388 250 m 2,9,10
 388 128 388 128 419 98 c 128,-1,11
 450 68 450 68 566 64 c 1,12,13
 574 54 574 54 574 29 c 128,-1,14
 574 4 574 4 566 -4 c 1,15,16
 386 0 386 0 302 0 c 0,17,18
 220 0 220 0 34 -4 c 1,19,20
 24 4 24 4 24 29 c 128,-1,21
 24 54 24 54 34 64 c 1,22,23
 148 68 148 68 180 97 c 128,-1,24
 212 126 212 126 212 250 c 2,25,-1
 212 1072 l 2,26,27
 212 1194 212 1194 181 1224 c 128,-1,28
 150 1254 150 1254 34 1258 c 1,29,30
 24 1266 24 1266 24 1290 c 128,-1,31
 24 1314 24 1314 34 1326 c 1,32,33
 226 1322 226 1322 300 1320 c 0,34,35
 334 1320 334 1320 419 1328 c 128,-1,36
 504 1336 504 1336 556 1336 c 0,37,38
 676 1336 676 1336 760 1317 c 128,-1,39
 844 1298 844 1298 910 1236 c 0,40,41
 1018 1134 1018 1134 1018 980 c 0,42,43
 1018 838 1018 838 929 750 c 128,-1,44
 840 662 840 662 746 630 c 1,45,-1
 1004 200 l 2,46,47
 1052 122 1052 122 1094 83 c 128,-1,48
 1136 44 1136 44 1200 44 c 1,49,50
 1214 18 1214 18 1202 -6 c 1,51,52
 1174 -20 1174 -20 1116 -20 c 0,53,54
 958 -20 958 -20 846 162 c 2,55,-1
 626 518 l 2,56,57
 602 558 602 558 554 577 c 128,-1,58
 506 596 506 596 388 596 c 1,59,-1
 388 250 l 2,9,10
EndSplineSet
Substitution2: "'c2sc' Capitals to Small Capitals lookup 9 subtable" r.sc
Position2: "'cpsp' Capital Spacing lookup 0 subtable" dx=4 dy=0 dh=10 dv=0
EndChar

StartChar: S
Encoding: 83 83 52
Width: 992
GlyphClass: 2
Flags: W
AnchorPoint: "Anchor-6" 480 -226 basechar 0
AnchorPoint: "Anchor-5" 456 4 basechar 0
AnchorPoint: "Anchor-3" 484 706 basechar 0
AnchorPoint: "Anchor-2" 474 1740 basechar 0
AnchorPoint: "Anchor-0" 984 1500 basechar 0
LayerCount: 2
Fore
SplineSet
808 1292 m 1,0,1
 834 1150 834 1150 844 1028 c 1,2,3
 820 1010 820 1010 778 1016 c 1,4,5
 760 1074 760 1074 740 1115 c 128,-1,6
 720 1156 720 1156 687 1196 c 128,-1,7
 654 1236 654 1236 600 1257 c 128,-1,8
 546 1278 546 1278 476 1278 c 0,9,10
 416 1278 416 1278 364 1244 c 128,-1,11
 312 1210 312 1210 281 1158 c 128,-1,12
 250 1106 250 1106 250 1048 c 0,13,14
 250 998 250 998 275 955 c 128,-1,15
 300 912 300 912 329 884 c 128,-1,16
 358 856 358 856 410 827 c 128,-1,17
 462 798 462 798 493 785 c 128,-1,18
 524 772 524 772 578 754 c 0,19,20
 648 728 648 728 701 698 c 128,-1,21
 754 668 754 668 805 624 c 128,-1,22
 856 580 856 580 883 517 c 128,-1,23
 910 454 910 454 910 376 c 0,24,25
 910 278 910 278 857 190 c 128,-1,26
 804 102 804 102 716 48 c 0,27,28
 608 -20 608 -20 464 -20 c 0,29,30
 366 -20 366 -20 260 3 c 128,-1,31
 154 26 154 26 96 26 c 1,32,33
 66 156 66 156 56 338 c 1,34,35
 88 354 88 354 122 344 c 1,36,37
 186 54 186 54 482 54 c 0,38,39
 604 54 604 54 671 118 c 128,-1,40
 738 182 738 182 738 306 c 0,41,42
 738 364 738 364 719 410 c 128,-1,43
 700 456 700 456 678 485 c 128,-1,44
 656 514 656 514 612 541 c 128,-1,45
 568 568 568 568 540 580 c 128,-1,46
 512 592 512 592 462 610 c 0,47,48
 384 638 384 638 328 669 c 128,-1,49
 272 700 272 700 217 745 c 128,-1,50
 162 790 162 790 133 853 c 128,-1,51
 104 916 104 916 104 994 c 0,52,53
 104 1152 104 1152 219 1250 c 128,-1,54
 334 1348 334 1348 494 1348 c 0,55,56
 610 1348 610 1348 695 1322 c 128,-1,57
 780 1296 780 1296 808 1292 c 1,0,1
EndSplineSet
Substitution2: "'c2sc' Capitals to Small Capitals lookup 9 subtable" s.sc
Position2: "'cpsp' Capital Spacing lookup 0 subtable" dx=4 dy=0 dh=10 dv=0
EndChar

StartChar: T
Encoding: 84 84 53
Width: 1222
GlyphClass: 2
Flags: W
AnchorPoint: "Anchor-6" 614 -226 basechar 0
AnchorPoint: "Anchor-5" 630 20 basechar 0
AnchorPoint: "Anchor-3" 628 584 basechar 0
AnchorPoint: "Anchor-2" 628 1740 basechar 0
AnchorPoint: "Anchor-0" 1268 1500 basechar 0
LayerCount: 2
Fore
SplineSet
716 250 m 2,0,1
 716 128 716 128 751 98 c 128,-1,2
 786 68 786 68 916 64 c 1,3,4
 926 54 926 54 926 29 c 128,-1,5
 926 4 926 4 916 -4 c 1,6,7
 712 0 712 0 630 0 c 0,8,9
 544 0 544 0 344 -4 c 1,10,11
 336 4 336 4 336 29 c 128,-1,12
 336 54 336 54 344 64 c 1,13,14
 474 68 474 68 508 97 c 128,-1,15
 542 126 542 126 542 250 c 2,16,-1
 542 1038 l 2,17,18
 542 1138 542 1138 521 1190 c 128,-1,19
 500 1242 500 1242 446 1242 c 2,20,-1
 346 1242 l 2,21,22
 240 1242 240 1242 172 1192 c 128,-1,23
 104 1142 104 1142 76 1024 c 1,24,25
 32 1024 32 1024 6 1034 c 1,26,27
 46 1210 46 1210 58 1332 c 0,28,29
 58 1338 58 1338 66 1338 c 0,30,31
 272 1322 272 1322 542 1320 c 2,32,-1
 718 1320 l 2,33,34
 990 1320 990 1320 1178 1338 c 0,35,36
 1184 1338 1184 1338 1184 1332 c 0,37,38
 1186 1196 1186 1196 1210 1040 c 1,39,40
 1188 1030 1188 1030 1140 1030 c 1,41,42
 1116 1144 1116 1144 1046 1193 c 128,-1,43
 976 1242 976 1242 856 1242 c 2,44,-1
 812 1242 l 2,45,46
 758 1242 758 1242 737 1189 c 128,-1,47
 716 1136 716 1136 716 1032 c 2,48,-1
 716 250 l 2,0,1
EndSplineSet
Substitution2: "'c2sc' Capitals to Small Capitals lookup 9 subtable" t.sc
Position2: "'cpsp' Capital Spacing lookup 0 subtable" dx=4 dy=0 dh=10 dv=0
EndChar

StartChar: U
Encoding: 85 85 54
Width: 1352
GlyphClass: 2
Flags: W
AnchorPoint: "Anchor-6" 672 -226 basechar 0
AnchorPoint: "Anchor-5" 672 8 basechar 0
AnchorPoint: "Anchor-3" 688 658 basechar 0
AnchorPoint: "Anchor-2" 708 1740 basechar 0
LayerCount: 2
Fore
SplineSet
352 1072 m 2,0,-1
 352 544 l 2,1,2
 352 458 352 458 356 403 c 128,-1,3
 360 348 360 348 385 276 c 128,-1,4
 410 204 410 204 456 160 c 0,5,6
 556 64 556 64 700 64 c 0,7,8
 800 64 800 64 872 95 c 128,-1,9
 944 126 944 126 983 173 c 128,-1,10
 1022 220 1022 220 1045 292 c 128,-1,11
 1068 364 1068 364 1073 425 c 128,-1,12
 1078 486 1078 486 1078 568 c 2,13,-1
 1078 1072 l 2,14,15
 1078 1136 1078 1136 1071 1169 c 128,-1,16
 1064 1202 1064 1202 1039 1222 c 128,-1,17
 1014 1242 1014 1242 985 1247 c 128,-1,18
 956 1252 956 1252 888 1258 c 1,19,20
 880 1266 880 1266 880 1290 c 128,-1,21
 880 1314 880 1314 888 1326 c 1,22,23
 1076 1322 1076 1322 1126 1320 c 0,24,25
 1180 1320 1180 1320 1336 1326 c 1,26,27
 1344 1316 1344 1316 1344 1291 c 128,-1,28
 1344 1266 1344 1266 1336 1258 c 1,29,30
 1236 1246 1236 1246 1207 1217 c 128,-1,31
 1178 1188 1178 1188 1178 1072 c 2,32,-1
 1178 604 l 2,33,34
 1178 458 1178 458 1155 351 c 128,-1,35
 1132 244 1132 244 1076 157 c 128,-1,36
 1020 70 1020 70 916 25 c 128,-1,37
 812 -20 812 -20 658 -20 c 0,38,39
 568 -20 568 -20 492 0 c 128,-1,40
 416 20 416 20 341 70 c 128,-1,41
 266 120 266 120 222 224 c 128,-1,42
 178 328 178 328 178 478 c 2,43,-1
 178 1072 l 2,44,45
 178 1192 178 1192 148 1223 c 128,-1,46
 118 1254 118 1254 20 1258 c 1,47,48
 12 1266 12 1266 12 1290 c 128,-1,49
 12 1314 12 1314 20 1326 c 1,50,51
 180 1322 180 1322 264 1321 c 128,-1,52
 348 1320 348 1320 540 1326 c 1,53,54
 548 1316 548 1316 548 1291 c 128,-1,55
 548 1266 548 1266 540 1258 c 1,56,57
 418 1254 418 1254 385 1224 c 128,-1,58
 352 1194 352 1194 352 1072 c 2,0,-1
EndSplineSet
Substitution2: "'c2sc' Capitals to Small Capitals lookup 9 subtable" u.sc
Position2: "'cpsp' Capital Spacing lookup 0 subtable" dx=4 dy=0 dh=10 dv=0
EndChar

StartChar: V
Encoding: 86 86 55
Width: 1334
GlyphClass: 2
Flags: W
AnchorPoint: "Anchor-6" 652 -226 basechar 0
AnchorPoint: "Anchor-5" 652 6 basechar 0
AnchorPoint: "Anchor-3" 684 970 basechar 0
AnchorPoint: "Anchor-2" 688 1740 basechar 0
AnchorPoint: "Anchor-0" 1390 1500 basechar 0
LayerCount: 2
Fore
SplineSet
918 1258 m 1,0,1
 910 1266 910 1266 910 1290 c 128,-1,2
 910 1314 910 1314 918 1326 c 1,3,4
 1086 1322 1086 1322 1140 1320 c 0,5,6
 1198 1320 1198 1320 1320 1326 c 1,7,8
 1330 1316 1330 1316 1331 1291 c 128,-1,9
 1332 1266 1332 1266 1320 1258 c 1,10,11
 1272 1252 1272 1252 1240 1237 c 128,-1,12
 1208 1222 1208 1222 1186 1192 c 128,-1,13
 1164 1162 1164 1162 1151 1138 c 128,-1,14
 1138 1114 1138 1114 1120 1068 c 2,15,-1
 696 22 l 2,16,17
 678 -26 678 -26 648 -24 c 0,18,19
 620 -24 620 -24 600 22 c 2,20,-1
 196 1072 l 2,21,22
 150 1184 150 1184 121 1217 c 128,-1,23
 92 1250 92 1250 12 1258 c 1,24,25
 2 1268 2 1268 2 1291 c 128,-1,26
 2 1314 2 1314 10 1326 c 1,27,28
 146 1322 146 1322 224 1320 c 0,29,30
 308 1320 308 1320 472 1326 c 1,31,32
 480 1316 480 1316 480 1291 c 128,-1,33
 480 1266 480 1266 472 1258 c 1,34,35
 370 1248 370 1248 350 1217 c 128,-1,36
 330 1186 330 1186 366 1094 c 2,37,-1
 692 260 l 1,38,-1
 702 260 l 1,39,-1
 1026 1082 l 1,40,41
 1064 1166 1064 1166 1044 1208 c 128,-1,42
 1024 1250 1024 1250 918 1258 c 1,0,1
EndSplineSet
Substitution2: "'c2sc' Capitals to Small Capitals lookup 9 subtable" v.sc
Position2: "'lfbd' Left Bounds lookup 5 subtable" dx=-56 dy=0 dh=-56 dv=0
Position2: "'rtbd' Right Bounds lookup 4 subtable" dx=0 dy=0 dh=-64 dv=0
Position2: "'cpsp' Capital Spacing lookup 0 subtable" dx=4 dy=0 dh=10 dv=0
EndChar

StartChar: W
Encoding: 87 87 56
Width: 1946
GlyphClass: 2
Flags: W
AnchorPoint: "Anchor-6" 980 -226 basechar 0
AnchorPoint: "Anchor-5" 604 0 basechar 0
AnchorPoint: "Anchor-2" 922 1740 basechar 0
AnchorPoint: "Anchor-0" 2004 1500 basechar 0
LayerCount: 2
Fore
SplineSet
1658 1158 m 2,0,1
 1664 1176 1664 1176 1665 1190 c 128,-1,2
 1666 1204 1666 1204 1661 1214 c 128,-1,3
 1656 1224 1656 1224 1644 1232 c 128,-1,4
 1632 1240 1632 1240 1622 1244 c 128,-1,5
 1612 1248 1612 1248 1592 1251 c 128,-1,6
 1572 1254 1572 1254 1559 1255 c 128,-1,7
 1546 1256 1546 1256 1524 1258 c 1,8,9
 1516 1266 1516 1266 1516 1290 c 128,-1,10
 1516 1314 1516 1314 1524 1326 c 1,11,12
 1688 1322 1688 1322 1748 1320 c 0,13,14
 1808 1320 1808 1320 1928 1326 c 1,15,16
 1938 1316 1938 1316 1938 1291 c 128,-1,17
 1938 1266 1938 1266 1928 1258 c 1,18,19
 1850 1254 1850 1254 1812 1223 c 128,-1,20
 1774 1192 1774 1192 1752 1132 c 2,21,-1
 1340 28 l 2,22,23
 1322 -26 1322 -26 1293 -25 c 128,-1,24
 1264 -24 1264 -24 1246 30 c 2,25,-1
 1010 710 l 2,26,27
 990 768 990 768 980 768 c 0,28,29
 968 768 968 768 946 716 c 2,30,-1
 642 30 l 2,31,32
 618 -26 618 -26 588 -24 c 0,33,34
 562 -24 562 -24 542 30 c 2,35,-1
 158 1138 l 2,36,37
 132 1218 132 1218 108 1236 c 128,-1,38
 84 1254 84 1254 12 1258 c 1,39,40
 4 1266 4 1266 4 1290 c 128,-1,41
 4 1314 4 1314 12 1326 c 1,42,43
 130 1322 130 1322 202 1320 c 0,44,45
 304 1320 304 1320 440 1326 c 1,46,47
 450 1316 450 1316 450 1291 c 128,-1,48
 450 1266 450 1266 440 1258 c 1,49,50
 376 1254 376 1254 349 1237 c 128,-1,51
 322 1220 322 1220 338 1172 c 2,52,-1
 636 266 l 1,53,-1
 648 264 l 1,54,-1
 912 864 l 2,55,56
 930 904 930 904 930 936 c 0,57,58
 930 954 930 954 916 1000 c 2,59,-1
 868 1134 l 2,60,61
 828 1248 828 1248 696 1258 c 1,62,63
 688 1266 688 1266 688 1290 c 128,-1,64
 688 1314 688 1314 696 1326 c 1,65,66
 828 1322 828 1322 902 1320 c 0,67,68
 990 1320 990 1320 1158 1326 c 1,69,70
 1168 1316 1168 1316 1168 1291 c 128,-1,71
 1168 1266 1168 1266 1158 1258 c 1,72,73
 1130 1256 1130 1256 1116 1254 c 128,-1,74
 1102 1252 1102 1252 1079 1243 c 128,-1,75
 1056 1234 1056 1234 1052 1223 c 128,-1,76
 1048 1212 1048 1212 1041 1190 c 128,-1,77
 1034 1168 1034 1168 1050 1134 c 1,78,-1
 1332 270 l 1,79,-1
 1340 268 l 1,80,-1
 1658 1158 l 2,0,1
EndSplineSet
Substitution2: "'c2sc' Capitals to Small Capitals lookup 9 subtable" w.sc
Position2: "'lfbd' Left Bounds lookup 5 subtable" dx=-60 dy=0 dh=-60 dv=0
Position2: "'cpsp' Capital Spacing lookup 0 subtable" dx=4 dy=0 dh=10 dv=0
EndChar

StartChar: X
Encoding: 88 88 57
Width: 1350
GlyphClass: 2
Flags: W
AnchorPoint: "Anchor-6" 628 -226 basechar 0
AnchorPoint: "Anchor-5" 208 0 basechar 0
AnchorPoint: "Anchor-3" 668 666 basechar 0
AnchorPoint: "Anchor-2" 680 1740 basechar 0
AnchorPoint: "Anchor-0" 1412 1500 basechar 0
LayerCount: 2
Fore
SplineSet
1102 208 m 2,0,1
 1166 120 1166 120 1205 94 c 128,-1,2
 1244 68 1244 68 1308 64 c 1,3,4
 1318 54 1318 54 1318 30 c 128,-1,5
 1318 6 1318 6 1310 -4 c 1,6,7
 1188 0 1188 0 1102 0 c 0,8,9
 1020 0 1020 0 868 -4 c 1,10,11
 860 4 860 4 860 29 c 128,-1,12
 860 54 860 54 868 64 c 1,13,14
 950 68 950 68 957 90 c 128,-1,15
 964 112 964 112 918 174 c 1,16,-1
 664 534 l 2,17,18
 648 556 648 556 634 558 c 0,19,20
 624 558 624 558 604 528 c 2,21,-1
 334 150 l 1,22,23
 304 96 304 96 321 82 c 128,-1,24
 338 68 338 68 414 64 c 1,25,26
 422 54 422 54 422 29 c 128,-1,27
 422 4 422 4 414 -4 c 1,28,29
 250 0 250 0 198 0 c 0,30,31
 136 0 136 0 14 -4 c 1,32,33
 4 4 4 4 4 29 c 128,-1,34
 4 54 4 54 14 64 c 1,35,36
 88 70 88 70 140 96 c 128,-1,37
 192 122 192 122 242 190 c 2,38,-1
 544 596 l 2,39,40
 564 622 564 622 565 643 c 128,-1,41
 566 664 566 664 536 704 c 2,42,-1
 246 1120 l 2,43,44
 186 1206 186 1206 146 1230 c 128,-1,45
 106 1254 106 1254 36 1258 c 1,46,47
 26 1268 26 1268 26 1291 c 128,-1,48
 26 1314 26 1314 34 1326 c 1,49,50
 156 1322 156 1322 244 1320 c 0,51,52
 326 1320 326 1320 478 1326 c 1,53,54
 488 1316 488 1316 488 1291 c 128,-1,55
 488 1266 488 1266 478 1258 c 1,56,57
 396 1254 396 1254 388 1231 c 128,-1,58
 380 1208 380 1208 430 1146 c 1,59,-1
 656 812 l 2,60,61
 672 790 672 790 680 788 c 0,62,63
 696 788 696 788 712 814 c 2,64,-1
 964 1172 l 1,65,66
 994 1224 994 1224 976 1239 c 128,-1,67
 958 1254 958 1254 884 1258 c 1,68,69
 876 1266 876 1266 876 1290 c 128,-1,70
 876 1314 876 1314 884 1326 c 1,71,72
 1048 1322 1048 1322 1100 1320 c 0,73,74
 1162 1320 1162 1320 1284 1326 c 1,75,76
 1294 1316 1294 1316 1294 1291 c 128,-1,77
 1294 1266 1294 1266 1284 1258 c 1,78,79
 1210 1252 1210 1252 1159 1224 c 128,-1,80
 1108 1196 1108 1196 1056 1130 c 2,81,-1
 776 768 l 2,82,83
 756 742 756 742 756 706 c 0,84,85
 756 684 756 684 788 638 c 2,86,-1
 1102 208 l 2,0,1
EndSplineSet
Substitution2: "'c2sc' Capitals to Small Capitals lookup 9 subtable" x.sc
Position2: "'cpsp' Capital Spacing lookup 0 subtable" dx=4 dy=0 dh=10 dv=0
EndChar

StartChar: Y
Encoding: 89 89 58
Width: 1176
GlyphClass: 2
Flags: W
AnchorPoint: "Anchor-6" 604 -226 basechar 0
AnchorPoint: "Anchor-5" 600 2 basechar 0
AnchorPoint: "Anchor-2" 604 1740 basechar 0
LayerCount: 2
Fore
SplineSet
690 250 m 2,0,1
 690 184 690 184 696 149 c 128,-1,2
 702 114 702 114 729 95 c 128,-1,3
 756 76 756 76 788 71 c 128,-1,4
 820 66 820 66 888 64 c 1,5,6
 896 54 896 54 897 29 c 128,-1,7
 898 4 898 4 888 -4 c 1,8,9
 684 0 684 0 604 0 c 0,10,11
 518 0 518 0 318 -4 c 1,12,13
 308 4 308 4 308 29 c 128,-1,14
 308 54 308 54 318 64 c 1,15,16
 388 66 388 66 419 71 c 128,-1,17
 450 76 450 76 477 95 c 128,-1,18
 504 114 504 114 510 149 c 128,-1,19
 516 184 516 184 516 250 c 2,20,-1
 516 510 l 2,21,22
 516 566 516 566 508 593 c 128,-1,23
 500 620 500 620 474 668 c 2,24,-1
 204 1120 l 2,25,26
 152 1204 152 1204 117 1229 c 128,-1,27
 82 1254 82 1254 12 1258 c 1,28,29
 2 1268 2 1268 2 1291 c 128,-1,30
 2 1314 2 1314 10 1326 c 1,31,32
 132 1322 132 1322 219 1321 c 128,-1,33
 306 1320 306 1320 452 1326 c 1,34,35
 462 1316 462 1316 462 1291 c 128,-1,36
 462 1266 462 1266 452 1258 c 1,37,38
 366 1254 366 1254 354 1232 c 128,-1,39
 342 1210 342 1210 378 1144 c 2,40,-1
 616 724 l 2,41,42
 630 700 630 700 640 699 c 128,-1,43
 650 698 650 698 662 720 c 2,44,-1
 888 1148 l 1,45,46
 916 1210 916 1210 898 1232 c 128,-1,47
 880 1254 880 1254 808 1258 c 1,48,49
 798 1266 798 1266 798 1290 c 128,-1,50
 798 1314 798 1314 808 1326 c 1,51,52
 940 1322 940 1322 995 1321 c 128,-1,53
 1050 1320 1050 1320 1166 1326 c 1,54,55
 1176 1316 1176 1316 1176 1291 c 128,-1,56
 1176 1266 1176 1266 1166 1258 c 1,57,58
 1092 1252 1092 1252 1052 1226 c 128,-1,59
 1012 1200 1012 1200 970 1126 c 2,60,-1
 724 684 l 2,61,62
 710 656 710 656 702 630 c 128,-1,63
 694 604 694 604 692 584 c 128,-1,64
 690 564 690 564 690 528 c 2,65,-1
 690 250 l 2,0,1
EndSplineSet
Substitution2: "'c2sc' Capitals to Small Capitals lookup 9 subtable" y.sc
Position2: "'cpsp' Capital Spacing lookup 0 subtable" dx=4 dy=0 dh=10 dv=0
EndChar

StartChar: Z
Encoding: 90 90 59
Width: 1236
GlyphClass: 2
Flags: W
AnchorPoint: "Anchor-6" 588 -226 basechar 0
AnchorPoint: "Anchor-5" 588 8 basechar 0
AnchorPoint: "Anchor-3" 624 658 basechar 0
AnchorPoint: "Anchor-2" 656 1740 basechar 0
AnchorPoint: "Anchor-0" 1268 1500 basechar 0
LayerCount: 2
Fore
SplineSet
1128 -4 m 1,0,1
 924 0 924 0 868 0 c 2,2,-1
 122 0 l 2,3,4
 84 0 84 0 84 30 c 0,5,6
 84 54 84 54 100 78 c 0,7,8
 264 322 264 322 509 663 c 128,-1,9
 754 1004 754 1004 898 1186 c 0,10,11
 914 1208 914 1208 914 1222 c 0,12,13
 914 1240 914 1240 892 1242 c 2,14,-1
 460 1232 l 2,15,16
 348 1230 348 1230 284 1177 c 128,-1,17
 220 1124 220 1124 186 1016 c 1,18,19
 160 1016 160 1016 124 1026 c 1,20,21
 158 1208 158 1208 170 1338 c 1,22,23
 372 1322 372 1322 540 1320 c 2,24,-1
 994 1320 l 2,25,26
 1028 1320 1028 1320 1081 1323 c 128,-1,27
 1134 1326 1134 1326 1142 1326 c 0,28,29
 1168 1326 1168 1326 1170 1302 c 0,30,31
 1170 1274 1170 1274 1120 1210 c 0,32,33
 800 798 800 798 352 148 c 1,34,35
 336 120 336 120 336 106 c 0,36,37
 336 76 336 76 388 78 c 2,38,-1
 782 86 l 2,39,40
 862 88 862 88 918 106 c 128,-1,41
 974 124 974 124 1012 166 c 128,-1,42
 1050 208 1050 208 1070 243 c 128,-1,43
 1090 278 1090 278 1120 348 c 1,44,45
 1146 348 1146 348 1184 338 c 1,46,47
 1142 164 1142 164 1128 -4 c 1,0,1
EndSplineSet
Substitution2: "'c2sc' Capitals to Small Capitals lookup 9 subtable" z.sc
Position2: "'cpsp' Capital Spacing lookup 0 subtable" dx=4 dy=0 dh=10 dv=0
EndChar

StartChar: bracketleft
Encoding: 91 91 60
Width: 728
GlyphClass: 2
Flags: W
LayerCount: 2
Fore
SplineSet
222 -396 m 1,0,-1
 222 1440 l 1,1,-1
 656 1440 l 1,2,3
 664 1430 664 1430 664 1409 c 128,-1,4
 664 1388 664 1388 656 1378 c 1,5,6
 510 1368 510 1368 451 1347 c 128,-1,7
 392 1326 392 1326 375 1287 c 128,-1,8
 358 1248 358 1248 358 1148 c 2,9,-1
 358 -102 l 2,10,11
 358 -178 358 -178 364 -212 c 128,-1,12
 370 -246 370 -246 402 -276 c 128,-1,13
 434 -306 434 -306 489 -316 c 128,-1,14
 544 -326 544 -326 656 -334 c 1,15,16
 664 -344 664 -344 664 -365 c 128,-1,17
 664 -386 664 -386 656 -396 c 1,18,-1
 222 -396 l 1,0,-1
EndSplineSet
EndChar

StartChar: backslash
Encoding: 92 92 61
Width: 586
GlyphClass: 2
Flags: W
LayerCount: 2
Fore
SplineSet
112 1430 m 1,0,-1
 584 -98 l 1,1,-1
 494 -98 l 1,2,-1
 22 1430 l 1,3,-1
 112 1430 l 1,0,-1
EndSplineSet
EndChar

StartChar: bracketright
Encoding: 93 93 62
Width: 728
GlyphClass: 2
Flags: W
LayerCount: 2
Fore
SplineSet
508 1442 m 1,0,-1
 508 -394 l 1,1,-1
 74 -394 l 1,2,3
 66 -386 66 -386 66 -363 c 128,-1,4
 66 -340 66 -340 74 -332 c 1,5,6
 220 -322 220 -322 279 -300 c 128,-1,7
 338 -278 338 -278 354 -239 c 128,-1,8
 370 -200 370 -200 370 -102 c 2,9,-1
 370 1148 l 2,10,11
 370 1224 370 1224 364 1258 c 128,-1,12
 358 1292 358 1292 326 1322 c 128,-1,13
 294 1352 294 1352 239 1362 c 128,-1,14
 184 1372 184 1372 74 1380 c 1,15,16
 66 1388 66 1388 66 1411 c 128,-1,17
 66 1434 66 1434 74 1442 c 1,18,-1
 508 1442 l 1,0,-1
EndSplineSet
EndChar

StartChar: asciicircum
Encoding: 94 94 63
Width: 1060
GlyphClass: 2
Flags: W
LayerCount: 2
Fore
SplineSet
530 1214 m 1,0,-1
 322 708 l 1,1,-1
 230 708 l 1,2,-1
 490 1332 l 1,3,-1
 576 1332 l 1,4,-1
 834 708 l 1,5,-1
 742 708 l 1,6,-1
 530 1214 l 1,0,-1
EndSplineSet
EndChar

StartChar: underscore
Encoding: 95 95 64
Width: 994
GlyphClass: 2
Flags: W
LayerCount: 2
Fore
SplineSet
974 -226 m 1,0,1
 986 -238 986 -238 987 -271 c 128,-1,2
 988 -304 988 -304 974 -316 c 1,3,-1
 20 -316 l 1,4,5
 8 -304 8 -304 8 -271 c 128,-1,6
 8 -238 8 -238 20 -226 c 1,7,-1
 974 -226 l 1,0,1
EndSplineSet
EndChar

StartChar: grave
Encoding: 96 96 65
Width: 802
GlyphClass: 2
Flags: W
LayerCount: 2
Fore
SplineSet
364 1432 m 1,0,-1
 508 1174 l 2,1,2
 520 1150 520 1150 520 1124 c 0,3,4
 520 1116 520 1116 511 1109 c 128,-1,5
 502 1102 502 1102 490 1102 c 0,6,7
 474 1102 474 1102 430 1142 c 2,8,-1
 196 1366 l 1,9,-1
 200 1388 l 1,10,11
 264 1436 264 1436 334 1436 c 0,12,13
 348 1436 348 1436 364 1432 c 1,0,-1
EndSplineSet
EndChar

StartChar: a
Encoding: 97 97 66
Width: 934
GlyphClass: 2
Flags: W
AnchorPoint: "Anchor-6" 402 -226 basechar 0
AnchorPoint: "Anchor-5" 342 -6 basechar 0
AnchorPoint: "Anchor-4" 840 32 basechar 0
AnchorPoint: "Anchor-2" 428 1320 basechar 0
LayerCount: 2
Fore
SplineSet
600 478 m 1,0,-1
 438 434 l 1,1,2
 244 384 244 384 244 208 c 0,3,4
 244 152 244 152 282 108 c 128,-1,5
 320 64 320 64 392 64 c 0,6,7
 462 64 462 64 572 154 c 0,8,9
 600 176 600 176 600 206 c 2,10,-1
 600 478 l 1,0,-1
600 98 m 1,11,-1
 596 98 l 1,12,-1
 556 66 l 2,13,14
 446 -20 446 -20 332 -20 c 0,15,16
 74 -20 74 -20 74 200 c 0,17,18
 74 302 74 302 167 380 c 128,-1,19
 260 458 260 458 412 498 c 2,20,-1
 588 540 l 2,21,22
 600 544 600 544 600 566 c 0,23,24
 600 832 600 832 434 832 c 0,25,26
 366 832 366 832 318 810 c 128,-1,27
 270 788 270 788 270 746 c 0,28,29
 270 718 270 718 274 704 c 0,30,31
 280 692 280 692 280 668 c 0,32,33
 280 646 280 646 253 622 c 128,-1,34
 226 598 226 598 184 598 c 0,35,36
 112 598 112 598 112 672 c 0,37,38
 112 758 112 758 218 829 c 128,-1,39
 324 900 324 900 450 900 c 0,40,41
 760 900 760 900 760 552 c 2,42,-1
 760 252 l 2,43,44
 760 208 760 208 761 184 c 128,-1,45
 762 160 762 160 768 131 c 128,-1,46
 774 102 774 102 787 90 c 128,-1,47
 800 78 800 78 822 78 c 0,48,49
 858 78 858 78 898 110 c 1,50,51
 926 94 926 94 932 56 c 1,52,53
 854 -20 854 -20 738 -20 c 0,54,55
 668 -20 668 -20 639 10 c 128,-1,56
 610 40 610 40 600 98 c 1,11,-1
EndSplineSet
Substitution2: "'sups' Superscript lookup 9 subtable" a.superior
Substitution2: "'sinf' Scientific Inferiors lookup 10 subtable" a.inferior
Substitution2: "'smcp' Lowercase to Small Capitals lookup 4 subtable" a.sc
AlternateSubs2: "'aalt' Access All Alternates lookup 0 subtable" a.sc
EndChar

StartChar: b
Encoding: 98 98 67
Width: 1008
GlyphClass: 2
Flags: W
AnchorPoint: "Anchor-6" 480 -226 basechar 0
AnchorPoint: "Anchor-3" 484 440 basechar 0
AnchorPoint: "Anchor-0" 860 1188 basechar 0
LayerCount: 2
Fore
SplineSet
356 744 m 0,0,1
 322 714 322 714 322 658 c 2,2,-1
 322 146 l 1,3,4
 400 50 400 50 468 50 c 0,5,6
 610 50 610 50 684 163 c 128,-1,7
 758 276 758 276 758 458 c 0,8,9
 758 606 758 606 691 707 c 128,-1,10
 624 808 624 808 530 808 c 0,11,12
 430 810 430 810 356 744 c 0,0,1
342 806 m 0,13,14
 444 898 444 898 572 900 c 0,15,16
 714 900 714 900 824 787 c 128,-1,17
 934 674 934 674 934 496 c 0,18,19
 934 266 934 266 793 123 c 128,-1,20
 652 -20 652 -20 482 -20 c 0,21,22
 362 -20 362 -20 302 30 c 0,23,24
 286 44 286 44 273 44 c 128,-1,25
 260 44 260 44 246 24 c 0,26,27
 232 8 232 8 196 -24 c 1,28,29
 168 -24 168 -24 152 0 c 1,30,31
 160 38 160 38 160 146 c 2,32,-1
 160 1144 l 2,33,34
 160 1210 160 1210 157 1243 c 128,-1,35
 154 1276 154 1276 131 1291 c 128,-1,36
 108 1306 108 1306 96 1307 c 128,-1,37
 84 1308 84 1308 28 1312 c 1,38,39
 6 1334 6 1334 16 1374 c 1,40,41
 198 1388 198 1388 304 1430 c 1,42,43
 330 1430 330 1430 330 1410 c 0,44,45
 322 1328 322 1328 322 1194 c 2,46,-1
 322 818 l 2,47,48
 322 788 322 788 342 806 c 0,13,14
EndSplineSet
Substitution2: "'sups' Superscript lookup 9 subtable" b.superior
Substitution2: "'sinf' Scientific Inferiors lookup 10 subtable" b.inferior
Substitution2: "'smcp' Lowercase to Small Capitals lookup 4 subtable" b.sc
AlternateSubs2: "'aalt' Access All Alternates lookup 0 subtable" b.sc
EndChar

StartChar: c
Encoding: 99 99 68
Width: 876
GlyphClass: 2
Flags: W
AnchorPoint: "Anchor-6" 484 -226 basechar 0
AnchorPoint: "Anchor-5" 496 -4 basechar 0
AnchorPoint: "Anchor-4" 740 86 basechar 0
AnchorPoint: "Anchor-3" 484 440 basechar 0
AnchorPoint: "Anchor-2" 496 1320 basechar 0
LayerCount: 2
Fore
SplineSet
816 186 m 1,0,1
 744 68 744 68 664 24 c 128,-1,2
 584 -20 584 -20 482 -20 c 0,3,4
 292 -20 292 -20 184 102 c 128,-1,5
 76 224 76 224 76 426 c 0,6,7
 76 632 76 632 205 766 c 128,-1,8
 334 900 334 900 496 900 c 0,9,10
 642 900 642 900 725 845 c 128,-1,11
 808 790 808 790 808 704 c 0,12,13
 808 660 808 660 777 637 c 128,-1,14
 746 614 746 614 708 614 c 0,15,16
 638 614 638 614 630 688 c 0,17,18
 626 734 626 734 617 759 c 128,-1,19
 608 784 608 784 575 808 c 128,-1,20
 542 832 542 832 486 832 c 0,21,22
 384 832 384 832 318 734 c 128,-1,23
 252 636 252 636 252 472 c 0,24,25
 252 296 252 296 332 188 c 128,-1,26
 412 80 412 80 526 80 c 0,27,28
 668 80 668 80 772 216 c 1,29,30
 806 210 806 210 816 186 c 1,0,1
EndSplineSet
Substitution2: "'sups' Superscript lookup 9 subtable" c.superior
Substitution2: "'sinf' Scientific Inferiors lookup 10 subtable" c.inferior
Substitution2: "'smcp' Lowercase to Small Capitals lookup 4 subtable" c.sc
AlternateSubs2: "'aalt' Access All Alternates lookup 0 subtable" c.sc
EndChar

StartChar: d
Encoding: 100 100 69
Width: 1036
GlyphClass: 2
Flags: W
AnchorPoint: "Anchor-6" 452 -226 basechar 0
AnchorPoint: "Anchor-4" 638 40 basechar 0
AnchorPoint: "Anchor-3" 484 440 basechar 0
AnchorPoint: "Anchor-2" 446 1320 basechar 0
AnchorPoint: "Anchor-1" 1024 954 basechar 0
AnchorPoint: "Anchor-0" 1004 1188 basechar 0
LayerCount: 2
Fore
SplineSet
706 254 m 2,0,-1
 706 644 l 2,1,2
 706 692 706 692 700 711 c 128,-1,3
 694 730 694 730 672 754 c 0,4,5
 608 828 608 828 506 828 c 0,6,7
 384 828 384 828 316 724 c 1,8,9
 256 640 256 640 256 452 c 0,10,11
 256 272 256 272 324 174 c 128,-1,12
 392 76 392 76 482 76 c 0,13,14
 562 76 562 76 674 174 c 0,15,16
 706 202 706 202 706 254 c 2,0,-1
684 102 m 0,17,18
 534 -20 534 -20 428 -20 c 0,19,20
 266 -20 266 -20 173 101 c 128,-1,21
 80 222 80 222 80 416 c 0,22,23
 80 636 80 636 222 776 c 1,24,25
 352 898 352 898 528 900 c 0,26,27
 558 900 558 900 595 890 c 128,-1,28
 632 880 632 880 659 872 c 128,-1,29
 686 864 686 864 688 864 c 0,30,31
 706 864 706 864 706 882 c 2,32,-1
 706 1144 l 2,33,34
 706 1210 706 1210 703 1243 c 128,-1,35
 700 1276 700 1276 678 1291 c 128,-1,36
 656 1306 656 1306 643 1307 c 128,-1,37
 630 1308 630 1308 576 1312 c 1,38,39
 554 1334 554 1334 564 1374 c 1,40,41
 746 1388 746 1388 850 1430 c 1,42,43
 876 1430 876 1430 876 1410 c 0,44,45
 868 1328 868 1328 868 1194 c 2,46,-1
 868 266 l 2,47,48
 868 186 868 186 896 155 c 128,-1,49
 924 124 924 124 1018 116 c 1,50,51
 1028 106 1028 106 1028 88 c 128,-1,52
 1028 70 1028 70 1018 62 c 1,53,54
 854 44 854 44 776 -20 c 1,55,56
 758 -28 758 -28 738 -20 c 1,57,58
 720 52 720 52 714 100 c 0,59,60
 712 110 712 110 702 110 c 128,-1,61
 692 110 692 110 684 102 c 0,17,18
EndSplineSet
Substitution2: "'sups' Superscript lookup 9 subtable" d.superior
Substitution2: "'sinf' Scientific Inferiors lookup 10 subtable" d.inferior
Substitution2: "'smcp' Lowercase to Small Capitals lookup 4 subtable" d.sc
AlternateSubs2: "'aalt' Access All Alternates lookup 0 subtable" d.sc
EndChar

StartChar: e
Encoding: 101 101 70
Width: 914
GlyphClass: 2
Flags: W
AnchorPoint: "Anchor-6" 480 -226 basechar 0
AnchorPoint: "Anchor-5" 494 -6 basechar 0
AnchorPoint: "Anchor-4" 786 84 basechar 0
AnchorPoint: "Anchor-3" 484 440 basechar 0
AnchorPoint: "Anchor-2" 496 1320 basechar 0
AnchorPoint: "Anchor-1" 860 812 basechar 0
LayerCount: 2
Fore
SplineSet
254 578 m 1,0,-1
 624 584 l 2,1,2
 654 584 654 584 656 612 c 0,3,4
 656 728 656 728 606 778 c 128,-1,5
 556 828 556 828 486 828 c 0,6,7
 460 828 460 828 433 821 c 128,-1,8
 406 814 406 814 368 791 c 128,-1,9
 330 768 330 768 299 713 c 128,-1,10
 268 658 268 658 254 578 c 1,0,-1
790 190 m 1,11,12
 824 188 824 188 834 158 c 1,13,14
 696 -20 696 -20 486 -20 c 0,15,16
 284 -20 284 -20 172 110 c 1,17,18
 76 220 76 220 76 414 c 0,19,20
 76 632 76 632 206 763 c 128,-1,21
 336 894 336 894 486 894 c 0,22,23
 832 894 832 894 832 538 c 0,24,25
 832 504 832 504 792 504 c 2,26,-1
 248 508 l 1,27,28
 248 336 248 336 314 228 c 0,29,30
 404 80 404 80 536 80 c 0,31,32
 622 80 622 80 676 104 c 128,-1,33
 730 128 730 128 790 190 c 1,11,12
EndSplineSet
Substitution2: "'sups' Superscript lookup 9 subtable" e.superior
Substitution2: "'sinf' Scientific Inferiors lookup 10 subtable" e.inferior
Substitution2: "'smcp' Lowercase to Small Capitals lookup 4 subtable" e.sc
AlternateSubs2: "'aalt' Access All Alternates lookup 0 subtable" e.sc
EndChar

StartChar: f
Encoding: 102 102 71
Width: 634
GlyphClass: 2
Flags: W
AnchorPoint: "Anchor-6" 270 -226 basechar 0
AnchorPoint: "Anchor-3" 278 440 basechar 0
AnchorPoint: "Anchor-0" 840 1536 basechar 0
LayerCount: 2
Fore
SplineSet
358 250 m 2,0,1
 358 124 358 124 384 97 c 128,-1,2
 410 70 410 70 530 64 c 1,3,4
 540 54 540 54 540 29 c 128,-1,5
 540 4 540 4 530 -4 c 1,6,7
 386 0 386 0 278 0 c 0,8,9
 196 0 196 0 54 -4 c 1,10,11
 46 4 46 4 46 29 c 128,-1,12
 46 54 46 54 54 64 c 1,13,14
 144 70 144 70 170 100 c 128,-1,15
 196 130 196 130 196 250 c 2,16,-1
 196 798 l 1,17,-1
 56 798 l 2,18,19
 46 798 46 798 46 812 c 2,20,-1
 46 838 l 2,21,22
 46 878 46 878 92 878 c 2,23,-1
 196 878 l 1,24,-1
 196 960 l 2,25,26
 196 1184 196 1184 306 1307 c 128,-1,27
 416 1430 416 1430 560 1430 c 0,28,29
 682 1430 682 1430 744 1386 c 1,30,31
 810 1336 810 1336 808 1282 c 0,32,33
 808 1252 808 1252 780 1225 c 128,-1,34
 752 1198 752 1198 724 1198 c 0,35,36
 670 1198 670 1198 644 1264 c 1,37,38
 624 1318 624 1318 596 1339 c 128,-1,39
 568 1360 568 1360 520 1360 c 0,40,41
 358 1360 358 1360 358 996 c 2,42,-1
 358 878 l 1,43,-1
 580 878 l 2,44,45
 596 878 596 878 596 866 c 2,46,-1
 596 826 l 2,47,48
 596 800 596 800 548 798 c 2,49,-1
 358 798 l 1,50,-1
 358 250 l 2,0,1
EndSplineSet
Substitution2: "'sups' Superscript lookup 9 subtable" f.superior
Substitution2: "'sinf' Scientific Inferiors lookup 10 subtable" f.inferior
Substitution2: "Single Substitution lookup 31 subtable" f.short
Substitution2: "'smcp' Lowercase to Small Capitals lookup 4 subtable" f.sc
AlternateSubs2: "'aalt' Access All Alternates lookup 0 subtable" f.sc
EndChar

StartChar: g
Encoding: 103 103 72
Width: 1024
GlyphClass: 2
Flags: W
AnchorPoint: "Anchor-6" 468 -654 basechar 0
AnchorPoint: "Anchor-3" 464 584 basechar 0
AnchorPoint: "Anchor-2" 474 1320 basechar 0
AnchorPoint: "Anchor-0" 1008 1188 basechar 0
LayerCount: 2
Fore
SplineSet
654 572 m 0,0,1
 654 698 654 698 602 767 c 128,-1,2
 550 836 550 836 454 836 c 0,3,4
 290 836 290 836 290 618 c 0,5,6
 290 560 290 560 297 519 c 128,-1,7
 304 478 304 478 322 434 c 128,-1,8
 340 390 340 390 380 366 c 128,-1,9
 420 342 420 342 482 342 c 0,10,11
 654 342 654 342 654 572 c 0,0,1
270 -20 m 1,12,13
 206 -96 206 -96 206 -212 c 0,14,15
 206 -304 206 -304 292 -358 c 128,-1,16
 378 -412 378 -412 452 -412 c 0,17,18
 548 -412 548 -412 639 -387 c 128,-1,19
 730 -362 730 -362 792 -309 c 128,-1,20
 854 -256 854 -256 854 -186 c 0,21,22
 854 -148 854 -148 831 -121 c 128,-1,23
 808 -94 808 -94 750 -60 c 0,24,25
 686 -26 686 -26 502 -24 c 0,26,27
 492 -24 492 -24 441 -27 c 128,-1,28
 390 -30 390 -30 352 -30 c 0,29,30
 306 -30 306 -30 270 -20 c 1,12,13
910 792 m 0,31,32
 872 792 872 792 852 830 c 1,33,34
 836 854 836 854 812 854 c 0,35,36
 794 854 794 854 768 838 c 128,-1,37
 742 822 742 822 730 804 c 1,38,39
 818 714 818 714 818 592 c 0,40,41
 818 448 818 448 716 363 c 128,-1,42
 614 278 614 278 472 278 c 0,43,44
 360 278 360 278 284 322 c 1,45,46
 248 270 248 270 248 202 c 0,47,48
 248 142 248 142 287 114 c 128,-1,49
 326 86 326 86 378 86 c 1,50,-1
 440 90 l 1,51,52
 522 100 522 100 578 100 c 0,53,54
 796 100 796 100 876 32 c 0,55,56
 966 -42 966 -42 966 -134 c 0,57,58
 966 -240 966 -240 879 -323 c 128,-1,59
 792 -406 792 -406 662 -447 c 128,-1,60
 532 -488 532 -488 392 -488 c 0,61,62
 254 -488 254 -488 160 -432 c 128,-1,63
 66 -376 66 -376 66 -254 c 0,64,65
 66 -106 66 -106 234 -6 c 1,66,67
 140 42 140 42 140 152 c 0,68,69
 140 208 140 208 164 266 c 128,-1,70
 188 324 188 324 230 358 c 1,71,72
 124 460 124 460 122 588 c 0,73,74
 122 726 122 726 227 813 c 128,-1,75
 332 900 332 900 474 900 c 0,76,77
 600 900 600 900 686 842 c 1,78,79
 722 892 722 892 784 919 c 128,-1,80
 846 946 846 946 890 946 c 0,81,82
 930 946 930 946 958 925 c 128,-1,83
 986 904 986 904 986 870 c 0,84,85
 986 840 986 840 962 816 c 128,-1,86
 938 792 938 792 910 792 c 0,31,32
EndSplineSet
Substitution2: "'sups' Superscript lookup 9 subtable" g.superior
Substitution2: "'sinf' Scientific Inferiors lookup 10 subtable" g.inferior
Substitution2: "'smcp' Lowercase to Small Capitals lookup 4 subtable" g.sc
AlternateSubs2: "'aalt' Access All Alternates lookup 0 subtable" g.sc
EndChar

StartChar: h
Encoding: 104 104 73
Width: 1100
GlyphClass: 2
Flags: W
AnchorPoint: "Anchor-6" 530 -226 basechar 0
AnchorPoint: "Anchor-4" 866 20 basechar 0
AnchorPoint: "Anchor-3" 540 440 basechar 0
AnchorPoint: "Anchor-2" 612 1320 basechar 0
AnchorPoint: "Anchor-0" 878 1188 basechar 0
LayerCount: 2
Fore
SplineSet
342 586 m 2,0,-1
 342 250 l 2,1,2
 342 162 342 162 352 126 c 128,-1,3
 362 90 362 90 384 79 c 128,-1,4
 406 68 406 68 464 64 c 1,5,6
 472 54 472 54 473 29 c 128,-1,7
 474 4 474 4 464 -4 c 1,8,9
 350 0 350 0 262 0 c 0,10,11
 172 0 172 0 36 -4 c 1,12,13
 28 4 28 4 28 29 c 128,-1,14
 28 54 28 54 36 64 c 1,15,16
 88 68 88 68 111 72 c 128,-1,17
 134 76 134 76 153 96 c 128,-1,18
 172 116 172 116 176 150 c 128,-1,19
 180 184 180 184 180 250 c 2,20,-1
 180 1144 l 2,21,22
 180 1206 180 1206 176 1238 c 128,-1,23
 172 1270 172 1270 157 1286 c 128,-1,24
 142 1302 142 1302 125 1305 c 128,-1,25
 108 1308 108 1308 68 1312 c 0,26,27
 56 1312 56 1312 50 1312 c 1,28,29
 44 1318 44 1318 40 1330 c 128,-1,30
 36 1342 36 1342 35 1354 c 128,-1,31
 34 1366 34 1366 36 1374 c 1,32,33
 100 1378 100 1378 193 1397 c 128,-1,34
 286 1416 286 1416 324 1430 c 1,35,36
 350 1430 350 1430 350 1410 c 0,37,38
 342 1328 342 1328 342 1194 c 2,39,-1
 340 734 l 2,40,41
 340 710 340 710 356 730 c 0,42,43
 360 732 360 732 360 734 c 0,44,45
 510 900 510 900 708 900 c 0,46,47
 824 900 824 900 878 830 c 0,48,49
 934 758 934 758 934 556 c 2,50,-1
 934 250 l 2,51,52
 934 130 934 130 957 101 c 128,-1,53
 980 72 980 72 1072 64 c 1,54,55
 1080 56 1080 56 1080 31 c 128,-1,56
 1080 6 1080 6 1072 -4 c 1,57,58
 936 0 936 0 854 0 c 0,59,60
 760 0 760 0 646 -4 c 1,61,62
 638 4 638 4 637 29 c 128,-1,63
 636 54 636 54 646 64 c 1,64,65
 730 72 730 72 751 101 c 128,-1,66
 772 130 772 130 772 250 c 2,67,-1
 772 562 l 2,68,69
 772 670 772 670 748 718 c 0,70,71
 712 792 712 792 638 792 c 0,72,73
 498 792 498 792 376 672 c 0,74,75
 342 636 342 636 342 586 c 2,0,-1
EndSplineSet
Substitution2: "'sups' Superscript lookup 9 subtable" h.superior
Substitution2: "'sinf' Scientific Inferiors lookup 10 subtable" h.inferior
Substitution2: "'smcp' Lowercase to Small Capitals lookup 4 subtable" h.sc
AlternateSubs2: "'aalt' Access All Alternates lookup 0 subtable" h.sc
EndChar

StartChar: i
Encoding: 105 105 74
Width: 554
GlyphClass: 2
Flags: W
AnchorPoint: "Anchor-6" 278 -226 basechar 0
AnchorPoint: "Anchor-5" 280 24 basechar 0
AnchorPoint: "Anchor-4" 428 20 basechar 0
AnchorPoint: "Anchor-3" 290 440 basechar 0
AnchorPoint: "Anchor-2" 280 1628 basechar 0
LayerCount: 2
Fore
SplineSet
184 1226 m 0,0,1
 184 1262 184 1262 219 1294 c 128,-1,2
 254 1326 254 1326 290 1326 c 0,3,4
 328 1326 328 1326 359 1292 c 128,-1,5
 390 1258 390 1258 390 1218 c 0,6,7
 390 1184 390 1184 357 1152 c 128,-1,8
 324 1120 324 1120 282 1120 c 0,9,10
 246 1120 246 1120 215 1154 c 128,-1,11
 184 1188 184 1188 184 1226 c 0,0,1
370 250 m 2,12,13
 370 128 370 128 395 99 c 128,-1,14
 420 70 420 70 518 64 c 1,15,16
 528 54 528 54 528 29 c 128,-1,17
 528 4 528 4 518 -4 c 1,18,19
 382 0 382 0 290 0 c 0,20,21
 196 0 196 0 62 -4 c 1,22,23
 54 4 54 4 54 29 c 128,-1,24
 54 54 54 54 62 64 c 1,25,26
 160 72 160 72 184 99 c 128,-1,27
 208 126 208 126 208 250 c 2,28,-1
 208 650 l 2,29,30
 208 736 208 736 185 758 c 128,-1,31
 162 780 162 780 76 788 c 1,32,33
 64 822 64 822 72 846 c 1,34,35
 262 870 262 870 352 906 c 1,36,37
 378 906 378 906 378 890 c 0,38,39
 370 758 370 758 370 658 c 2,40,-1
 370 250 l 2,12,13
EndSplineSet
Substitution2: "'sups' Superscript lookup 9 subtable" i.superior
Substitution2: "'sinf' Scientific Inferiors lookup 10 subtable" i.inferior
Substitution2: "'smcp' Lowercase to Small Capitals in Latin lookup 5 subtable" idotaccent.sc
Substitution2: "'smcp' Lowercase to Small Capitals lookup 3 subtable" i.sc
Substitution2: "'smcp' Lowercase to Small Capitals lookup 4 subtable" i.sc
AlternateSubs2: "'aalt' Access All Alternates lookup 0 subtable" i.sc
EndChar

StartChar: j
Encoding: 106 106 75
Width: 556
GlyphClass: 2
Flags: W
AnchorPoint: "Anchor-6" 224 -654 basechar 0
AnchorPoint: "Anchor-3" 316 440 basechar 0
LayerCount: 2
Fore
SplineSet
202 1226 m 0,0,1
 202 1262 202 1262 237 1294 c 128,-1,2
 272 1326 272 1326 310 1326 c 0,3,4
 348 1326 348 1326 378 1292 c 128,-1,5
 408 1258 408 1258 408 1218 c 0,6,7
 408 1184 408 1184 375 1152 c 128,-1,8
 342 1120 342 1120 302 1120 c 0,9,10
 266 1120 266 1120 234 1154 c 128,-1,11
 202 1188 202 1188 202 1226 c 0,0,1
232 650 m 2,12,13
 232 736 232 736 208 758 c 128,-1,14
 184 780 184 780 98 788 c 1,15,16
 86 822 86 822 94 846 c 1,17,18
 288 870 288 870 374 906 c 1,19,20
 400 906 400 906 402 890 c 0,21,22
 394 758 394 758 394 658 c 2,23,-1
 394 226 l 2,24,25
 394 -50 394 -50 356 -187 c 128,-1,26
 318 -324 318 -324 240 -388 c 0,27,28
 156 -458 156 -458 14 -456 c 0,29,30
 -22 -456 -22 -456 -60 -433 c 128,-1,31
 -98 -410 -98 -410 -98 -368 c 0,32,33
 -98 -342 -98 -342 -75 -316 c 128,-1,34
 -52 -290 -52 -290 -32 -290 c 0,35,36
 -22 -290 -22 -290 -12 -293 c 128,-1,37
 -2 -296 -2 -296 5 -300 c 128,-1,38
 12 -304 12 -304 21 -311 c 128,-1,39
 30 -318 30 -318 34 -321 c 128,-1,40
 38 -324 38 -324 47 -333 c 128,-1,41
 56 -342 56 -342 58 -344 c 0,42,43
 80 -366 80 -366 120 -366 c 0,44,45
 190 -366 190 -366 211 -231 c 128,-1,46
 232 -96 232 -96 232 156 c 2,47,-1
 232 650 l 2,12,13
EndSplineSet
Substitution2: "'sups' Superscript lookup 9 subtable" j.superior
Substitution2: "'sinf' Scientific Inferiors lookup 10 subtable" j.inferior
Substitution2: "'smcp' Lowercase to Small Capitals lookup 4 subtable" j.sc
AlternateSubs2: "'aalt' Access All Alternates lookup 0 subtable" j.sc
EndChar

StartChar: k
Encoding: 107 107 76
Width: 1048
GlyphClass: 2
Flags: W
AnchorPoint: "Anchor-6" 594 -438 basechar 0
AnchorPoint: "Anchor-5" 220 -116 basechar 0
AnchorPoint: "Anchor-2" 624 1604 basechar 0
AnchorPoint: "Anchor-0" 1096 1426 basechar 0
LayerCount: 2
Fore
SplineSet
176 250 m 2,0,-1
 176 1144 l 2,1,2
 176 1206 176 1206 172 1238 c 128,-1,3
 168 1270 168 1270 153 1286 c 128,-1,4
 138 1302 138 1302 121 1305 c 128,-1,5
 104 1308 104 1308 64 1312 c 0,6,7
 52 1312 52 1312 46 1312 c 1,8,9
 40 1318 40 1318 36 1330 c 128,-1,10
 32 1342 32 1342 31 1354 c 128,-1,11
 30 1366 30 1366 32 1374 c 1,12,13
 96 1378 96 1378 189 1397 c 128,-1,14
 282 1416 282 1416 320 1430 c 1,15,16
 346 1430 346 1430 346 1410 c 0,17,18
 338 1328 338 1328 338 1194 c 2,19,-1
 338 480 l 1,20,21
 404 490 404 490 478 542 c 0,22,23
 552 598 552 598 642 710 c 0,24,25
 652 722 652 722 658 736 c 128,-1,26
 664 750 664 750 668 768 c 128,-1,27
 672 786 672 786 653 800 c 128,-1,28
 634 814 634 814 594 816 c 1,29,30
 586 824 586 824 586 848 c 128,-1,31
 586 872 586 872 594 882 c 1,32,33
 688 878 688 878 794 878 c 0,34,35
 878 878 878 878 972 882 c 1,36,37
 982 872 982 872 983 848 c 128,-1,38
 984 824 984 824 972 816 c 1,39,40
 828 802 828 802 758 724 c 2,41,-1
 578 538 l 2,42,43
 570 530 570 530 570 518 c 0,44,45
 570 508 570 508 584 490 c 2,46,-1
 854 150 l 2,47,48
 890 102 890 102 928 87 c 128,-1,49
 966 72 966 72 1030 64 c 1,50,51
 1040 54 1040 54 1040 29 c 128,-1,52
 1040 4 1040 4 1030 -4 c 1,53,54
 948 0 948 0 862 0 c 0,55,56
 816 0 816 0 736 -4 c 0,57,58
 728 -4 728 -4 728 6 c 0,59,60
 724 38 724 38 642 150 c 2,61,-1
 492 350 l 2,62,63
 460 396 460 396 426 418 c 1,64,65
 400 426 400 426 338 428 c 1,66,-1
 338 250 l 2,67,68
 338 130 338 130 357 100 c 128,-1,69
 376 70 376 70 444 64 c 1,70,71
 454 54 454 54 454 29 c 128,-1,72
 454 4 454 4 444 -4 c 1,73,74
 350 0 350 0 258 0 c 0,75,76
 174 0 174 0 38 -4 c 1,77,78
 28 4 28 4 28 29 c 128,-1,79
 28 54 28 54 38 64 c 1,80,81
 128 70 128 70 152 99 c 128,-1,82
 176 128 176 128 176 250 c 2,0,-1
EndSplineSet
Substitution2: "'sups' Superscript lookup 9 subtable" k.superior
Substitution2: "'sinf' Scientific Inferiors lookup 10 subtable" k.inferior
Substitution2: "'smcp' Lowercase to Small Capitals lookup 4 subtable" k.sc
AlternateSubs2: "'aalt' Access All Alternates lookup 0 subtable" k.sc
EndChar

StartChar: l
Encoding: 108 108 77
Width: 540
GlyphClass: 2
Flags: W
AnchorPoint: "Anchor-6" 276 -226 basechar 0
AnchorPoint: "Anchor-5" 276 20 basechar 0
AnchorPoint: "Anchor-3" 278 440 basechar 0
AnchorPoint: "Anchor-2" 276 1812 basechar 0
AnchorPoint: "Anchor-0" 510 1502 basechar 0
LayerCount: 2
Fore
SplineSet
194 250 m 2,0,-1
 194 1144 l 2,1,2
 194 1256 194 1256 174 1281 c 128,-1,3
 154 1306 154 1306 64 1312 c 1,4,5
 42 1334 42 1334 52 1374 c 1,6,7
 234 1388 234 1388 338 1430 c 1,8,9
 364 1430 364 1430 364 1410 c 0,10,11
 356 1328 356 1328 356 1194 c 2,12,-1
 356 250 l 2,13,14
 356 128 356 128 382 98 c 128,-1,15
 408 68 408 68 504 64 c 1,16,17
 512 54 512 54 512 29 c 128,-1,18
 512 4 512 4 504 -4 c 1,19,20
 368 0 368 0 276 0 c 0,21,22
 190 0 190 0 48 -4 c 1,23,24
 38 4 38 4 37 29 c 128,-1,25
 36 54 36 54 48 64 c 1,26,27
 144 68 144 68 169 98 c 128,-1,28
 194 128 194 128 194 250 c 2,0,-1
EndSplineSet
Substitution2: "'sups' Superscript lookup 9 subtable" l.superior
Substitution2: "'sinf' Scientific Inferiors lookup 10 subtable" l.inferior
Substitution2: "'smcp' Lowercase to Small Capitals lookup 4 subtable" l.sc
AlternateSubs2: "'aalt' Access All Alternates lookup 0 subtable" l.sc
EndChar

StartChar: m
Encoding: 109 109 78
Width: 1616
GlyphClass: 2
Flags: W
AnchorPoint: "Anchor-6" 836 -226 basechar 0
AnchorPoint: "Anchor-5" 280 18 basechar 0
AnchorPoint: "Anchor-3" 570 440 basechar 0
AnchorPoint: "Anchor-2" 802 1320 basechar 0
LayerCount: 2
Fore
SplineSet
348 734 m 0,0,1
 350 708 350 708 372 734 c 0,2,3
 520 900 520 900 684 900 c 0,4,5
 762 900 762 900 818 857 c 128,-1,6
 874 814 874 814 888 750 c 0,7,8
 892 730 892 730 912 748 c 0,9,10
 1056 900 1056 900 1250 900 c 0,11,12
 1374 900 1374 900 1417 816 c 128,-1,13
 1460 732 1460 732 1460 574 c 2,14,-1
 1460 250 l 2,15,16
 1460 128 1460 128 1482 99 c 128,-1,17
 1504 70 1504 70 1592 64 c 1,18,19
 1600 56 1600 56 1600 31 c 128,-1,20
 1600 6 1600 6 1592 -4 c 1,21,22
 1478 0 1478 0 1380 0 c 0,23,24
 1274 0 1274 0 1172 -4 c 1,25,26
 1164 6 1164 6 1164 31 c 128,-1,27
 1164 56 1164 56 1172 64 c 1,28,29
 1256 70 1256 70 1277 100 c 128,-1,30
 1298 130 1298 130 1298 250 c 2,31,-1
 1298 610 l 2,32,33
 1298 708 1298 708 1267 750 c 128,-1,34
 1236 792 1236 792 1176 792 c 0,35,36
 1028 792 1028 792 906 658 c 1,37,38
 908 634 908 634 908 576 c 2,39,-1
 908 250 l 2,40,41
 908 128 908 128 928 99 c 128,-1,42
 948 70 948 70 1028 64 c 1,43,44
 1036 56 1036 56 1036 30 c 128,-1,45
 1036 4 1036 4 1028 -4 c 1,46,47
 926 0 926 0 828 0 c 0,48,49
 722 0 722 0 618 -4 c 1,50,51
 610 4 610 4 610 29 c 128,-1,52
 610 54 610 54 618 64 c 1,53,54
 704 70 704 70 725 98 c 128,-1,55
 746 126 746 126 746 250 c 2,56,-1
 746 606 l 2,57,58
 746 792 746 792 610 792 c 0,59,60
 512 792 512 792 390 672 c 0,61,62
 356 636 356 636 354 586 c 2,63,-1
 354 250 l 2,64,65
 354 164 354 164 365 128 c 128,-1,66
 376 92 376 92 399 81 c 128,-1,67
 422 70 422 70 482 64 c 1,68,69
 490 54 490 54 490 29 c 128,-1,70
 490 4 490 4 482 -4 c 1,71,72
 360 0 360 0 274 0 c 0,73,74
 176 0 176 0 54 -4 c 1,75,76
 46 4 46 4 46 29 c 128,-1,77
 46 54 46 54 54 64 c 1,78,79
 144 70 144 70 168 100 c 128,-1,80
 192 130 192 130 192 250 c 2,81,-1
 192 650 l 2,82,83
 192 736 192 736 169 758 c 128,-1,84
 146 780 146 780 60 788 c 1,85,86
 48 822 48 822 56 846 c 1,87,88
 208 866 208 866 308 906 c 1,89,90
 324 906 324 906 332 888 c 0,91,92
 342 868 342 868 348 734 c 0,0,1
EndSplineSet
Substitution2: "'sups' Superscript lookup 9 subtable" m.superior
Substitution2: "'sinf' Scientific Inferiors lookup 10 subtable" m.inferior
Substitution2: "'smcp' Lowercase to Small Capitals lookup 4 subtable" m.sc
AlternateSubs2: "'aalt' Access All Alternates lookup 0 subtable" m.sc
EndChar

StartChar: n
Encoding: 110 110 79
Width: 1110
GlyphClass: 2
Flags: W
AnchorPoint: "Anchor-6" 542 -226 basechar 0
AnchorPoint: "Anchor-5" 278 18 basechar 0
AnchorPoint: "Anchor-3" 540 440 basechar 0
AnchorPoint: "Anchor-2" 540 1324 basechar 0
LayerCount: 2
Fore
SplineSet
376 734 m 0,0,1
 522 900 522 900 712 900 c 0,2,3
 828 900 828 900 882 830 c 0,4,5
 938 756 938 756 938 556 c 2,6,-1
 938 250 l 2,7,8
 938 184 938 184 942 150 c 128,-1,9
 946 116 946 116 965 97 c 128,-1,10
 984 78 984 78 1005 73 c 128,-1,11
 1026 68 1026 68 1076 64 c 1,12,13
 1084 56 1084 56 1084 31 c 128,-1,14
 1084 6 1084 6 1076 -4 c 1,15,16
 954 0 954 0 858 0 c 0,17,18
 772 0 772 0 650 -4 c 1,19,20
 642 4 642 4 642 29 c 128,-1,21
 642 54 642 54 650 64 c 1,22,23
 710 70 710 70 732 81 c 128,-1,24
 754 92 754 92 765 128 c 128,-1,25
 776 164 776 164 776 250 c 2,26,-1
 776 562 l 2,27,28
 776 670 776 670 752 718 c 0,29,30
 714 792 714 792 644 792 c 0,31,32
 520 792 520 792 394 672 c 1,33,34
 360 634 360 634 358 586 c 2,35,-1
 358 250 l 2,36,37
 358 164 358 164 369 128 c 128,-1,38
 380 92 380 92 402 81 c 128,-1,39
 424 70 424 70 484 64 c 1,40,41
 494 54 494 54 494 29 c 128,-1,42
 494 4 494 4 484 -4 c 1,43,44
 362 0 362 0 278 0 c 0,45,46
 176 0 176 0 54 -4 c 1,47,48
 46 4 46 4 46 29 c 128,-1,49
 46 54 46 54 54 64 c 1,50,51
 108 68 108 68 130 73 c 128,-1,52
 152 78 152 78 170 98 c 128,-1,53
 188 118 188 118 192 151 c 128,-1,54
 196 184 196 184 196 250 c 2,55,-1
 196 650 l 2,56,57
 196 736 196 736 173 758 c 128,-1,58
 150 780 150 780 64 788 c 1,59,60
 52 822 52 822 60 846 c 1,61,62
 212 866 212 866 312 906 c 1,63,64
 328 906 328 906 336 888 c 0,65,66
 348 864 348 864 352 734 c 0,67,68
 352 708 352 708 376 734 c 0,0,1
EndSplineSet
Substitution2: "'sups' Superscript lookup 9 subtable" n.superior
Substitution2: "'sinf' Scientific Inferiors lookup 10 subtable" n.inferior
Substitution2: "'smcp' Lowercase to Small Capitals lookup 4 subtable" n.sc
AlternateSubs2: "'aalt' Access All Alternates lookup 0 subtable" n.sc
EndChar

StartChar: o
Encoding: 111 111 80
Width: 1032
GlyphClass: 2
Flags: W
AnchorPoint: "Anchor-6" 498 -226 basechar 0
AnchorPoint: "Anchor-5" 494 -6 basechar 0
AnchorPoint: "Anchor-4" 762 90 basechar 0
AnchorPoint: "Anchor-3" 484 440 basechar 0
AnchorPoint: "Anchor-2" 488 1320 basechar 0
AnchorPoint: "Anchor-1" 860 812 basechar 0
LayerCount: 2
Fore
SplineSet
84 420 m 0,0,1
 84 622 84 622 196 756 c 0,2,3
 318 900 318 900 518 900 c 0,4,5
 666 900 666 900 767 827 c 128,-1,6
 868 754 868 754 908 653 c 128,-1,7
 948 552 948 552 948 438 c 0,8,9
 948 226 948 226 816 94 c 0,10,11
 700 -20 700 -20 514 -20 c 0,12,13
 310 -20 310 -20 197 113 c 128,-1,14
 84 246 84 246 84 420 c 0,0,1
488 828 m 0,15,16
 260 828 260 828 260 466 c 0,17,18
 260 414 260 414 268 362 c 128,-1,19
 276 310 276 310 298 253 c 128,-1,20
 320 196 320 196 351 152 c 128,-1,21
 382 108 382 108 432 80 c 128,-1,22
 482 52 482 52 542 52 c 0,23,24
 582 52 582 52 620 66 c 128,-1,25
 658 80 658 80 694 114 c 128,-1,26
 730 148 730 148 751 214 c 128,-1,27
 772 280 772 280 772 372 c 0,28,29
 772 592 772 592 697 710 c 128,-1,30
 622 828 622 828 488 828 c 0,15,16
EndSplineSet
Substitution2: "'sups' Superscript lookup 9 subtable" o.superior
Substitution2: "'sinf' Scientific Inferiors lookup 10 subtable" o.inferior
Substitution2: "'smcp' Lowercase to Small Capitals lookup 4 subtable" o.sc
AlternateSubs2: "'aalt' Access All Alternates lookup 0 subtable" o.sc
EndChar

StartChar: p
Encoding: 112 112 81
Width: 1062
GlyphClass: 2
Flags: W
AnchorPoint: "Anchor-6" 366 -654 basechar 0
AnchorPoint: "Anchor-3" 504 440 basechar 0
AnchorPoint: "Anchor-2" 556 1324 basechar 0
AnchorPoint: "Anchor-0" 878 1188 basechar 0
LayerCount: 2
Fore
SplineSet
358 678 m 0,0,1
 326 638 326 638 326 588 c 2,2,-1
 326 216 l 2,3,4
 326 162 326 162 334 141 c 128,-1,5
 342 120 342 120 374 92 c 0,6,7
 424 48 424 48 520 50 c 0,8,9
 602 50 602 50 661 83 c 128,-1,10
 720 116 720 116 751 175 c 128,-1,11
 782 234 782 234 795 295 c 128,-1,12
 808 356 808 356 808 426 c 0,13,14
 808 594 808 594 738 699 c 128,-1,15
 668 804 668 804 566 804 c 0,16,17
 522 804 522 804 460 767 c 128,-1,18
 398 730 398 730 358 678 c 0,0,1
320 754 m 0,19,20
 322 724 322 724 342 746 c 0,21,22
 382 794 382 794 429 827 c 128,-1,23
 476 860 476 860 526 880 c 128,-1,24
 576 900 576 900 622 900 c 0,25,26
 776 900 776 900 881 775 c 128,-1,27
 986 650 986 650 986 482 c 0,28,29
 986 242 986 242 834 94 c 1,30,31
 714 -20 714 -20 532 -20 c 0,32,33
 432 -20 432 -20 354 10 c 0,34,35
 338 18 338 18 332 16 c 128,-1,36
 326 14 326 14 326 -4 c 2,37,-1
 326 -226 l 2,38,39
 326 -294 326 -294 330 -326 c 128,-1,40
 334 -358 334 -358 356 -379 c 128,-1,41
 378 -400 378 -400 405 -404 c 128,-1,42
 432 -408 432 -408 494 -412 c 1,43,44
 504 -422 504 -422 504 -447 c 128,-1,45
 504 -472 504 -472 494 -480 c 1,46,47
 358 -476 358 -476 246 -476 c 0,48,49
 160 -476 160 -476 16 -480 c 1,50,51
 8 -472 8 -472 8 -447 c 128,-1,52
 8 -422 8 -422 16 -412 c 1,53,54
 70 -410 70 -410 93 -405 c 128,-1,55
 116 -400 116 -400 136 -380 c 128,-1,56
 156 -360 156 -360 160 -325 c 128,-1,57
 164 -290 164 -290 164 -226 c 2,58,-1
 164 650 l 2,59,60
 164 736 164 736 140 758 c 128,-1,61
 116 780 116 780 30 788 c 1,62,63
 18 822 18 822 26 846 c 1,64,65
 178 866 178 866 278 906 c 1,66,67
 294 906 294 906 304 888 c 0,68,69
 314 864 314 864 320 754 c 0,19,20
EndSplineSet
Substitution2: "'sups' Superscript lookup 9 subtable" p.superior
Substitution2: "'sinf' Scientific Inferiors lookup 10 subtable" p.inferior
Substitution2: "'smcp' Lowercase to Small Capitals lookup 4 subtable" p.sc
AlternateSubs2: "'aalt' Access All Alternates lookup 0 subtable" p.sc
EndChar

StartChar: q
Encoding: 113 113 82
Width: 1030
GlyphClass: 2
Flags: W
AnchorPoint: "Anchor-6" 712 -654 basechar 0
AnchorPoint: "Anchor-3" 484 440 basechar 0
AnchorPoint: "Anchor-2" 488 1320 basechar 0
AnchorPoint: "Anchor-0" 960 1500 basechar 0
LayerCount: 2
Fore
SplineSet
660 754 m 0,0,1
 592 830 592 830 498 830 c 0,2,3
 380 830 380 830 314 729 c 128,-1,4
 248 628 248 628 248 464 c 0,5,6
 248 354 248 354 277 273 c 128,-1,7
 306 192 306 192 353 150 c 128,-1,8
 400 108 400 108 448 89 c 128,-1,9
 496 70 496 70 544 70 c 0,10,11
 626 70 626 70 680 96 c 0,12,13
 694 104 694 104 699 111 c 128,-1,14
 704 118 704 118 706 128 c 128,-1,15
 708 138 708 138 708 158 c 2,16,-1
 708 628 l 2,17,18
 708 666 708 666 698 694 c 128,-1,19
 688 722 688 722 660 754 c 0,0,1
708 -228 m 2,20,-1
 708 0 l 2,21,22
 708 30 708 30 698 31 c 128,-1,23
 688 32 688 32 654 12 c 0,24,25
 598 -20 598 -20 496 -20 c 0,26,27
 392 -20 392 -20 307 22 c 128,-1,28
 222 64 222 64 172 131 c 128,-1,29
 122 198 122 198 97 273 c 128,-1,30
 72 348 72 348 72 424 c 0,31,32
 72 626 72 626 196 763 c 128,-1,33
 320 900 320 900 506 900 c 0,34,35
 646 900 646 900 738 840 c 0,36,37
 756 828 756 828 766 833 c 128,-1,38
 776 838 776 838 796 866 c 0,39,40
 824 904 824 904 840 906 c 0,41,42
 870 906 870 906 870 854 c 2,43,-1
 870 -228 l 2,44,45
 870 -294 870 -294 874 -327 c 128,-1,46
 878 -360 878 -360 898 -380 c 128,-1,47
 918 -400 918 -400 941 -405 c 128,-1,48
 964 -410 964 -410 1018 -412 c 1,49,50
 1028 -420 1028 -420 1028 -444 c 128,-1,51
 1028 -468 1028 -468 1018 -480 c 1,52,53
 882 -476 882 -476 790 -476 c 0,54,55
 704 -476 704 -476 562 -480 c 1,56,57
 554 -470 554 -470 553 -445 c 128,-1,58
 552 -420 552 -420 562 -412 c 1,59,60
 606 -410 606 -410 626 -407 c 128,-1,61
 646 -404 646 -404 666 -395 c 128,-1,62
 686 -386 686 -386 693 -364 c 128,-1,63
 700 -342 700 -342 704 -312 c 128,-1,64
 708 -282 708 -282 708 -228 c 2,20,-1
EndSplineSet
Substitution2: "'sups' Superscript lookup 9 subtable" q.superior
Substitution2: "'sinf' Scientific Inferiors lookup 10 subtable" q.inferior
Substitution2: "'smcp' Lowercase to Small Capitals lookup 4 subtable" q.sc
AlternateSubs2: "'aalt' Access All Alternates lookup 0 subtable" q.sc
EndChar

StartChar: r
Encoding: 114 114 83
Width: 760
GlyphClass: 2
Flags: W
AnchorPoint: "Anchor-6" 276 -226 basechar 0
AnchorPoint: "Anchor-5" 274 14 basechar 0
AnchorPoint: "Anchor-3" 278 378 basechar 0
AnchorPoint: "Anchor-2" 392 1324 basechar 0
AnchorPoint: "Anchor-0" 714 1188 basechar 0
LayerCount: 2
Fore
SplineSet
360 734 m 0,0,1
 360 724 360 724 366 719 c 128,-1,2
 372 714 372 714 382 730 c 0,3,4
 422 800 422 800 483 850 c 128,-1,5
 544 900 544 900 610 900 c 0,6,7
 670 900 670 900 702 868 c 128,-1,8
 734 836 734 836 734 800 c 0,9,10
 734 762 734 762 704 730 c 128,-1,11
 674 698 674 698 636 698 c 256,12,13
 600 698 600 698 564 746 c 0,14,15
 544 772 544 772 510 772 c 0,16,17
 486 772 486 772 416 672 c 0,18,19
 366 598 366 598 366 534 c 2,20,-1
 366 250 l 2,21,22
 366 128 366 128 394 100 c 128,-1,23
 422 72 422 72 534 64 c 1,24,25
 544 54 544 54 544 29 c 128,-1,26
 544 4 544 4 534 -4 c 1,27,28
 390 0 390 0 286 0 c 0,29,30
 196 0 196 0 54 -4 c 1,31,32
 46 4 46 4 46 29 c 128,-1,33
 46 54 46 54 54 64 c 1,34,35
 154 70 154 70 179 98 c 128,-1,36
 204 126 204 126 204 250 c 2,37,-1
 204 650 l 2,38,39
 204 736 204 736 181 758 c 128,-1,40
 158 780 158 780 72 788 c 1,41,42
 60 822 60 822 68 846 c 1,43,44
 220 866 220 866 320 906 c 1,45,46
 336 906 336 906 344 888 c 0,47,48
 354 866 354 866 360 734 c 0,0,1
EndSplineSet
Substitution2: "'sups' Superscript lookup 9 subtable" r.superior
Substitution2: "'sinf' Scientific Inferiors lookup 10 subtable" r.inferior
Substitution2: "'smcp' Lowercase to Small Capitals lookup 4 subtable" r.sc
AlternateSubs2: "'aalt' Access All Alternates lookup 0 subtable" r.sc
EndChar

StartChar: s
Encoding: 115 115 84
Width: 798
GlyphClass: 2
Flags: W
AnchorPoint: "Anchor-6" 402 -226 basechar 0
AnchorPoint: "Anchor-5" 398 2 basechar 0
AnchorPoint: "Anchor-4" 594 26 basechar 0
AnchorPoint: "Anchor-2" 422 1320 basechar 0
AnchorPoint: "Anchor-0" 750 1188 basechar 0
LayerCount: 2
Fore
SplineSet
98 282 m 1,0,1
 108 292 108 292 130 292 c 128,-1,2
 152 292 152 292 162 284 c 1,3,4
 194 144 194 144 241 96 c 128,-1,5
 288 48 288 48 388 48 c 0,6,7
 454 48 454 48 508 84 c 128,-1,8
 562 120 562 120 562 190 c 0,9,10
 562 258 562 258 520 299 c 128,-1,11
 478 340 478 340 352 392 c 0,12,13
 230 444 230 444 178 503 c 128,-1,14
 126 562 126 562 126 670 c 0,15,16
 126 766 126 766 213 833 c 128,-1,17
 300 900 300 900 416 900 c 0,18,19
 464 900 464 900 513 892 c 128,-1,20
 562 884 562 884 616 873 c 128,-1,21
 670 862 670 862 684 860 c 1,22,23
 680 752 680 752 672 644 c 1,24,25
 662 634 662 634 639 633 c 128,-1,26
 616 632 616 632 606 642 c 1,27,28
 596 704 596 704 572 744 c 128,-1,29
 548 784 548 784 517 802 c 128,-1,30
 486 820 486 820 462 826 c 128,-1,31
 438 832 438 832 416 832 c 0,32,33
 360 832 360 832 316 796 c 128,-1,34
 272 760 272 760 272 700 c 0,35,36
 272 624 272 624 318 587 c 128,-1,37
 364 550 364 550 478 510 c 0,38,39
 718 422 718 422 716 238 c 0,40,41
 716 166 716 166 683 113 c 128,-1,42
 650 60 650 60 596 32 c 128,-1,43
 542 4 542 4 491 -8 c 128,-1,44
 440 -20 440 -20 392 -20 c 0,45,46
 292 -20 292 -20 204 2 c 0,47,48
 190 6 190 6 164 6 c 0,49,50
 144 6 144 6 112 0 c 1,51,52
 112 106 112 106 98 282 c 1,0,1
EndSplineSet
Substitution2: "'sups' Superscript lookup 9 subtable" s.superior
Substitution2: "'sinf' Scientific Inferiors lookup 10 subtable" s.inferior
Substitution2: "'smcp' Lowercase to Small Capitals lookup 4 subtable" s.sc
AlternateSubs2: "'aalt' Access All Alternates lookup 0 subtable" s.sc
EndChar

StartChar: t
Encoding: 116 116 85
Width: 646
GlyphClass: 2
Flags: W
AnchorPoint: "Anchor-6" 334 -226 basechar 0
AnchorPoint: "Anchor-5" 338 -6 basechar 0
AnchorPoint: "Anchor-4" 486 30 basechar 0
AnchorPoint: "Anchor-3" 260 440 basechar 0
AnchorPoint: "Anchor-0" 572 1188 basechar 0
LayerCount: 2
Fore
SplineSet
88 878 m 2,0,-1
 182 878 l 1,1,2
 182 956 182 956 181 1007 c 128,-1,3
 180 1058 180 1058 179 1074 c 128,-1,4
 178 1090 178 1090 177 1100 c 128,-1,5
 176 1110 176 1110 176 1116 c 0,6,7
 176 1130 176 1130 222 1144 c 0,8,9
 256 1154 256 1154 290 1174 c 0,10,11
 322 1192 322 1192 336 1192 c 0,12,13
 352 1192 352 1192 352 1174 c 0,14,15
 344 1092 344 1092 344 958 c 2,16,-1
 344 878 l 1,17,-1
 590 878 l 2,18,19
 606 878 606 878 606 866 c 2,20,-1
 606 826 l 2,21,22
 606 800 606 800 558 798 c 2,23,-1
 344 798 l 1,24,-1
 344 280 l 2,25,26
 344 180 344 180 358 136 c 128,-1,27
 372 92 372 92 412 92 c 0,28,29
 506 92 506 92 580 150 c 1,30,31
 610 148 610 148 616 114 c 1,32,33
 496 -22 496 -22 340 -20 c 0,34,35
 182 -20 182 -20 182 182 c 2,36,-1
 182 798 l 1,37,-1
 62 798 l 2,38,39
 52 798 52 798 52 812 c 2,40,-1
 52 838 l 2,41,42
 52 878 52 878 88 878 c 2,0,-1
EndSplineSet
Substitution2: "'sups' Superscript lookup 9 subtable" t.superior
Substitution2: "'sinf' Scientific Inferiors lookup 10 subtable" t.inferior
Substitution2: "'smcp' Lowercase to Small Capitals lookup 4 subtable" t.sc
AlternateSubs2: "'aalt' Access All Alternates lookup 0 subtable" t.sc
EndChar

StartChar: u
Encoding: 117 117 86
Width: 1086
GlyphClass: 2
Flags: W
AnchorPoint: "Anchor-6" 490 -226 basechar 0
AnchorPoint: "Anchor-5" 436 0 basechar 0
AnchorPoint: "Anchor-4" 600 14 basechar 0
AnchorPoint: "Anchor-3" 516 440 basechar 0
AnchorPoint: "Anchor-2" 522 1320 basechar 0
LayerCount: 2
Fore
SplineSet
444 -20 m 0,0,1
 302 -20 302 -20 241 59 c 128,-1,2
 180 138 180 138 180 258 c 2,3,-1
 180 652 l 2,4,5
 180 748 180 748 155 778 c 128,-1,6
 130 808 130 808 54 816 c 1,7,8
 46 824 46 824 46 848 c 128,-1,9
 46 872 46 872 54 882 c 1,10,11
 194 878 194 878 262 878 c 0,12,13
 314 878 314 878 334 882 c 1,14,15
 350 882 350 882 350 870 c 0,16,17
 342 720 342 720 342 660 c 2,18,-1
 342 286 l 2,19,20
 342 166 342 166 392 121 c 128,-1,21
 442 76 442 76 506 76 c 0,22,23
 598 76 598 76 710 174 c 0,24,25
 742 202 742 202 744 254 c 2,26,-1
 744 650 l 2,27,28
 744 748 744 748 719 780 c 128,-1,29
 694 812 694 812 616 816 c 1,30,31
 606 824 606 824 606 848 c 128,-1,32
 606 872 606 872 616 882 c 1,33,34
 756 878 756 878 826 878 c 0,35,36
 878 878 878 878 898 882 c 1,37,38
 914 882 914 882 914 870 c 0,39,40
 906 720 906 720 906 660 c 2,41,-1
 906 266 l 2,42,43
 906 186 906 186 933 155 c 128,-1,44
 960 124 960 124 1054 116 c 1,45,46
 1064 106 1064 106 1064 88 c 128,-1,47
 1064 70 1064 70 1054 62 c 1,48,49
 890 44 890 44 814 -20 c 1,50,51
 796 -28 796 -28 774 -20 c 1,52,53
 756 50 756 50 752 100 c 0,54,55
 750 110 750 110 740 109 c 128,-1,56
 730 108 730 108 720 102 c 0,57,58
 570 -20 570 -20 444 -20 c 0,0,1
EndSplineSet
Substitution2: "'sups' Superscript lookup 9 subtable" u.superior
Substitution2: "'sinf' Scientific Inferiors lookup 10 subtable" u.inferior
Substitution2: "'smcp' Lowercase to Small Capitals lookup 4 subtable" u.sc
AlternateSubs2: "'aalt' Access All Alternates lookup 0 subtable" u.sc
EndChar

StartChar: v
Encoding: 118 118 87
Width: 1016
GlyphClass: 2
Flags: W
AnchorPoint: "Anchor-6" 494 -226 basechar 0
AnchorPoint: "Anchor-3" 506 546 basechar 0
AnchorPoint: "Anchor-2" 524 1324 basechar 0
AnchorPoint: "Anchor-0" 942 1188 basechar 0
LayerCount: 2
Fore
SplineSet
666 816 m 1,0,1
 656 824 656 824 656 849 c 128,-1,2
 656 874 656 874 666 882 c 1,3,4
 768 878 768 878 854 878 c 0,5,6
 916 878 916 878 998 882 c 1,7,8
 1008 874 1008 874 1008 850 c 128,-1,9
 1008 826 1008 826 998 816 c 1,10,11
 920 810 920 810 888 777 c 128,-1,12
 856 744 856 744 822 664 c 2,13,-1
 548 22 l 2,14,15
 528 -26 528 -26 500 -24 c 0,16,17
 466 -24 466 -24 448 18 c 2,18,-1
 186 666 l 2,19,20
 154 752 154 752 126 779 c 128,-1,21
 98 806 98 806 22 816 c 1,22,23
 12 824 12 824 12 848 c 128,-1,24
 12 872 12 872 22 882 c 1,25,26
 144 878 144 878 212 878 c 0,27,28
 284 878 284 878 420 882 c 1,29,30
 428 872 428 872 428 848 c 128,-1,31
 428 824 428 824 420 816 c 1,32,33
 342 806 342 806 333 779 c 128,-1,34
 324 752 324 752 356 678 c 1,35,-1
 504 282 l 2,36,37
 514 256 514 256 521 242 c 128,-1,38
 528 228 528 228 534 220 c 128,-1,39
 540 212 540 212 548 219 c 128,-1,40
 556 226 556 226 563 238 c 128,-1,41
 570 250 570 250 580 276 c 2,42,-1
 746 678 l 2,43,44
 778 756 778 756 763 783 c 128,-1,45
 748 810 748 810 666 816 c 1,0,1
EndSplineSet
Substitution2: "'sups' Superscript lookup 9 subtable" v.superior
Substitution2: "'sinf' Scientific Inferiors lookup 10 subtable" v.inferior
Substitution2: "'smcp' Lowercase to Small Capitals lookup 4 subtable" v.sc
AlternateSubs2: "'aalt' Access All Alternates lookup 0 subtable" v.sc
Position2: "'rtbd' Right Bounds lookup 4 subtable" dx=0 dy=0 dh=-58 dv=0
EndChar

StartChar: w
Encoding: 119 119 88
Width: 1528
GlyphClass: 2
Flags: W
AnchorPoint: "Anchor-6" 720 -226 basechar 0
AnchorPoint: "Anchor-2" 706 1324 basechar 0
AnchorPoint: "Anchor-0" 1472 1188 basechar 0
LayerCount: 2
Fore
SplineSet
416 816 m 1,0,1
 344 812 344 812 333 782 c 128,-1,2
 322 752 322 752 354 678 c 1,3,-1
 518 256 l 2,4,5
 532 222 532 222 539 213 c 128,-1,6
 546 204 546 204 554 214 c 128,-1,7
 562 224 562 224 576 260 c 2,8,-1
 718 622 l 1,9,-1
 706 656 l 1,10,11
 688 700 688 700 678 720 c 128,-1,12
 668 740 668 740 650 765 c 128,-1,13
 632 790 632 790 608 801 c 128,-1,14
 584 812 584 812 548 816 c 1,15,16
 540 824 540 824 540 848 c 128,-1,17
 540 872 540 872 548 882 c 1,18,19
 670 878 670 878 730 878 c 0,20,21
 812 878 812 878 934 882 c 1,22,23
 944 872 944 872 944 848 c 128,-1,24
 944 824 944 824 934 816 c 1,25,26
 854 810 854 810 842 786 c 128,-1,27
 830 762 830 762 860 690 c 1,28,-1
 1036 242 l 2,29,30
 1048 210 1048 210 1058 210 c 128,-1,31
 1068 210 1068 210 1082 250 c 2,32,-1
 1254 676 l 2,33,34
 1266 710 1266 710 1270 728 c 128,-1,35
 1274 746 1274 746 1269 768 c 128,-1,36
 1264 790 1264 790 1234 802 c 128,-1,37
 1204 814 1204 814 1148 816 c 1,38,39
 1138 824 1138 824 1138 848 c 128,-1,40
 1138 872 1138 872 1148 882 c 1,41,42
 1270 878 1270 878 1358 878 c 0,43,44
 1424 878 1424 878 1506 882 c 1,45,46
 1516 872 1516 872 1516 848 c 128,-1,47
 1516 824 1516 824 1506 816 c 1,48,49
 1434 812 1434 812 1398 776 c 128,-1,50
 1362 740 1362 740 1334 668 c 2,51,-1
 1064 18 l 2,52,53
 1048 -26 1048 -26 1018 -25 c 128,-1,54
 988 -24 988 -24 968 16 c 2,55,-1
 758 524 l 1,56,-1
 550 20 l 2,57,58
 530 -26 530 -26 502 -24 c 0,59,60
 472 -24 472 -24 452 16 c 2,61,-1
 184 678 l 2,62,63
 152 758 152 758 123 782 c 128,-1,64
 94 806 94 806 22 816 c 1,65,66
 12 824 12 824 12 848 c 128,-1,67
 12 872 12 872 22 882 c 1,68,69
 128 878 128 878 208 878 c 0,70,71
 292 878 292 878 416 882 c 1,72,73
 426 872 426 872 426 848 c 128,-1,74
 426 824 426 824 416 816 c 1,0,1
EndSplineSet
Substitution2: "'sups' Superscript lookup 9 subtable" w.superior
Substitution2: "'sinf' Scientific Inferiors lookup 10 subtable" w.inferior
Substitution2: "'smcp' Lowercase to Small Capitals lookup 4 subtable" w.sc
AlternateSubs2: "'aalt' Access All Alternates lookup 0 subtable" w.sc
EndChar

StartChar: x
Encoding: 120 120 89
Width: 1002
GlyphClass: 2
Flags: W
AnchorPoint: "Anchor-6" 458 -226 basechar 0
AnchorPoint: "Anchor-5" 192 16 basechar 0
AnchorPoint: "Anchor-3" 486 440 basechar 0
AnchorPoint: "Anchor-2" 524 1324 basechar 0
AnchorPoint: "Anchor-0" 960 1188 basechar 0
LayerCount: 2
Fore
SplineSet
372 734 m 1,0,-1
 498 548 l 2,1,2
 510 532 510 532 518 531 c 128,-1,3
 526 530 526 530 536 544 c 2,4,-1
 670 732 l 2,5,6
 694 766 694 766 694 782 c 128,-1,7
 694 798 694 798 679 805 c 128,-1,8
 664 812 664 812 620 816 c 1,9,10
 612 826 612 826 612 850 c 128,-1,11
 612 874 612 874 620 882 c 1,12,13
 726 878 726 878 792 878 c 0,14,15
 860 878 860 878 942 882 c 1,16,17
 952 874 952 874 952 850 c 128,-1,18
 952 826 952 826 942 816 c 1,19,20
 878 810 878 810 837 789 c 128,-1,21
 796 768 796 768 744 702 c 2,22,-1
 572 484 l 2,23,24
 560 470 560 470 572 452 c 2,25,-1
 756 192 l 2,26,27
 816 110 816 110 850 89 c 128,-1,28
 884 68 884 68 960 64 c 1,29,30
 970 56 970 56 970 31 c 128,-1,31
 970 6 970 6 960 -4 c 1,32,33
 862 0 862 0 778 0 c 0,34,35
 698 0 698 0 576 -4 c 1,36,37
 568 6 568 6 568 31 c 128,-1,38
 568 56 568 56 576 64 c 1,39,40
 606 68 606 68 618 71 c 128,-1,41
 630 74 630 74 639 84 c 128,-1,42
 648 94 648 94 638 115 c 128,-1,43
 628 136 628 136 602 172 c 2,44,-1
 484 336 l 2,45,46
 476 350 476 350 467 350 c 128,-1,47
 458 350 458 350 446 332 c 2,48,-1
 318 146 l 1,49,50
 288 94 288 94 296 82 c 128,-1,51
 304 70 304 70 362 64 c 1,52,53
 372 54 372 54 372 29 c 128,-1,54
 372 4 372 4 362 -4 c 1,55,56
 256 0 256 0 190 0 c 128,-1,57
 124 0 124 0 44 -4 c 1,58,59
 36 4 36 4 35 29 c 128,-1,60
 34 54 34 54 44 64 c 1,61,62
 108 68 108 68 147 87 c 128,-1,63
 186 106 186 106 242 178 c 2,64,-1
 414 400 l 2,65,66
 424 412 424 412 412 430 c 2,67,-1
 234 690 l 2,68,69
 154 804 154 804 50 816 c 1,70,71
 42 824 42 824 41 848 c 128,-1,72
 40 872 40 872 50 882 c 1,73,74
 156 878 156 878 226 878 c 0,75,76
 322 878 322 878 432 882 c 1,77,78
 442 872 442 872 442 848 c 128,-1,79
 442 824 442 824 432 816 c 1,80,81
 360 808 360 808 350 798 c 128,-1,82
 340 788 340 788 372 734 c 1,0,-1
EndSplineSet
Substitution2: "'sups' Superscript lookup 9 subtable" x.superior
Substitution2: "'sinf' Scientific Inferiors lookup 10 subtable" x.inferior
Substitution2: "'smcp' Lowercase to Small Capitals lookup 4 subtable" x.sc
AlternateSubs2: "'aalt' Access All Alternates lookup 0 subtable" x.sc
EndChar

StartChar: y
Encoding: 121 121 90
Width: 1054
GlyphClass: 2
Flags: W
AnchorPoint: "Anchor-6" 496 -654 basechar 0
AnchorPoint: "Anchor-2" 536 1320 basechar 0
LayerCount: 2
Fore
SplineSet
418 -328 m 0,0,1
 334 -476 334 -476 220 -476 c 0,2,3
 180 -476 180 -476 151 -454 c 128,-1,4
 122 -432 122 -432 122 -400 c 0,5,6
 122 -374 122 -374 148 -343 c 128,-1,7
 174 -312 174 -312 212 -312 c 0,8,9
 222 -312 222 -312 240 -315 c 128,-1,10
 258 -318 258 -318 272 -318 c 0,11,12
 342 -318 342 -318 374 -258 c 1,13,14
 424 -158 424 -158 454 -70 c 0,15,16
 478 0 478 0 426 122 c 2,17,-1
 194 662 l 2,18,19
 156 754 156 754 126 780 c 128,-1,20
 96 806 96 806 32 816 c 1,21,22
 22 824 22 824 22 848 c 128,-1,23
 22 872 22 872 32 882 c 1,24,25
 114 878 114 878 198 878 c 0,26,27
 278 878 278 878 430 882 c 1,28,29
 438 872 438 872 438 848 c 128,-1,30
 438 824 438 824 430 816 c 1,31,32
 350 810 350 810 340 778 c 128,-1,33
 330 746 330 746 362 682 c 1,34,-1
 544 256 l 2,35,36
 568 198 568 198 594 254 c 2,37,-1
 796 722 l 2,38,39
 818 772 818 772 789 790 c 128,-1,40
 760 808 760 808 698 816 c 1,41,42
 688 824 688 824 688 848 c 128,-1,43
 688 872 688 872 698 882 c 1,44,45
 820 878 820 878 884 878 c 128,-1,46
 948 878 948 878 1030 882 c 1,47,48
 1038 872 1038 872 1038 848 c 128,-1,49
 1038 824 1038 824 1030 816 c 1,50,51
 982 810 982 810 953 794 c 128,-1,52
 924 778 924 778 905 755 c 128,-1,53
 886 732 886 732 864 684 c 0,54,55
 714 360 714 360 502 -152 c 0,56,57
 458 -254 458 -254 418 -328 c 0,0,1
EndSplineSet
Substitution2: "'sups' Superscript lookup 9 subtable" y.superior
Substitution2: "'sinf' Scientific Inferiors lookup 10 subtable" y.inferior
Substitution2: "'smcp' Lowercase to Small Capitals lookup 4 subtable" y.sc
AlternateSubs2: "'aalt' Access All Alternates lookup 0 subtable" y.sc
EndChar

StartChar: z
Encoding: 122 122 91
Width: 868
GlyphClass: 2
Flags: W
AnchorPoint: "Anchor-6" 424 -226 basechar 0
AnchorPoint: "Anchor-5" 426 8 basechar 0
AnchorPoint: "Anchor-3" 424 440 basechar 0
AnchorPoint: "Anchor-2" 450 1324 basechar 0
AnchorPoint: "Anchor-0" 818 1188 basechar 0
LayerCount: 2
Fore
SplineSet
146 900 m 1,0,1
 202 880 202 880 266 878 c 2,2,-1
 642 878 l 2,3,4
 668 878 668 878 696 879 c 128,-1,5
 724 880 724 880 745 881 c 128,-1,6
 766 882 766 882 768 882 c 0,7,8
 792 882 792 882 792 868 c 256,9,10
 792 854 792 854 756 792 c 0,11,12
 652 620 652 620 511 412 c 128,-1,13
 370 204 370 204 264 70 c 1,14,-1
 536 70 l 1,15,16
 612 72 612 72 654 106 c 128,-1,17
 696 140 696 140 738 226 c 2,18,-1
 766 284 l 1,19,20
 804 284 804 284 828 272 c 1,21,22
 806 118 806 118 762 -6 c 1,23,-1
 122 0 l 2,24,25
 74 0 74 0 76 24 c 0,26,27
 76 40 76 40 94 66 c 0,28,29
 402 478 402 478 598 808 c 1,30,-1
 336 802 l 2,31,32
 222 800 222 800 170 616 c 1,33,34
 136 608 136 608 102 622 c 1,35,36
 130 776 130 776 134 886 c 0,37,38
 134 900 134 900 146 900 c 1,0,1
EndSplineSet
Substitution2: "'sups' Superscript lookup 9 subtable" z.superior
Substitution2: "'sinf' Scientific Inferiors lookup 10 subtable" z.inferior
Substitution2: "'smcp' Lowercase to Small Capitals lookup 4 subtable" z.sc
AlternateSubs2: "'aalt' Access All Alternates lookup 0 subtable" z.sc
EndChar

StartChar: braceleft
Encoding: 123 123 92
Width: 566
GlyphClass: 2
Flags: W
GlyphCompositionVertical: 5  uni23A9%0,0,282,884 uni23AA%1,882,882,884 uni23A8%0,118,118,1830 uni23AA%1,882,882,884 uni23A7%0,282,0,884
LayerCount: 2
Fore
SplineSet
364 1130 m 2,0,-1
 380 790 l 2,1,2
 386 664 386 664 333 603 c 128,-1,3
 280 542 280 542 166 510 c 1,4,-1
 166 502 l 1,5,6
 278 454 278 454 333 384 c 128,-1,7
 388 314 388 314 380 194 c 2,8,-1
 364 -110 l 2,9,10
 358 -232 358 -232 407 -309 c 128,-1,11
 456 -386 456 -386 528 -386 c 1,12,13
 536 -394 536 -394 536 -410 c 128,-1,14
 536 -426 536 -426 528 -434 c 1,15,16
 362 -434 362 -434 285 -362 c 128,-1,17
 208 -290 208 -290 218 -100 c 2,18,-1
 230 248 l 2,19,20
 236 456 236 456 28 482 c 1,21,22
 4 506 4 506 28 530 c 1,23,24
 132 540 132 540 181 605 c 128,-1,25
 230 670 230 670 230 758 c 1,26,-1
 218 1134 l 2,27,28
 208 1448 208 1448 528 1448 c 1,29,30
 536 1438 536 1438 536 1424 c 128,-1,31
 536 1410 536 1410 528 1398 c 1,32,33
 492 1388 492 1388 468 1376 c 128,-1,34
 444 1364 444 1364 415 1336 c 128,-1,35
 386 1308 386 1308 373 1257 c 128,-1,36
 360 1206 360 1206 364 1130 c 2,0,-1
EndSplineSet
EndChar

StartChar: bar
Encoding: 124 124 93
Width: 418
GlyphClass: 2
Flags: W
LayerCount: 2
Fore
SplineSet
256 -476 m 1,0,-1
 166 -476 l 1,1,-1
 166 1430 l 1,2,-1
 256 1430 l 1,3,-1
 256 -476 l 1,0,-1
EndSplineSet
EndChar

StartChar: braceright
Encoding: 125 125 94
Width: 566
GlyphClass: 2
Flags: W
LayerCount: 2
Fore
SplineSet
194 -118 m 2,0,-1
 178 222 l 2,1,2
 172 348 172 348 225 408 c 128,-1,3
 278 468 278 468 394 502 c 1,4,-1
 394 510 l 1,5,6
 320 540 320 540 273 577 c 128,-1,7
 226 614 226 614 200 675 c 128,-1,8
 174 736 174 736 178 818 c 2,9,-1
 194 1122 l 2,10,11
 200 1244 200 1244 151 1320 c 128,-1,12
 102 1396 102 1396 30 1396 c 1,13,14
 20 1404 20 1404 20 1421 c 128,-1,15
 20 1438 20 1438 30 1446 c 1,16,17
 196 1446 196 1446 273 1374 c 128,-1,18
 350 1302 350 1302 342 1112 c 2,19,-1
 330 764 l 2,20,21
 324 556 324 556 530 530 c 1,22,23
 554 506 554 506 530 482 c 1,24,25
 426 472 426 472 378 407 c 128,-1,26
 330 342 330 342 330 254 c 1,27,-1
 342 -122 l 2,28,29
 352 -436 352 -436 30 -436 c 1,30,31
 20 -426 20 -426 20 -412 c 128,-1,32
 20 -398 20 -398 30 -388 c 1,33,34
 66 -378 66 -378 90 -365 c 128,-1,35
 114 -352 114 -352 144 -324 c 128,-1,36
 174 -296 174 -296 186 -245 c 128,-1,37
 198 -194 198 -194 194 -118 c 2,0,-1
EndSplineSet
EndChar

StartChar: asciitilde
Encoding: 126 126 95
Width: 918
GlyphClass: 2
Flags: W
LayerCount: 2
Fore
SplineSet
54 428 m 1,0,1
 74 532 74 532 150 611 c 128,-1,2
 226 690 226 690 316 690 c 0,3,4
 382 690 382 690 468 624 c 0,5,6
 560 556 560 556 616 558 c 0,7,8
 670 558 670 558 729 591 c 128,-1,9
 788 624 788 624 820 694 c 1,10,11
 844 694 844 694 854 682 c 1,12,13
 826 582 826 582 772 522 c 128,-1,14
 718 462 718 462 681 449 c 128,-1,15
 644 436 644 436 608 436 c 0,16,17
 542 436 542 436 452 504 c 0,18,19
 364 570 364 570 304 570 c 0,20,21
 248 570 248 570 185 528 c 128,-1,22
 122 486 122 486 88 420 c 1,23,24
 70 420 70 420 54 428 c 1,0,1
EndSplineSet
EndChar

StartChar: sterling
Encoding: 163 163 97
Width: 952
GlyphClass: 2
Flags: W
LayerCount: 2
Fore
SplineSet
152 614 m 2,0,1
 140 614 140 614 140 628 c 2,2,-1
 140 652 l 2,3,4
 140 668 140 668 152 681 c 128,-1,5
 164 694 164 694 188 694 c 2,6,-1
 280 694 l 1,7,-1
 280 736 l 2,8,9
 280 862 280 862 320 953 c 128,-1,10
 360 1044 360 1044 448 1130 c 1,11,12
 564 1250 564 1250 720 1252 c 0,13,14
 770 1252 770 1252 827 1226 c 128,-1,15
 884 1200 884 1200 884 1150 c 0,16,17
 884 1112 884 1112 861 1090 c 128,-1,18
 838 1068 838 1068 800 1068 c 0,19,20
 770 1068 770 1068 728 1106 c 0,21,22
 676 1154 676 1154 624 1154 c 0,23,24
 552 1154 552 1154 503 1063 c 128,-1,25
 454 972 454 972 454 840 c 2,26,-1
 454 694 l 1,27,-1
 708 694 l 2,28,29
 724 694 724 694 724 682 c 2,30,-1
 724 642 l 2,31,32
 724 616 724 616 676 614 c 2,33,-1
 454 614 l 1,34,35
 452 328 452 328 302 186 c 1,36,37
 388 186 388 186 447 171 c 128,-1,38
 506 156 506 156 531 138 c 128,-1,39
 556 120 556 120 592 105 c 128,-1,40
 628 90 628 90 674 90 c 0,41,42
 820 90 820 90 884 180 c 1,43,44
 910 176 910 176 922 158 c 1,45,46
 884 76 884 76 810 27 c 128,-1,47
 736 -22 736 -22 636 -22 c 0,48,49
 544 -22 544 -22 452 39 c 128,-1,50
 360 100 360 100 270 100 c 0,51,52
 188 100 188 100 188 50 c 0,53,54
 188 16 188 16 165 -3 c 128,-1,55
 142 -22 142 -22 106 -22 c 0,56,57
 76 -22 76 -22 54 -6 c 128,-1,58
 32 10 32 10 32 34 c 0,59,60
 32 80 32 80 138 138 c 1,61,62
 222 200 222 200 251 308 c 128,-1,63
 280 416 280 416 280 576 c 2,64,-1
 280 614 l 1,65,-1
 152 614 l 2,0,1
EndSplineSet
EndChar

StartChar: section
Encoding: 167 167 98
Width: 968
GlyphClass: 2
Flags: W
LayerCount: 2
Fore
SplineSet
256 850 m 1,0,1
 164 942 164 942 164 1078 c 0,2,3
 164 1186 164 1186 249 1267 c 128,-1,4
 334 1348 334 1348 484 1348 c 0,5,6
 620 1348 620 1348 694 1280 c 128,-1,7
 768 1212 768 1212 768 1140 c 0,8,9
 768 1062 768 1062 694 1062 c 0,10,11
 632 1062 632 1062 610 1146 c 0,12,13
 592 1214 592 1214 562 1249 c 128,-1,14
 532 1284 532 1284 472 1284 c 0,15,16
 400 1284 400 1284 353 1237 c 128,-1,17
 306 1190 306 1190 306 1118 c 0,18,19
 306 1044 306 1044 350 986 c 128,-1,20
 394 928 394 928 492 874 c 0,21,22
 504 868 504 868 540 849 c 128,-1,23
 576 830 576 830 591 822 c 128,-1,24
 606 814 606 814 641 794 c 128,-1,25
 676 774 676 774 692 761 c 128,-1,26
 708 748 708 748 737 725 c 128,-1,27
 766 702 766 702 780 683 c 128,-1,28
 794 664 794 664 814 636 c 128,-1,29
 834 608 834 608 843 580 c 128,-1,30
 852 552 852 552 859 519 c 128,-1,31
 866 486 866 486 866 448 c 0,32,33
 866 268 866 268 712 146 c 1,34,35
 804 54 804 54 804 -82 c 0,36,37
 804 -190 804 -190 719 -271 c 128,-1,38
 634 -352 634 -352 486 -352 c 0,39,40
 350 -352 350 -352 275 -285 c 128,-1,41
 200 -218 200 -218 200 -146 c 0,42,43
 200 -68 200 -68 274 -68 c 0,44,45
 336 -68 336 -68 358 -152 c 0,46,47
 376 -220 376 -220 406 -254 c 128,-1,48
 436 -288 436 -288 498 -288 c 0,49,50
 570 -288 570 -288 617 -241 c 128,-1,51
 664 -194 664 -194 664 -122 c 0,52,53
 664 -48 664 -48 620 10 c 128,-1,54
 576 68 576 68 478 120 c 0,55,56
 466 126 466 126 430 146 c 128,-1,57
 394 166 394 166 378 174 c 128,-1,58
 362 182 362 182 327 202 c 128,-1,59
 292 222 292 222 276 235 c 128,-1,60
 260 248 260 248 231 270 c 128,-1,61
 202 292 202 292 188 312 c 128,-1,62
 174 332 174 332 155 360 c 128,-1,63
 136 388 136 388 126 415 c 128,-1,64
 116 442 116 442 109 476 c 128,-1,65
 102 510 102 510 102 546 c 0,66,67
 102 728 102 728 256 850 c 1,0,1
670 184 m 1,68,69
 756 260 756 260 756 350 c 0,70,71
 756 508 756 508 594 620 c 0,72,73
 558 646 558 646 454 706 c 0,74,75
 358 762 358 762 300 812 c 1,76,77
 214 734 214 734 212 646 c 0,78,79
 212 590 212 590 233 542 c 128,-1,80
 254 494 254 494 274 464 c 128,-1,81
 294 434 294 434 347 395 c 128,-1,82
 400 356 400 356 423 342 c 128,-1,83
 446 328 446 328 514 288 c 0,84,85
 610 234 610 234 670 184 c 1,68,69
EndSplineSet
EndChar

StartChar: copyright
Encoding: 169 169 99
Width: 1422
GlyphClass: 2
Flags: W
LayerCount: 2
Fore
SplineSet
900 442 m 1,0,1
 866 388 866 388 801 350 c 128,-1,2
 736 312 736 312 658 312 c 0,3,4
 536 312 536 312 448 382 c 0,5,6
 338 474 338 474 338 622 c 0,7,8
 338 746 338 746 412 832 c 0,9,10
 506 936 506 936 662 936 c 0,11,12
 726 936 726 936 770 930 c 128,-1,13
 814 924 814 924 841 916 c 128,-1,14
 868 908 868 908 880 906 c 1,15,16
 884 832 884 832 880 736 c 1,17,18
 866 728 866 728 840 728 c 1,19,20
 828 760 828 760 818 780 c 128,-1,21
 808 800 808 800 793 823 c 128,-1,22
 778 846 778 846 760 859 c 128,-1,23
 742 872 742 872 715 880 c 128,-1,24
 688 888 688 888 654 888 c 0,25,26
 622 888 622 888 592 877 c 128,-1,27
 562 866 562 866 534 840 c 128,-1,28
 506 814 506 814 491 761 c 128,-1,29
 476 708 476 708 476 636 c 0,30,31
 476 524 476 524 533 447 c 128,-1,32
 590 370 590 370 676 370 c 0,33,34
 790 370 790 370 860 474 c 1,35,36
 882 466 882 466 900 442 c 1,0,1
658 48 m 0,37,38
 416 48 416 48 243 219 c 128,-1,39
 70 390 70 390 70 626 c 0,40,41
 70 784 70 784 150 917 c 128,-1,42
 230 1050 230 1050 365 1127 c 128,-1,43
 500 1204 500 1204 658 1204 c 0,44,45
 898 1204 898 1204 1072 1035 c 128,-1,46
 1246 866 1246 866 1246 627 c 128,-1,47
 1246 388 1246 388 1072 218 c 128,-1,48
 898 48 898 48 658 48 c 0,37,38
658 1138 m 0,49,50
 442 1138 442 1138 297 990 c 128,-1,51
 152 842 152 842 152 626 c 0,52,53
 152 414 152 414 298 263 c 128,-1,54
 444 112 444 112 658 112 c 0,55,56
 868 112 868 112 1016 263 c 128,-1,57
 1164 414 1164 414 1164 626 c 0,58,59
 1164 730 1164 730 1125 826 c 128,-1,60
 1086 922 1086 922 1018 990 c 128,-1,61
 950 1058 950 1058 856 1098 c 128,-1,62
 762 1138 762 1138 658 1138 c 0,49,50
EndSplineSet
EndChar

StartChar: guillemotleft
Encoding: 171 171 100
Width: 1112
GlyphClass: 2
Flags: W
LayerCount: 2
Fore
SplineSet
320 440 m 1,0,1
 440 302 440 302 580 92 c 1,2,3
 572 58 572 58 530 54 c 1,4,5
 322 280 322 280 152 428 c 1,6,-1
 152 452 l 1,7,8
 322 602 322 602 530 828 c 1,9,10
 570 824 570 824 580 788 c 1,11,12
 440 578 440 578 320 440 c 1,0,1
688 440 m 1,13,14
 808 302 808 302 948 92 c 1,15,16
 940 58 940 58 900 54 c 1,17,18
 692 280 692 280 520 428 c 1,19,-1
 520 452 l 1,20,21
 690 602 690 602 900 828 c 1,22,23
 940 824 940 824 948 788 c 1,24,25
 808 578 808 578 688 440 c 1,13,14
EndSplineSet
Substitution2: "'case' Case-Sensitive Forms lookup 27 subtable" guillemotleft.sc
EndChar

StartChar: uni00AD
Encoding: 173 173 101
Width: 692
GlyphClass: 2
Flags: W
LayerCount: 2
Fore
SplineSet
556 456 m 2,0,-1
 112 456 l 2,1,2
 82 456 82 456 82 496 c 0,3,4
 82 524 82 524 98 552 c 128,-1,5
 114 580 114 580 134 580 c 2,6,-1
 582 580 l 2,7,8
 610 580 610 580 610 538 c 0,9,10
 610 518 610 518 592 487 c 128,-1,11
 574 456 574 456 556 456 c 2,0,-1
EndSplineSet
EndChar

StartChar: macron
Encoding: 175 175 102
Width: 812
GlyphClass: 2
Flags: W
LayerCount: 2
Fore
SplineSet
646 1084 m 2,0,-1
 146 1084 l 2,1,2
 122 1084 122 1084 120 1114 c 0,3,4
 120 1134 120 1134 134 1154 c 128,-1,5
 148 1174 148 1174 166 1174 c 2,6,-1
 666 1174 l 2,7,8
 694 1174 694 1174 694 1144 c 0,9,10
 694 1124 694 1124 679 1104 c 128,-1,11
 664 1084 664 1084 646 1084 c 2,0,-1
EndSplineSet
EndChar

StartChar: degree
Encoding: 176 176 103
Width: 546
GlyphClass: 2
Flags: W
LayerCount: 2
Fore
SplineSet
408 1040 m 0,0,1
 408 1098 408 1098 373 1143 c 128,-1,2
 338 1188 338 1188 274 1188 c 128,-1,3
 210 1188 210 1188 175 1144 c 128,-1,4
 140 1100 140 1100 140 1040 c 0,5,6
 140 982 140 982 176 941 c 128,-1,7
 212 900 212 900 274 900 c 0,8,9
 334 900 334 900 371 942 c 128,-1,10
 408 984 408 984 408 1040 c 0,0,1
70 1042 m 0,11,12
 70 1128 70 1128 130 1189 c 128,-1,13
 190 1250 190 1250 274 1250 c 128,-1,14
 358 1250 358 1250 418 1189 c 128,-1,15
 478 1128 478 1128 478 1042 c 0,16,17
 478 958 478 958 418 898 c 128,-1,18
 358 838 358 838 274 838 c 128,-1,19
 190 838 190 838 130 898 c 128,-1,20
 70 958 70 958 70 1042 c 0,11,12
EndSplineSet
EndChar

StartChar: acute
Encoding: 180 180 104
Width: 698
GlyphClass: 2
Flags: W
LayerCount: 2
Fore
SplineSet
358 1440 m 1,0,1
 370 1444 370 1444 388 1444 c 0,2,3
 452 1444 452 1444 500 1396 c 1,4,-1
 506 1374 l 1,5,-1
 270 1150 l 2,6,7
 232 1112 232 1112 208 1112 c 0,8,9
 198 1112 198 1112 189 1120 c 128,-1,10
 180 1128 180 1128 180 1138 c 0,11,12
 180 1158 180 1158 202 1196 c 2,13,-1
 358 1440 l 1,0,1
EndSplineSet
EndChar

StartChar: periodcentered
Encoding: 183 183 105
Width: 512
GlyphClass: 2
Flags: W
LayerCount: 2
Fore
SplineSet
256 408 m 128,-1,1
 212 408 212 408 179 442 c 128,-1,2
 146 476 146 476 146 519 c 128,-1,3
 146 562 146 562 179 595 c 128,-1,4
 212 628 212 628 256 628 c 128,-1,5
 300 628 300 628 333 595 c 128,-1,6
 366 562 366 562 366 519 c 128,-1,7
 366 476 366 476 333 442 c 128,-1,0
 300 408 300 408 256 408 c 128,-1,1
EndSplineSet
EndChar

StartChar: guillemotright
Encoding: 187 187 106
Width: 1112
GlyphClass: 2
Flags: W
LayerCount: 2
Fore
SplineSet
792 440 m 1,0,1
 672 578 672 578 532 788 c 1,2,3
 540 822 540 822 582 828 c 1,4,5
 790 602 790 602 960 452 c 1,6,-1
 960 428 l 1,7,8
 790 278 790 278 582 54 c 1,9,10
 542 58 542 58 532 92 c 1,11,12
 672 302 672 302 792 440 c 1,0,1
424 440 m 1,13,14
 304 578 304 578 164 788 c 1,15,16
 172 822 172 822 212 828 c 1,17,18
 420 602 420 602 592 452 c 1,19,-1
 592 428 l 1,20,21
 422 278 422 278 212 54 c 1,22,23
 172 58 172 58 164 92 c 1,24,25
 304 302 304 302 424 440 c 1,13,14
EndSplineSet
Substitution2: "'case' Case-Sensitive Forms lookup 27 subtable" guillemotright.sc
EndChar

StartChar: onequarter
Encoding: 188 188 107
Width: 1350
GlyphClass: 3
LigCaretCntFixed: 1
Flags: W
LayerCount: 2
Fore
SplineSet
1140 1230 m 1,0,-1
 1224 1214 l 1,1,-1
 286 -126 l 1,2,-1
 200 -110 l 1,3,-1
 1140 1230 l 1,0,-1
1082 394 m 1,4,5
 1044 344 1044 344 998 284 c 128,-1,6
 952 224 952 224 919 173 c 128,-1,7
 886 122 886 122 880 106 c 1,8,-1
 1082 106 l 1,9,-1
 1082 394 l 1,4,5
1082 -12 m 2,10,-1
 1082 36 l 1,11,-1
 838 36 l 2,12,13
 780 36 780 36 798 94 c 1,14,15
 804 106 804 106 820 130 c 0,16,17
 892 248 892 248 1048 430 c 0,18,19
 1082 470 1082 470 1122 494 c 0,20,21
 1124 496 1124 496 1148 496 c 0,22,23
 1186 496 1186 496 1188 476 c 2,24,-1
 1188 106 l 1,25,-1
 1302 106 l 1,26,-1
 1290 36 l 1,27,-1
 1188 36 l 1,28,-1
 1188 -12 l 2,29,30
 1188 -70 1188 -70 1210 -86 c 128,-1,31
 1232 -102 1232 -102 1292 -106 c 1,32,33
 1308 -136 1308 -136 1292 -166 c 1,34,35
 1230 -164 1230 -164 1132 -164 c 128,-1,36
 1034 -164 1034 -164 972 -166 c 1,37,38
 954 -138 954 -138 972 -106 c 1,39,40
 1038 -102 1038 -102 1060 -87 c 128,-1,41
 1082 -72 1082 -72 1082 -12 c 2,10,-1
270 1170 m 0,42,43
 240 1170 240 1170 154 1138 c 1,44,45
 134 1154 134 1154 134 1194 c 1,46,47
 264 1242 264 1242 372 1308 c 0,48,49
 394 1320 394 1320 410 1308 c 1,50,-1
 410 820 l 2,51,52
 410 782 410 782 417 759 c 128,-1,53
 424 736 424 736 441 724 c 128,-1,54
 458 712 458 712 475 709 c 128,-1,55
 492 706 492 706 522 704 c 1,56,57
 538 674 538 674 522 646 c 1,58,59
 460 648 460 648 350 648 c 0,60,61
 214 648 214 648 154 646 c 1,62,63
 136 674 136 674 154 704 c 1,64,65
 206 706 206 706 231 712 c 128,-1,66
 256 718 256 718 278 744 c 128,-1,67
 300 770 300 770 300 820 c 2,68,-1
 300 1086 l 2,69,70
 300 1138 300 1138 294 1154 c 128,-1,71
 288 1170 288 1170 270 1170 c 0,42,43
EndSplineSet
Ligature2: "'frac' Diagonal Fractions lookup 8 subtable" one slash four
Ligature2: "'frac' Diagonal Fractions lookup 6 subtable" one slash four
LCarets2: 2 440 868 
EndChar

StartChar: onehalf
Encoding: 189 189 108
Width: 1350
GlyphClass: 3
LigCaretCntFixed: 1
Flags: W
LayerCount: 2
Fore
SplineSet
1090 1230 m 1,0,-1
 1176 1214 l 1,1,-1
 236 -126 l 1,2,-1
 152 -110 l 1,3,-1
 1090 1230 l 1,0,-1
882 294 m 0,4,5
 864 294 864 294 847 310 c 128,-1,6
 830 326 830 326 830 344 c 0,7,8
 830 398 830 398 885 450 c 128,-1,9
 940 502 940 502 1048 502 c 0,10,11
 1138 502 1138 502 1204 462 c 128,-1,12
 1270 422 1270 422 1270 332 c 0,13,14
 1270 266 1270 266 1226 211 c 128,-1,15
 1182 156 1182 156 1088 88 c 0,16,17
 984 12 984 12 952 -96 c 1,18,-1
 1122 -96 l 2,19,20
 1144 -96 1144 -96 1163 -85 c 128,-1,21
 1182 -74 1182 -74 1196 -47 c 128,-1,22
 1210 -20 1210 -20 1217 -6 c 128,-1,23
 1224 8 1224 8 1236 40 c 1,24,25
 1268 40 1268 40 1286 30 c 1,26,27
 1272 -82 1272 -82 1248 -162 c 1,28,-1
 826 -162 l 1,29,30
 826 -38 826 -38 1002 98 c 1,31,32
 1080 162 1080 162 1111 208 c 128,-1,33
 1142 254 1142 254 1142 330 c 0,34,35
 1142 440 1142 440 1040 440 c 0,36,37
 960 440 960 440 942 398 c 0,38,39
 938 388 938 388 938 367 c 128,-1,40
 938 346 938 346 938 338 c 0,41,42
 930 294 930 294 882 294 c 0,4,5
274 1170 m 0,43,44
 244 1170 244 1170 158 1138 c 1,45,46
 138 1154 138 1154 138 1194 c 1,47,48
 268 1242 268 1242 376 1308 c 0,49,50
 398 1320 398 1320 414 1308 c 1,51,-1
 414 820 l 2,52,53
 414 782 414 782 421 759 c 128,-1,54
 428 736 428 736 445 724 c 128,-1,55
 462 712 462 712 479 709 c 128,-1,56
 496 706 496 706 526 704 c 1,57,58
 542 674 542 674 526 646 c 1,59,60
 464 648 464 648 354 648 c 0,61,62
 218 648 218 648 158 646 c 1,63,64
 140 674 140 674 158 704 c 1,65,66
 210 706 210 706 235 712 c 128,-1,67
 260 718 260 718 282 744 c 128,-1,68
 304 770 304 770 304 820 c 2,69,-1
 304 1086 l 2,70,71
 304 1138 304 1138 298 1154 c 128,-1,72
 292 1170 292 1170 274 1170 c 0,43,44
EndSplineSet
Ligature2: "'frac' Diagonal Fractions lookup 8 subtable" one slash two
Ligature2: "'frac' Diagonal Fractions lookup 6 subtable" one slash two
LCarets2: 2 426 848 
EndChar

StartChar: threequarters
Encoding: 190 190 109
Width: 1350
GlyphClass: 3
LigCaretCntFixed: 1
Flags: W
LayerCount: 2
Fore
SplineSet
1150 1230 m 1,0,-1
 1234 1214 l 1,1,-1
 296 -126 l 1,2,-1
 210 -110 l 1,3,-1
 1150 1230 l 1,0,-1
376 1174 m 0,4,5
 376 1210 376 1210 353 1227 c 128,-1,6
 330 1244 330 1244 299 1244 c 128,-1,7
 268 1244 268 1244 235 1230 c 128,-1,8
 202 1216 202 1216 192 1194 c 0,9,10
 190 1190 190 1190 186 1176 c 128,-1,11
 182 1162 182 1162 179 1155 c 128,-1,12
 176 1148 176 1148 165 1141 c 128,-1,13
 154 1134 154 1134 138 1134 c 0,14,15
 120 1134 120 1134 108 1142 c 128,-1,16
 96 1150 96 1150 93 1159 c 128,-1,17
 90 1168 90 1168 90 1172 c 0,18,19
 90 1194 90 1194 110 1222 c 128,-1,20
 130 1250 130 1250 186 1277 c 128,-1,21
 242 1304 242 1304 324 1304 c 0,22,23
 404 1304 404 1304 451 1273 c 128,-1,24
 498 1242 498 1242 498 1184 c 0,25,26
 498 1102 498 1102 394 1044 c 1,27,28
 456 1038 456 1038 507 992 c 128,-1,29
 558 946 558 946 558 864 c 0,30,31
 558 760 558 760 478 694 c 128,-1,32
 398 628 398 628 272 628 c 0,33,34
 212 628 212 628 143 651 c 128,-1,35
 74 674 74 674 74 716 c 0,36,37
 74 734 74 734 89 748 c 128,-1,38
 104 762 104 762 124 762 c 0,39,40
 168 762 168 762 186 728 c 0,41,42
 204 692 204 692 280 690 c 0,43,44
 340 690 340 690 385 725 c 128,-1,45
 430 760 430 760 430 848 c 0,46,47
 430 972 430 972 276 972 c 0,48,49
 268 972 268 972 236 968 c 1,50,51
 222 986 222 986 232 1024 c 1,52,53
 376 1044 376 1044 376 1174 c 0,4,5
1090 398 m 1,54,55
 1028 320 1028 320 964 229 c 128,-1,56
 900 138 900 138 888 110 c 1,57,-1
 1090 110 l 1,58,-1
 1090 398 l 1,54,55
1090 -8 m 2,59,-1
 1090 40 l 1,60,-1
 846 40 l 2,61,62
 788 40 788 40 806 98 c 1,63,64
 812 110 812 110 828 134 c 0,65,66
 900 252 900 252 1056 434 c 0,67,68
 1090 474 1090 474 1130 498 c 0,69,70
 1132 500 1132 500 1158 500 c 0,71,72
 1196 500 1196 500 1196 480 c 2,73,-1
 1196 110 l 1,74,-1
 1310 110 l 1,75,-1
 1298 40 l 1,76,-1
 1196 40 l 1,77,-1
 1196 -8 l 2,78,79
 1196 -66 1196 -66 1219 -82 c 128,-1,80
 1242 -98 1242 -98 1300 -102 c 1,81,82
 1316 -132 1316 -132 1300 -162 c 1,83,84
 1238 -160 1238 -160 1140 -160 c 128,-1,85
 1042 -160 1042 -160 980 -162 c 1,86,87
 962 -134 962 -134 980 -102 c 1,88,89
 1046 -98 1046 -98 1068 -83 c 128,-1,90
 1090 -68 1090 -68 1090 -8 c 2,59,-1
EndSplineSet
Ligature2: "'frac' Diagonal Fractions lookup 8 subtable" three slash four
Ligature2: "'frac' Diagonal Fractions lookup 6 subtable" three slash four
LCarets2: 2 532 916 
EndChar

StartChar: Agrave
Encoding: 192 192 110
Width: 1422
GlyphClass: 2
Flags: W
LayerCount: 2
Fore
SplineSet
586 1676 m 1,0,-1
 834 1504 l 2,1,2
 864 1482 864 1482 864 1460 c 0,3,4
 864 1448 864 1448 855 1439 c 128,-1,5
 846 1430 846 1430 834 1430 c 0,6,7
 804 1430 804 1430 746 1454 c 2,8,-1
 430 1584 l 1,9,10
 494 1646 494 1646 586 1676 c 1,0,-1
542 580 m 2,11,-1
 906 580 l 1,12,-1
 712 1136 l 1,13,-1
 700 1136 l 1,14,-1
 492 606 l 2,15,16
 486 592 486 592 497 586 c 128,-1,17
 508 580 508 580 542 580 c 2,11,-1
322 162 m 1,18,19
 320 142 320 142 316 126 c 128,-1,20
 312 110 312 110 327 100 c 128,-1,21
 342 90 342 90 351 84 c 128,-1,22
 360 78 360 78 385 73 c 128,-1,23
 410 68 410 68 424 67 c 128,-1,24
 438 66 438 66 462 64 c 1,25,26
 470 54 470 54 471 29 c 128,-1,27
 472 4 472 4 462 -4 c 1,28,29
 310 0 310 0 200 0 c 0,30,31
 124 0 124 0 18 -4 c 1,32,33
 8 4 8 4 8 29 c 128,-1,34
 8 54 8 54 18 64 c 1,35,36
 96 70 96 70 141 95 c 128,-1,37
 186 120 186 120 224 208 c 2,38,-1
 688 1306 l 1,39,40
 734 1306 734 1306 800 1348 c 1,41,-1
 1222 176 l 2,42,43
 1238 128 1238 128 1270 104 c 128,-1,44
 1302 80 1302 80 1329 74 c 128,-1,45
 1356 68 1356 68 1406 64 c 1,46,47
 1416 54 1416 54 1417 29 c 128,-1,48
 1418 4 1418 4 1406 -4 c 1,49,50
 1262 0 1262 0 1174 0 c 0,51,52
 1058 0 1058 0 906 -4 c 1,53,54
 898 4 898 4 898 29 c 128,-1,55
 898 54 898 54 906 64 c 1,56,57
 924 66 924 66 934 66 c 128,-1,58
 944 66 944 66 960 68 c 128,-1,59
 976 70 976 70 986 72 c 128,-1,60
 996 74 996 74 1008 76 c 128,-1,61
 1020 78 1020 78 1027 81 c 128,-1,62
 1034 84 1034 84 1042 89 c 128,-1,63
 1050 94 1050 94 1053 99 c 128,-1,64
 1056 104 1056 104 1059 111 c 128,-1,65
 1062 118 1062 118 1061 128 c 128,-1,66
 1060 138 1060 138 1056 148 c 2,67,-1
 938 494 l 1,68,-1
 506 494 l 2,69,70
 470 494 470 494 456 487 c 128,-1,71
 442 480 442 480 434 458 c 2,72,-1
 322 162 l 1,18,19
EndSplineSet
Position2: "'cpsp' Capital Spacing lookup 0 subtable" dx=4 dy=0 dh=10 dv=0
EndChar

StartChar: Aacute
Encoding: 193 193 111
Width: 1422
GlyphClass: 2
Flags: W
LayerCount: 2
Fore
SplineSet
854 1680 m 1,0,1
 942 1640 942 1640 980 1572 c 1,2,-1
 686 1454 l 2,3,4
 628 1430 628 1430 600 1430 c 0,5,6
 570 1430 570 1430 570 1460 c 0,7,8
 570 1482 570 1482 600 1504 c 2,9,-1
 854 1680 l 1,0,1
538 580 m 2,10,-1
 902 580 l 1,11,-1
 708 1136 l 1,12,-1
 696 1136 l 1,13,-1
 488 606 l 2,14,15
 482 592 482 592 493 586 c 128,-1,16
 504 580 504 580 538 580 c 2,10,-1
318 162 m 1,17,18
 316 142 316 142 312 126 c 128,-1,19
 308 110 308 110 323 100 c 128,-1,20
 338 90 338 90 347 84 c 128,-1,21
 356 78 356 78 381 73 c 128,-1,22
 406 68 406 68 420 67 c 128,-1,23
 434 66 434 66 458 64 c 1,24,25
 466 54 466 54 466 29 c 128,-1,26
 466 4 466 4 458 -4 c 1,27,28
 306 0 306 0 196 0 c 0,29,30
 120 0 120 0 14 -4 c 1,31,32
 4 4 4 4 4 29 c 128,-1,33
 4 54 4 54 14 64 c 1,34,35
 92 70 92 70 137 95 c 128,-1,36
 182 120 182 120 220 208 c 2,37,-1
 684 1306 l 1,38,39
 730 1306 730 1306 796 1348 c 1,40,-1
 1218 176 l 2,41,42
 1234 128 1234 128 1266 104 c 128,-1,43
 1298 80 1298 80 1325 74 c 128,-1,44
 1352 68 1352 68 1402 64 c 1,45,46
 1412 54 1412 54 1413 29 c 128,-1,47
 1414 4 1414 4 1402 -4 c 1,48,49
 1258 0 1258 0 1170 0 c 0,50,51
 1054 0 1054 0 902 -4 c 1,52,53
 894 4 894 4 893 29 c 128,-1,54
 892 54 892 54 902 64 c 1,55,56
 920 66 920 66 930 66 c 128,-1,57
 940 66 940 66 956 68 c 128,-1,58
 972 70 972 70 982 72 c 128,-1,59
 992 74 992 74 1004 76 c 128,-1,60
 1016 78 1016 78 1023 81 c 128,-1,61
 1030 84 1030 84 1038 89 c 128,-1,62
 1046 94 1046 94 1049 99 c 128,-1,63
 1052 104 1052 104 1055 111 c 128,-1,64
 1058 118 1058 118 1057 128 c 128,-1,65
 1056 138 1056 138 1052 148 c 2,66,-1
 934 494 l 1,67,-1
 502 494 l 2,68,69
 466 494 466 494 452 487 c 128,-1,70
 438 480 438 480 430 458 c 2,71,-1
 318 162 l 1,17,18
EndSplineSet
Position2: "'cpsp' Capital Spacing lookup 0 subtable" dx=4 dy=0 dh=10 dv=0
EndChar

StartChar: Acircumflex
Encoding: 194 194 112
Width: 1422
GlyphClass: 2
Flags: W
AnchorPoint: "Anchor-2" 742 1830 basechar 0
LayerCount: 2
Fore
SplineSet
772 1654 m 1,0,1
 862 1546 862 1546 984 1456 c 1,2,3
 974 1424 974 1424 950 1414 c 1,4,5
 816 1476 816 1476 734 1538 c 1,6,7
 638 1468 638 1468 514 1414 c 1,8,9
 492 1428 492 1428 486 1456 c 1,10,11
 570 1520 570 1520 692 1654 c 1,12,13
 728 1676 728 1676 772 1654 c 1,0,1
538 580 m 2,14,-1
 902 580 l 1,15,-1
 708 1136 l 1,16,-1
 696 1136 l 1,17,-1
 488 606 l 2,18,19
 482 592 482 592 493 586 c 128,-1,20
 504 580 504 580 538 580 c 2,14,-1
318 162 m 2,21,22
 312 146 312 146 311 133 c 128,-1,23
 310 120 310 120 316 111 c 128,-1,24
 322 102 322 102 328 95 c 128,-1,25
 334 88 334 88 347 83 c 128,-1,26
 360 78 360 78 371 75 c 128,-1,27
 382 72 382 72 400 70 c 128,-1,28
 418 68 418 68 429 67 c 128,-1,29
 440 66 440 66 458 64 c 1,30,31
 466 54 466 54 466 29 c 128,-1,32
 466 4 466 4 458 -4 c 1,33,34
 306 0 306 0 196 0 c 0,35,36
 120 0 120 0 14 -4 c 1,37,38
 4 4 4 4 4 29 c 128,-1,39
 4 54 4 54 14 64 c 1,40,41
 92 70 92 70 137 95 c 128,-1,42
 182 120 182 120 220 208 c 2,43,-1
 684 1306 l 1,44,45
 730 1306 730 1306 796 1348 c 1,46,-1
 1218 176 l 2,47,48
 1230 142 1230 142 1249 119 c 128,-1,49
 1268 96 1268 96 1296 85 c 128,-1,50
 1324 74 1324 74 1344 71 c 128,-1,51
 1364 68 1364 68 1402 64 c 1,52,53
 1410 54 1410 54 1411 29 c 128,-1,54
 1412 4 1412 4 1402 -4 c 1,55,56
 1258 0 1258 0 1170 0 c 0,57,58
 1054 0 1054 0 902 -4 c 1,59,60
 892 4 892 4 891 29 c 128,-1,61
 890 54 890 54 902 64 c 1,62,63
 924 66 924 66 936 67 c 128,-1,64
 948 68 948 68 969 70 c 128,-1,65
 990 72 990 72 999 75 c 128,-1,66
 1008 78 1008 78 1023 82 c 128,-1,67
 1038 86 1038 86 1041 91 c 128,-1,68
 1044 96 1044 96 1053 105 c 128,-1,69
 1062 114 1062 114 1057 124 c 128,-1,70
 1052 134 1052 134 1052 148 c 1,71,-1
 934 494 l 1,72,-1
 502 494 l 2,73,74
 466 494 466 494 452 487 c 128,-1,75
 438 480 438 480 430 458 c 2,76,-1
 318 162 l 2,21,22
EndSplineSet
Position2: "'cpsp' Capital Spacing lookup 0 subtable" dx=4 dy=0 dh=10 dv=0
EndChar

StartChar: Atilde
Encoding: 195 195 113
Width: 1422
GlyphClass: 2
Flags: W
AnchorPoint: "Anchor-2" 746 1830 basechar 0
LayerCount: 2
Fore
SplineSet
864 1530 m 0,0,1
 898 1530 898 1530 919 1551 c 128,-1,2
 940 1572 940 1572 960 1636 c 1,3,4
 992 1638 992 1638 1016 1624 c 1,5,6
 976 1422 976 1422 838 1422 c 0,7,8
 826 1422 826 1422 812 1425 c 128,-1,9
 798 1428 798 1428 783 1436 c 128,-1,10
 768 1444 768 1444 759 1450 c 128,-1,11
 750 1456 750 1456 732 1469 c 128,-1,12
 714 1482 714 1482 706 1486 c 0,13,14
 642 1524 642 1524 596 1526 c 0,15,16
 558 1526 558 1526 538 1503 c 128,-1,17
 518 1480 518 1480 502 1428 c 1,18,19
 464 1422 464 1422 446 1438 c 1,20,21
 494 1638 494 1638 610 1638 c 0,22,23
 628 1638 628 1638 644 1634 c 128,-1,24
 660 1630 660 1630 678 1621 c 128,-1,25
 696 1612 696 1612 704 1607 c 128,-1,26
 712 1602 712 1602 733 1586 c 128,-1,27
 754 1570 754 1570 758 1568 c 0,28,29
 808 1530 808 1530 864 1530 c 0,0,1
538 580 m 2,30,-1
 902 580 l 1,31,-1
 708 1136 l 1,32,-1
 696 1136 l 1,33,-1
 488 606 l 2,34,35
 482 592 482 592 493 586 c 128,-1,36
 504 580 504 580 538 580 c 2,30,-1
318 162 m 1,37,38
 316 142 316 142 312 126 c 128,-1,39
 308 110 308 110 323 100 c 128,-1,40
 338 90 338 90 347 84 c 128,-1,41
 356 78 356 78 381 73 c 128,-1,42
 406 68 406 68 420 67 c 128,-1,43
 434 66 434 66 458 64 c 1,44,45
 466 54 466 54 466 29 c 128,-1,46
 466 4 466 4 458 -4 c 1,47,48
 306 0 306 0 196 0 c 0,49,50
 120 0 120 0 14 -4 c 1,51,52
 4 4 4 4 4 29 c 128,-1,53
 4 54 4 54 14 64 c 1,54,55
 92 70 92 70 137 95 c 128,-1,56
 182 120 182 120 220 208 c 2,57,-1
 684 1306 l 1,58,59
 730 1306 730 1306 796 1348 c 1,60,-1
 1218 176 l 2,61,62
 1234 128 1234 128 1266 104 c 128,-1,63
 1298 80 1298 80 1325 74 c 128,-1,64
 1352 68 1352 68 1402 64 c 1,65,66
 1412 54 1412 54 1413 29 c 128,-1,67
 1414 4 1414 4 1402 -4 c 1,68,69
 1258 0 1258 0 1170 0 c 0,70,71
 1054 0 1054 0 902 -4 c 1,72,73
 894 4 894 4 893 29 c 128,-1,74
 892 54 892 54 902 64 c 1,75,76
 920 66 920 66 930 66 c 128,-1,77
 940 66 940 66 956 68 c 128,-1,78
 972 70 972 70 982 72 c 128,-1,79
 992 74 992 74 1004 76 c 128,-1,80
 1016 78 1016 78 1023 81 c 128,-1,81
 1030 84 1030 84 1038 89 c 128,-1,82
 1046 94 1046 94 1049 99 c 128,-1,83
 1052 104 1052 104 1055 111 c 128,-1,84
 1058 118 1058 118 1057 128 c 128,-1,85
 1056 138 1056 138 1052 148 c 2,86,-1
 934 494 l 1,87,-1
 502 494 l 2,88,89
 466 494 466 494 452 487 c 128,-1,90
 438 480 438 480 430 458 c 2,91,-1
 318 162 l 1,37,38
EndSplineSet
Position2: "'cpsp' Capital Spacing lookup 0 subtable" dx=4 dy=0 dh=10 dv=0
EndChar

StartChar: AE
Encoding: 198 198 114
Width: 1770
GlyphClass: 2
Flags: W
AnchorPoint: "Anchor-6" 1124 -220 basechar 0
AnchorPoint: "Anchor-5" 1124 8 basechar 0
AnchorPoint: "Anchor-2" 1132 1648 basechar 0
LayerCount: 2
Fore
SplineSet
556 624 m 1,0,-1
 878 624 l 1,1,-1
 878 1178 l 2,2,3
 878 1222 878 1222 868 1224 c 1,4,-1
 556 624 l 1,0,-1
878 250 m 2,5,-1
 878 544 l 1,6,-1
 514 544 l 1,7,-1
 316 162 l 1,8,9
 310 142 310 142 307 127 c 128,-1,10
 304 112 304 112 317 102 c 128,-1,11
 330 92 330 92 342 85 c 128,-1,12
 354 78 354 78 378 74 c 128,-1,13
 402 70 402 70 419 68 c 128,-1,14
 436 66 436 66 458 64 c 1,15,16
 466 54 466 54 466 29 c 128,-1,17
 466 4 466 4 458 -4 c 1,18,19
 306 0 306 0 196 0 c 0,20,21
 166 0 166 0 14 -4 c 1,22,23
 4 4 4 4 4 29 c 128,-1,24
 4 54 4 54 14 64 c 1,25,26
 90 70 90 70 136 97 c 128,-1,27
 182 124 182 124 228 208 c 2,28,-1
 724 1140 l 1,29,30
 756 1188 756 1188 729 1221 c 128,-1,31
 702 1254 702 1254 602 1258 c 1,32,33
 594 1266 594 1266 594 1290 c 128,-1,34
 594 1314 594 1314 602 1326 c 1,35,-1
 838 1320 l 1,36,-1
 1124 1320 l 1,37,-1
 1484 1320 l 2,38,39
 1538 1320 1538 1320 1586 1330 c 0,40,41
 1594 1330 1594 1330 1594 1324 c 0,42,43
 1610 1254 1610 1254 1638 1026 c 1,44,45
 1606 1010 1606 1010 1570 1016 c 1,46,47
 1532 1138 1532 1138 1489 1189 c 128,-1,48
 1446 1240 1446 1240 1340 1240 c 2,49,-1
 1124 1240 l 2,50,51
 1090 1240 1090 1240 1070 1214 c 128,-1,52
 1050 1188 1050 1188 1050 1148 c 2,53,-1
 1050 740 l 1,54,-1
 1236 740 l 2,55,56
 1360 740 1360 740 1390 764 c 128,-1,57
 1420 788 1420 788 1424 878 c 1,58,59
 1434 888 1434 888 1458 888 c 128,-1,60
 1482 888 1482 888 1490 878 c 1,61,62
 1486 756 1486 756 1486 702 c 0,63,64
 1486 666 1486 666 1490 522 c 1,65,66
 1482 512 1482 512 1458 512 c 128,-1,67
 1434 512 1434 512 1424 522 c 1,68,69
 1420 578 1420 578 1411 601 c 128,-1,70
 1402 624 1402 624 1361 643 c 128,-1,71
 1320 662 1320 662 1236 662 c 2,72,-1
 1050 662 l 1,73,-1
 1050 168 l 2,74,75
 1050 80 1050 80 1124 80 c 2,76,-1
 1402 80 l 2,77,78
 1596 80 1596 80 1672 348 c 1,79,80
 1708 356 1708 356 1742 338 c 1,81,82
 1718 176 1718 176 1668 -4 c 1,83,84
 1504 0 1504 0 1404 0 c 2,85,-1
 966 0 l 1,86,87
 800 -2 800 -2 700 -4 c 1,88,89
 692 4 692 4 692 29 c 128,-1,90
 692 54 692 54 700 64 c 1,91,92
 814 68 814 68 846 98 c 128,-1,93
 878 128 878 128 878 250 c 2,5,-1
EndSplineSet
Ligature2: "'liga' Standard Ligatures lookup 10 subtable" A E
Position2: "'cpsp' Capital Spacing lookup 0 subtable" dx=4 dy=0 dh=10 dv=0
EndChar

StartChar: Egrave
Encoding: 200 200 115
Width: 1140
GlyphClass: 2
Flags: W
AnchorPoint: "Anchor-6" 572 -220 basechar 0
AnchorPoint: "Anchor-5" 572 8 basechar 0
LayerCount: 2
Fore
SplineSet
502 1674 m 1,0,-1
 750 1502 l 2,1,2
 780 1480 780 1480 780 1458 c 0,3,4
 780 1446 780 1446 771 1437 c 128,-1,5
 762 1428 762 1428 750 1428 c 0,6,7
 720 1428 720 1428 662 1452 c 2,8,-1
 346 1582 l 1,9,10
 410 1644 410 1644 502 1674 c 1,0,-1
576 740 m 2,11,12
 700 740 700 740 729 764 c 128,-1,13
 758 788 758 788 762 878 c 1,14,15
 770 888 770 888 795 888 c 128,-1,16
 820 888 820 888 830 878 c 1,17,18
 826 780 826 780 826 702 c 0,19,20
 826 628 826 628 830 522 c 1,21,22
 820 512 820 512 795 512 c 128,-1,23
 770 512 770 512 762 522 c 1,24,25
 758 578 758 578 750 601 c 128,-1,26
 742 624 742 624 701 643 c 128,-1,27
 660 662 660 662 576 662 c 2,28,-1
 390 662 l 1,29,-1
 390 208 l 2,30,31
 390 136 390 136 415 108 c 128,-1,32
 440 80 440 80 504 80 c 2,33,-1
 742 80 l 2,34,35
 936 80 936 80 1010 348 c 1,36,37
 1046 358 1046 358 1082 338 c 1,38,39
 1058 176 1058 176 1006 -4 c 1,40,41
 842 0 842 0 744 0 c 2,42,-1
 304 0 l 2,43,44
 190 0 190 0 36 -4 c 1,45,46
 28 4 28 4 28 29 c 128,-1,47
 28 54 28 54 36 64 c 1,48,49
 150 68 150 68 183 97 c 128,-1,50
 216 126 216 126 216 250 c 2,51,-1
 216 1072 l 2,52,53
 216 1194 216 1194 184 1224 c 128,-1,54
 152 1254 152 1254 36 1258 c 1,55,56
 28 1266 28 1266 28 1290 c 128,-1,57
 28 1314 28 1314 36 1326 c 1,58,59
 200 1322 200 1322 302 1320 c 2,60,-1
 824 1320 l 2,61,62
 878 1320 878 1320 924 1330 c 0,63,64
 932 1330 932 1330 932 1324 c 0,65,66
 948 1254 948 1254 976 1026 c 1,67,68
 944 1010 944 1010 910 1016 c 1,69,70
 872 1138 872 1138 828 1189 c 128,-1,71
 784 1240 784 1240 678 1240 c 2,72,-1
 524 1240 l 2,73,74
 444 1240 444 1240 417 1210 c 128,-1,75
 390 1180 390 1180 390 1108 c 2,76,-1
 390 740 l 1,77,-1
 576 740 l 2,11,12
EndSplineSet
Position2: "'cpsp' Capital Spacing lookup 0 subtable" dx=4 dy=0 dh=10 dv=0
EndChar

StartChar: Eacute
Encoding: 201 201 116
Width: 1140
GlyphClass: 2
Flags: W
AnchorPoint: "Anchor-6" 572 -220 basechar 0
AnchorPoint: "Anchor-5" 572 8 basechar 0
LayerCount: 2
Fore
SplineSet
716 1680 m 1,0,1
 804 1640 804 1640 844 1572 c 1,2,-1
 548 1454 l 2,3,4
 490 1430 490 1430 462 1430 c 0,5,6
 432 1430 432 1430 432 1460 c 0,7,8
 432 1482 432 1482 462 1504 c 2,9,-1
 716 1680 l 1,0,1
576 740 m 2,10,11
 700 740 700 740 729 764 c 128,-1,12
 758 788 758 788 762 878 c 1,13,14
 770 888 770 888 795 888 c 128,-1,15
 820 888 820 888 830 878 c 1,16,17
 826 780 826 780 826 702 c 0,18,19
 826 628 826 628 830 522 c 1,20,21
 820 512 820 512 795 512 c 128,-1,22
 770 512 770 512 762 522 c 1,23,24
 758 578 758 578 750 601 c 128,-1,25
 742 624 742 624 701 643 c 128,-1,26
 660 662 660 662 576 662 c 2,27,-1
 390 662 l 1,28,-1
 390 208 l 2,29,30
 390 136 390 136 415 108 c 128,-1,31
 440 80 440 80 504 80 c 2,32,-1
 742 80 l 2,33,34
 936 80 936 80 1010 348 c 1,35,36
 1046 358 1046 358 1082 338 c 1,37,38
 1058 176 1058 176 1006 -4 c 1,39,40
 842 0 842 0 744 0 c 2,41,-1
 304 0 l 2,42,43
 190 0 190 0 36 -4 c 1,44,45
 28 4 28 4 28 29 c 128,-1,46
 28 54 28 54 36 64 c 1,47,48
 150 68 150 68 183 97 c 128,-1,49
 216 126 216 126 216 250 c 2,50,-1
 216 1072 l 2,51,52
 216 1194 216 1194 184 1224 c 128,-1,53
 152 1254 152 1254 36 1258 c 1,54,55
 28 1266 28 1266 28 1290 c 128,-1,56
 28 1314 28 1314 36 1326 c 1,57,58
 200 1322 200 1322 302 1320 c 2,59,-1
 824 1320 l 2,60,61
 878 1320 878 1320 924 1330 c 0,62,63
 932 1330 932 1330 932 1324 c 0,64,65
 948 1254 948 1254 976 1026 c 1,66,67
 944 1010 944 1010 910 1016 c 1,68,69
 872 1138 872 1138 828 1189 c 128,-1,70
 784 1240 784 1240 678 1240 c 2,71,-1
 524 1240 l 2,72,73
 444 1240 444 1240 417 1210 c 128,-1,74
 390 1180 390 1180 390 1108 c 2,75,-1
 390 740 l 1,76,-1
 576 740 l 2,10,11
EndSplineSet
Position2: "'cpsp' Capital Spacing lookup 0 subtable" dx=4 dy=0 dh=10 dv=0
EndChar

StartChar: Ecircumflex
Encoding: 202 202 117
Width: 1140
GlyphClass: 2
Flags: W
AnchorPoint: "Anchor-6" 572 -220 basechar 0
AnchorPoint: "Anchor-5" 572 8 basechar 0
AnchorPoint: "Anchor-2" 606 1830 basechar 0
LayerCount: 2
Fore
SplineSet
646 1654 m 1,0,1
 736 1546 736 1546 856 1456 c 1,2,3
 846 1424 846 1424 824 1414 c 1,4,5
 690 1476 690 1476 606 1538 c 1,6,7
 510 1468 510 1468 388 1414 c 1,8,9
 366 1428 366 1428 358 1456 c 1,10,11
 442 1520 442 1520 566 1654 c 1,12,13
 602 1676 602 1676 646 1654 c 1,0,1
576 740 m 2,14,15
 622 740 622 740 650 742 c 128,-1,16
 678 744 678 744 699 751 c 128,-1,17
 720 758 720 758 732 766 c 128,-1,18
 744 774 744 774 750 794 c 128,-1,19
 756 814 756 814 758 830 c 128,-1,20
 760 846 760 846 762 878 c 1,21,22
 770 886 770 886 795 886 c 128,-1,23
 820 886 820 886 830 878 c 1,24,25
 826 780 826 780 826 702 c 0,26,27
 826 628 826 628 830 522 c 1,28,29
 820 512 820 512 795 512 c 128,-1,30
 770 512 770 512 762 522 c 1,31,32
 760 566 760 566 755 585 c 128,-1,33
 750 604 750 604 732 626 c 128,-1,34
 714 648 714 648 676 655 c 128,-1,35
 638 662 638 662 576 662 c 2,36,-1
 390 662 l 1,37,-1
 390 208 l 2,38,39
 390 172 390 172 396 148 c 128,-1,40
 402 124 402 124 415 108 c 128,-1,41
 428 92 428 92 450 86 c 128,-1,42
 472 80 472 80 504 80 c 2,43,-1
 742 80 l 2,44,45
 850 80 850 80 912 152 c 128,-1,46
 974 224 974 224 1010 348 c 1,47,48
 1046 358 1046 358 1082 338 c 1,49,50
 1058 176 1058 176 1006 -4 c 1,51,52
 842 0 842 0 744 0 c 2,53,-1
 304 0 l 2,54,55
 190 0 190 0 36 -4 c 1,56,57
 26 4 26 4 26 29 c 128,-1,58
 26 54 26 54 36 64 c 1,59,60
 98 66 98 66 127 71 c 128,-1,61
 156 76 156 76 179 95 c 128,-1,62
 202 114 202 114 209 149 c 128,-1,63
 216 184 216 184 216 250 c 2,64,-1
 216 1072 l 2,65,66
 216 1138 216 1138 209 1172 c 128,-1,67
 202 1206 202 1206 179 1226 c 128,-1,68
 156 1246 156 1246 127 1251 c 128,-1,69
 98 1256 98 1256 36 1258 c 1,70,71
 26 1266 26 1266 26 1290 c 128,-1,72
 26 1314 26 1314 36 1326 c 1,73,74
 200 1322 200 1322 302 1320 c 2,75,-1
 824 1320 l 2,76,77
 878 1320 878 1320 924 1330 c 0,78,79
 932 1330 932 1330 932 1324 c 0,80,81
 948 1254 948 1254 976 1026 c 1,82,83
 944 1010 944 1010 910 1016 c 1,84,85
 890 1080 890 1080 875 1112 c 128,-1,86
 860 1144 860 1144 834 1178 c 128,-1,87
 808 1212 808 1212 771 1226 c 128,-1,88
 734 1240 734 1240 678 1240 c 2,89,-1
 524 1240 l 2,90,91
 484 1240 484 1240 457 1232 c 128,-1,92
 430 1224 430 1224 415 1207 c 128,-1,93
 400 1190 400 1190 395 1166 c 128,-1,94
 390 1142 390 1142 390 1108 c 2,95,-1
 390 740 l 1,96,-1
 576 740 l 2,14,15
EndSplineSet
Position2: "'cpsp' Capital Spacing lookup 0 subtable" dx=4 dy=0 dh=10 dv=0
EndChar

StartChar: Igrave
Encoding: 204 204 118
Width: 608
GlyphClass: 2
Flags: W
LayerCount: 2
Fore
SplineSet
202 1674 m 1,0,-1
 450 1502 l 2,1,2
 480 1480 480 1480 482 1458 c 0,3,4
 482 1446 482 1446 472 1437 c 128,-1,5
 462 1428 462 1428 450 1428 c 0,6,7
 420 1428 420 1428 362 1452 c 2,8,-1
 48 1582 l 1,9,10
 110 1644 110 1644 202 1674 c 1,0,-1
392 250 m 2,11,12
 392 128 392 128 423 98 c 128,-1,13
 454 68 454 68 570 64 c 1,14,15
 578 54 578 54 578 29 c 128,-1,16
 578 4 578 4 570 -4 c 1,17,18
 386 0 386 0 306 0 c 0,19,20
 224 0 224 0 38 -4 c 1,21,22
 28 4 28 4 28 29 c 128,-1,23
 28 54 28 54 38 64 c 1,24,25
 152 68 152 68 185 97 c 128,-1,26
 218 126 218 126 218 250 c 2,27,-1
 218 1072 l 2,28,29
 218 1194 218 1194 186 1224 c 128,-1,30
 154 1254 154 1254 38 1258 c 1,31,32
 28 1266 28 1266 28 1290 c 128,-1,33
 28 1314 28 1314 38 1326 c 1,34,35
 230 1322 230 1322 304 1320 c 0,36,37
 390 1320 390 1320 570 1326 c 1,38,39
 578 1316 578 1316 578 1291 c 128,-1,40
 578 1266 578 1266 570 1258 c 1,41,42
 456 1254 456 1254 424 1224 c 128,-1,43
 392 1194 392 1194 392 1072 c 2,44,-1
 392 250 l 2,11,12
EndSplineSet
Position2: "'cpsp' Capital Spacing lookup 0 subtable" dx=4 dy=0 dh=10 dv=0
EndChar

StartChar: Iacute
Encoding: 205 205 119
Width: 608
GlyphClass: 2
Flags: W
LayerCount: 2
Fore
SplineSet
430 1678 m 1,0,1
 518 1638 518 1638 558 1570 c 1,2,-1
 262 1452 l 2,3,4
 204 1428 204 1428 176 1428 c 0,5,6
 146 1428 146 1428 146 1458 c 0,7,8
 146 1480 146 1480 176 1502 c 2,9,-1
 430 1678 l 1,0,1
392 250 m 2,10,11
 392 128 392 128 423 98 c 128,-1,12
 454 68 454 68 570 64 c 1,13,14
 578 54 578 54 578 29 c 128,-1,15
 578 4 578 4 570 -4 c 1,16,17
 386 0 386 0 306 0 c 0,18,19
 224 0 224 0 38 -4 c 1,20,21
 28 4 28 4 28 29 c 128,-1,22
 28 54 28 54 38 64 c 1,23,24
 152 68 152 68 185 97 c 128,-1,25
 218 126 218 126 218 250 c 2,26,-1
 218 1072 l 2,27,28
 218 1194 218 1194 186 1224 c 128,-1,29
 154 1254 154 1254 38 1258 c 1,30,31
 28 1266 28 1266 28 1290 c 128,-1,32
 28 1314 28 1314 38 1326 c 1,33,34
 230 1322 230 1322 304 1320 c 0,35,36
 390 1320 390 1320 570 1326 c 1,37,38
 578 1316 578 1316 578 1291 c 128,-1,39
 578 1266 578 1266 570 1258 c 1,40,41
 456 1254 456 1254 424 1224 c 128,-1,42
 392 1194 392 1194 392 1072 c 2,43,-1
 392 250 l 2,10,11
EndSplineSet
Position2: "'cpsp' Capital Spacing lookup 0 subtable" dx=4 dy=0 dh=10 dv=0
EndChar

StartChar: Icircumflex
Encoding: 206 206 120
Width: 608
GlyphClass: 2
Flags: W
AnchorPoint: "Anchor-2" 294 1830 basechar 0
LayerCount: 2
Fore
SplineSet
338 1654 m 1,0,1
 428 1546 428 1546 548 1456 c 1,2,3
 538 1424 538 1424 516 1414 c 1,4,5
 382 1476 382 1476 300 1538 c 1,6,7
 204 1468 204 1468 80 1414 c 1,8,9
 58 1428 58 1428 52 1456 c 1,10,11
 136 1520 136 1520 258 1654 c 1,12,13
 294 1676 294 1676 338 1654 c 1,0,1
392 250 m 2,14,15
 392 184 392 184 398 149 c 128,-1,16
 404 114 404 114 427 95 c 128,-1,17
 450 76 450 76 479 71 c 128,-1,18
 508 66 508 66 570 64 c 1,19,20
 578 54 578 54 578 29 c 128,-1,21
 578 4 578 4 570 -4 c 1,22,23
 386 0 386 0 306 0 c 0,24,25
 224 0 224 0 38 -4 c 1,26,27
 28 4 28 4 28 29 c 128,-1,28
 28 54 28 54 38 64 c 1,29,30
 100 66 100 66 129 71 c 128,-1,31
 158 76 158 76 181 95 c 128,-1,32
 204 114 204 114 211 149 c 128,-1,33
 218 184 218 184 218 250 c 2,34,-1
 218 1072 l 2,35,36
 218 1138 218 1138 211 1172 c 128,-1,37
 204 1206 204 1206 181 1226 c 128,-1,38
 158 1246 158 1246 129 1251 c 128,-1,39
 100 1256 100 1256 38 1258 c 1,40,41
 28 1266 28 1266 28 1290 c 128,-1,42
 28 1314 28 1314 38 1326 c 1,43,44
 230 1322 230 1322 304 1320 c 0,45,46
 390 1320 390 1320 570 1326 c 1,47,48
 578 1316 578 1316 578 1291 c 128,-1,49
 578 1266 578 1266 570 1258 c 1,50,51
 508 1256 508 1256 479 1251 c 128,-1,52
 450 1246 450 1246 427 1226 c 128,-1,53
 404 1206 404 1206 398 1171 c 128,-1,54
 392 1136 392 1136 392 1072 c 2,55,-1
 392 250 l 2,14,15
EndSplineSet
Position2: "'cpsp' Capital Spacing lookup 0 subtable" dx=4 dy=0 dh=10 dv=0
EndChar

StartChar: Ograve
Encoding: 210 210 121
Width: 1436
GlyphClass: 2
Flags: W
AnchorPoint: "Anchor-2" 704 1830 basechar 0
AnchorPoint: "Anchor-1" 1270 1242 basechar 0
LayerCount: 2
Fore
SplineSet
622 1678 m 1,0,-1
 870 1506 l 2,1,2
 900 1484 900 1484 902 1462 c 0,3,4
 902 1450 902 1450 892 1441 c 128,-1,5
 882 1432 882 1432 870 1432 c 0,6,7
 840 1432 840 1432 782 1456 c 2,8,-1
 466 1586 l 1,9,10
 530 1648 530 1648 622 1678 c 1,0,-1
678 1274 m 0,11,12
 510 1274 510 1274 391 1122 c 128,-1,13
 272 970 272 970 272 670 c 0,14,15
 272 388 272 388 416 221 c 128,-1,16
 560 54 560 54 758 54 c 0,17,18
 938 54 938 54 1053 210 c 128,-1,19
 1168 366 1168 366 1168 634 c 0,20,21
 1168 934 1168 934 1028 1104 c 128,-1,22
 888 1274 888 1274 678 1274 c 0,11,12
1364 674 m 0,23,24
 1364 418 1364 418 1236 238 c 0,25,26
 1150 116 1150 116 1017 48 c 128,-1,27
 884 -20 884 -20 716 -20 c 0,28,29
 446 -20 446 -20 261 160 c 128,-1,30
 76 340 76 340 76 634 c 0,31,32
 76 942 76 942 246 1145 c 128,-1,33
 416 1348 416 1348 704 1348 c 0,34,35
 988 1348 988 1348 1176 1166 c 128,-1,36
 1364 984 1364 984 1364 674 c 0,23,24
EndSplineSet
Position2: "'cpsp' Capital Spacing lookup 0 subtable" dx=4 dy=0 dh=10 dv=0
EndChar

StartChar: Oacute
Encoding: 211 211 122
Width: 1436
GlyphClass: 2
Flags: W
AnchorPoint: "Anchor-2" 704 1830 basechar 0
AnchorPoint: "Anchor-1" 1270 1242 basechar 0
LayerCount: 2
Fore
SplineSet
792 1680 m 1,0,1
 880 1640 880 1640 920 1572 c 1,2,-1
 624 1454 l 2,3,4
 566 1430 566 1430 538 1430 c 0,5,6
 508 1430 508 1430 508 1460 c 0,7,8
 508 1482 508 1482 538 1504 c 2,9,-1
 792 1680 l 1,0,1
678 1274 m 0,10,11
 510 1274 510 1274 391 1122 c 128,-1,12
 272 970 272 970 272 670 c 0,13,14
 272 388 272 388 416 221 c 128,-1,15
 560 54 560 54 758 54 c 0,16,17
 938 54 938 54 1053 210 c 128,-1,18
 1168 366 1168 366 1168 634 c 0,19,20
 1168 934 1168 934 1028 1104 c 128,-1,21
 888 1274 888 1274 678 1274 c 0,10,11
1364 674 m 0,22,23
 1364 418 1364 418 1236 238 c 0,24,25
 1150 116 1150 116 1017 48 c 128,-1,26
 884 -20 884 -20 716 -20 c 0,27,28
 446 -20 446 -20 261 160 c 128,-1,29
 76 340 76 340 76 634 c 0,30,31
 76 942 76 942 246 1145 c 128,-1,32
 416 1348 416 1348 704 1348 c 0,33,34
 988 1348 988 1348 1176 1166 c 128,-1,35
 1364 984 1364 984 1364 674 c 0,22,23
EndSplineSet
Position2: "'cpsp' Capital Spacing lookup 0 subtable" dx=4 dy=0 dh=10 dv=0
EndChar

StartChar: Ocircumflex
Encoding: 212 212 123
Width: 1436
GlyphClass: 2
Flags: W
AnchorPoint: "Anchor-2" 704 1830 basechar 0
AnchorPoint: "Anchor-1" 1270 1242 basechar 0
LayerCount: 2
Fore
SplineSet
750 1654 m 1,0,1
 840 1546 840 1546 960 1456 c 1,2,3
 950 1424 950 1424 928 1414 c 1,4,5
 794 1476 794 1476 710 1538 c 1,6,7
 614 1468 614 1468 492 1414 c 1,8,9
 470 1428 470 1428 462 1456 c 1,10,11
 546 1520 546 1520 670 1654 c 1,12,13
 706 1676 706 1676 750 1654 c 1,0,1
678 1274 m 0,14,15
 598 1274 598 1274 528 1239 c 128,-1,16
 458 1204 458 1204 400 1134 c 128,-1,17
 342 1064 342 1064 307 945 c 128,-1,18
 272 826 272 826 272 670 c 0,19,20
 272 574 272 574 291 488 c 128,-1,21
 310 402 310 402 343 335 c 128,-1,22
 376 268 376 268 421 214 c 128,-1,23
 466 160 466 160 521 125 c 128,-1,24
 576 90 576 90 635 72 c 128,-1,25
 694 54 694 54 758 54 c 0,26,27
 938 54 938 54 1053 210 c 128,-1,28
 1168 366 1168 366 1168 634 c 0,29,30
 1168 934 1168 934 1028 1104 c 128,-1,31
 888 1274 888 1274 678 1274 c 0,14,15
1364 674 m 0,32,33
 1364 418 1364 418 1236 238 c 0,34,35
 1150 116 1150 116 1017 48 c 128,-1,36
 884 -20 884 -20 716 -20 c 0,37,38
 540 -20 540 -20 396 59 c 128,-1,39
 252 138 252 138 164 288 c 128,-1,40
 76 438 76 438 76 634 c 0,41,42
 76 834 76 834 149 995 c 128,-1,43
 222 1156 222 1156 367 1252 c 128,-1,44
 512 1348 512 1348 704 1348 c 0,45,46
 888 1348 888 1348 1037 1269 c 128,-1,47
 1186 1190 1186 1190 1275 1035 c 128,-1,48
 1364 880 1364 880 1364 674 c 0,32,33
EndSplineSet
Position2: "'cpsp' Capital Spacing lookup 0 subtable" dx=4 dy=0 dh=10 dv=0
EndChar

StartChar: Otilde
Encoding: 213 213 124
Width: 1436
GlyphClass: 2
Flags: W
AnchorPoint: "Anchor-2" 704 1830 basechar 0
AnchorPoint: "Anchor-1" 1270 1242 basechar 0
LayerCount: 2
Fore
SplineSet
840 1526 m 0,0,1
 874 1526 874 1526 895 1547 c 128,-1,2
 916 1568 916 1568 936 1632 c 1,3,4
 968 1634 968 1634 992 1620 c 1,5,6
 952 1418 952 1418 814 1418 c 0,7,8
 802 1418 802 1418 788 1421 c 128,-1,9
 774 1424 774 1424 759 1432 c 128,-1,10
 744 1440 744 1440 734 1446 c 128,-1,11
 724 1452 724 1452 707 1465 c 128,-1,12
 690 1478 690 1478 682 1482 c 0,13,14
 618 1520 618 1520 572 1522 c 0,15,16
 534 1522 534 1522 514 1499 c 128,-1,17
 494 1476 494 1476 478 1424 c 1,18,19
 440 1418 440 1418 422 1434 c 1,20,21
 470 1634 470 1634 586 1634 c 0,22,23
 604 1634 604 1634 619 1630 c 128,-1,24
 634 1626 634 1626 653 1617 c 128,-1,25
 672 1608 672 1608 680 1603 c 128,-1,26
 688 1598 688 1598 709 1582 c 128,-1,27
 730 1566 730 1566 734 1564 c 0,28,29
 784 1526 784 1526 840 1526 c 0,0,1
678 1274 m 0,30,31
 510 1274 510 1274 391 1122 c 128,-1,32
 272 970 272 970 272 670 c 0,33,34
 272 388 272 388 416 221 c 128,-1,35
 560 54 560 54 758 54 c 0,36,37
 938 54 938 54 1053 210 c 128,-1,38
 1168 366 1168 366 1168 634 c 0,39,40
 1168 934 1168 934 1028 1104 c 128,-1,41
 888 1274 888 1274 678 1274 c 0,30,31
1364 674 m 0,42,43
 1364 418 1364 418 1236 238 c 0,44,45
 1150 116 1150 116 1017 48 c 128,-1,46
 884 -20 884 -20 716 -20 c 0,47,48
 446 -20 446 -20 261 160 c 128,-1,49
 76 340 76 340 76 634 c 0,50,51
 76 942 76 942 246 1145 c 128,-1,52
 416 1348 416 1348 704 1348 c 0,53,54
 988 1348 988 1348 1176 1166 c 128,-1,55
 1364 984 1364 984 1364 674 c 0,42,43
EndSplineSet
Position2: "'cpsp' Capital Spacing lookup 0 subtable" dx=4 dy=0 dh=10 dv=0
EndChar

StartChar: Odieresis
Encoding: 214 214 125
Width: 1436
GlyphClass: 2
Flags: W
AnchorPoint: "Anchor-2" 704 1830 basechar 0
LayerCount: 2
Fore
SplineSet
198 1445 m 128,-1,1
 198 1486 198 1486 228 1515 c 128,-1,2
 258 1544 258 1544 297 1544 c 128,-1,3
 336 1544 336 1544 366 1515 c 128,-1,4
 396 1486 396 1486 396 1445 c 128,-1,5
 396 1404 396 1404 366 1376 c 128,-1,6
 336 1348 336 1348 297 1348 c 128,-1,7
 258 1348 258 1348 228 1376 c 128,-1,0
 198 1404 198 1404 198 1445 c 128,-1,1
1036 1445 m 128,-1,9
 1036 1486 1036 1486 1065 1515 c 128,-1,10
 1094 1544 1094 1544 1135 1544 c 128,-1,11
 1176 1544 1176 1544 1204 1515 c 128,-1,12
 1232 1486 1232 1486 1232 1445 c 128,-1,13
 1232 1404 1232 1404 1204 1376 c 128,-1,14
 1176 1348 1176 1348 1135 1348 c 128,-1,15
 1094 1348 1094 1348 1065 1376 c 128,-1,8
 1036 1404 1036 1404 1036 1445 c 128,-1,9
678 1274 m 0,16,17
 510 1274 510 1274 391 1122 c 128,-1,18
 272 970 272 970 272 670 c 0,19,20
 272 388 272 388 416 221 c 128,-1,21
 560 54 560 54 758 54 c 0,22,23
 938 54 938 54 1053 210 c 128,-1,24
 1168 366 1168 366 1168 634 c 0,25,26
 1168 934 1168 934 1028 1104 c 128,-1,27
 888 1274 888 1274 678 1274 c 0,16,17
1364 674 m 0,28,29
 1364 418 1364 418 1236 238 c 0,30,31
 1150 116 1150 116 1017 48 c 128,-1,32
 884 -20 884 -20 716 -20 c 0,33,34
 446 -20 446 -20 261 160 c 128,-1,35
 76 340 76 340 76 634 c 0,36,37
 76 942 76 942 246 1145 c 128,-1,38
 416 1348 416 1348 704 1348 c 0,39,40
 988 1348 988 1348 1176 1166 c 128,-1,41
 1364 984 1364 984 1364 674 c 0,28,29
EndSplineSet
Position2: "'cpsp' Capital Spacing lookup 0 subtable" dx=4 dy=0 dh=10 dv=0
EndChar

StartChar: multiply
Encoding: 215 215 126
Width: 1126
GlyphClass: 2
Flags: W
LayerCount: 2
Fore
SplineSet
630 594 m 1,0,-1
 882 344 l 1,1,-1
 812 272 l 1,2,-1
 562 522 l 1,3,-1
 312 272 l 1,4,-1
 238 344 l 1,5,-1
 490 594 l 1,6,-1
 238 846 l 1,7,-1
 312 918 l 1,8,-1
 562 666 l 1,9,-1
 812 918 l 1,10,-1
 882 846 l 1,11,-1
 630 594 l 1,0,-1
EndSplineSet
EndChar

StartChar: Ugrave
Encoding: 217 217 127
Width: 1352
GlyphClass: 2
Flags: W
AnchorPoint: "Anchor-2" 704 1830 basechar 0
LayerCount: 2
Fore
SplineSet
566 1676 m 1,0,-1
 814 1504 l 2,1,2
 844 1482 844 1482 844 1460 c 0,3,4
 844 1448 844 1448 835 1439 c 128,-1,5
 826 1430 826 1430 814 1430 c 0,6,7
 784 1430 784 1430 724 1454 c 2,8,-1
 410 1584 l 1,9,10
 474 1646 474 1646 566 1676 c 1,0,-1
352 1072 m 2,11,-1
 352 544 l 2,12,13
 352 458 352 458 356 403 c 128,-1,14
 360 348 360 348 385 276 c 128,-1,15
 410 204 410 204 456 160 c 0,16,17
 556 64 556 64 700 64 c 0,18,19
 800 64 800 64 872 95 c 128,-1,20
 944 126 944 126 983 173 c 128,-1,21
 1022 220 1022 220 1045 292 c 128,-1,22
 1068 364 1068 364 1073 425 c 128,-1,23
 1078 486 1078 486 1078 568 c 2,24,-1
 1078 1072 l 2,25,26
 1078 1136 1078 1136 1071 1169 c 128,-1,27
 1064 1202 1064 1202 1039 1222 c 128,-1,28
 1014 1242 1014 1242 985 1247 c 128,-1,29
 956 1252 956 1252 888 1258 c 1,30,31
 880 1266 880 1266 880 1290 c 128,-1,32
 880 1314 880 1314 888 1326 c 1,33,34
 1076 1322 1076 1322 1126 1320 c 0,35,36
 1180 1320 1180 1320 1336 1326 c 1,37,38
 1344 1316 1344 1316 1344 1291 c 128,-1,39
 1344 1266 1344 1266 1336 1258 c 1,40,41
 1236 1246 1236 1246 1207 1217 c 128,-1,42
 1178 1188 1178 1188 1178 1072 c 2,43,-1
 1178 604 l 2,44,45
 1178 458 1178 458 1155 351 c 128,-1,46
 1132 244 1132 244 1076 157 c 128,-1,47
 1020 70 1020 70 916 25 c 128,-1,48
 812 -20 812 -20 658 -20 c 0,49,50
 568 -20 568 -20 492 0 c 128,-1,51
 416 20 416 20 341 70 c 128,-1,52
 266 120 266 120 222 224 c 128,-1,53
 178 328 178 328 178 478 c 2,54,-1
 178 1072 l 2,55,56
 178 1192 178 1192 148 1223 c 128,-1,57
 118 1254 118 1254 20 1258 c 1,58,59
 12 1266 12 1266 12 1290 c 128,-1,60
 12 1314 12 1314 20 1326 c 1,61,62
 180 1322 180 1322 264 1321 c 128,-1,63
 348 1320 348 1320 540 1326 c 1,64,65
 548 1316 548 1316 548 1291 c 128,-1,66
 548 1266 548 1266 540 1258 c 1,67,68
 418 1254 418 1254 385 1224 c 128,-1,69
 352 1194 352 1194 352 1072 c 2,11,-1
EndSplineSet
Position2: "'cpsp' Capital Spacing lookup 0 subtable" dx=4 dy=0 dh=10 dv=0
EndChar

StartChar: Uacute
Encoding: 218 218 128
Width: 1352
GlyphClass: 2
Flags: W
AnchorPoint: "Anchor-2" 704 1830 basechar 0
LayerCount: 2
Fore
SplineSet
830 1678 m 1,0,1
 918 1638 918 1638 956 1570 c 1,2,-1
 662 1452 l 2,3,4
 604 1428 604 1428 576 1428 c 0,5,6
 546 1428 546 1428 544 1458 c 0,7,8
 544 1480 544 1480 576 1502 c 2,9,-1
 830 1678 l 1,0,1
352 1072 m 2,10,-1
 352 544 l 2,11,12
 352 458 352 458 356 403 c 128,-1,13
 360 348 360 348 385 276 c 128,-1,14
 410 204 410 204 456 160 c 0,15,16
 556 64 556 64 700 64 c 0,17,18
 800 64 800 64 872 95 c 128,-1,19
 944 126 944 126 983 173 c 128,-1,20
 1022 220 1022 220 1045 292 c 128,-1,21
 1068 364 1068 364 1073 425 c 128,-1,22
 1078 486 1078 486 1078 568 c 2,23,-1
 1078 1072 l 2,24,25
 1078 1136 1078 1136 1071 1169 c 128,-1,26
 1064 1202 1064 1202 1039 1222 c 128,-1,27
 1014 1242 1014 1242 985 1247 c 128,-1,28
 956 1252 956 1252 888 1258 c 1,29,30
 880 1266 880 1266 880 1290 c 128,-1,31
 880 1314 880 1314 888 1326 c 1,32,33
 1076 1322 1076 1322 1126 1320 c 0,34,35
 1180 1320 1180 1320 1336 1326 c 1,36,37
 1344 1316 1344 1316 1344 1291 c 128,-1,38
 1344 1266 1344 1266 1336 1258 c 1,39,40
 1236 1246 1236 1246 1207 1217 c 128,-1,41
 1178 1188 1178 1188 1178 1072 c 2,42,-1
 1178 604 l 2,43,44
 1178 458 1178 458 1155 351 c 128,-1,45
 1132 244 1132 244 1076 157 c 128,-1,46
 1020 70 1020 70 916 25 c 128,-1,47
 812 -20 812 -20 658 -20 c 0,48,49
 568 -20 568 -20 492 0 c 128,-1,50
 416 20 416 20 341 70 c 128,-1,51
 266 120 266 120 222 224 c 128,-1,52
 178 328 178 328 178 478 c 2,53,-1
 178 1072 l 2,54,55
 178 1192 178 1192 148 1223 c 128,-1,56
 118 1254 118 1254 20 1258 c 1,57,58
 12 1266 12 1266 12 1290 c 128,-1,59
 12 1314 12 1314 20 1326 c 1,60,61
 180 1322 180 1322 264 1321 c 128,-1,62
 348 1320 348 1320 540 1326 c 1,63,64
 548 1316 548 1316 548 1291 c 128,-1,65
 548 1266 548 1266 540 1258 c 1,66,67
 418 1254 418 1254 385 1224 c 128,-1,68
 352 1194 352 1194 352 1072 c 2,10,-1
EndSplineSet
Position2: "'cpsp' Capital Spacing lookup 0 subtable" dx=4 dy=0 dh=10 dv=0
EndChar

StartChar: Ucircumflex
Encoding: 219 219 129
Width: 1352
GlyphClass: 2
Flags: W
AnchorPoint: "Anchor-2" 704 1830 basechar 0
LayerCount: 2
Fore
SplineSet
754 1654 m 1,0,1
 844 1546 844 1546 964 1456 c 1,2,3
 954 1424 954 1424 932 1414 c 1,4,5
 798 1476 798 1476 714 1538 c 1,6,7
 618 1468 618 1468 496 1414 c 1,8,9
 474 1428 474 1428 466 1456 c 1,10,11
 550 1520 550 1520 674 1654 c 1,12,13
 710 1676 710 1676 754 1654 c 1,0,1
352 1072 m 2,14,-1
 352 544 l 2,15,16
 352 458 352 458 356 403 c 128,-1,17
 360 348 360 348 385 276 c 128,-1,18
 410 204 410 204 456 160 c 0,19,20
 556 64 556 64 700 64 c 0,21,22
 800 64 800 64 872 95 c 128,-1,23
 944 126 944 126 983 173 c 128,-1,24
 1022 220 1022 220 1045 292 c 128,-1,25
 1068 364 1068 364 1073 425 c 128,-1,26
 1078 486 1078 486 1078 568 c 2,27,-1
 1078 1072 l 2,28,29
 1078 1116 1078 1116 1076 1143 c 128,-1,30
 1074 1170 1074 1170 1062 1190 c 128,-1,31
 1050 1210 1050 1210 1041 1220 c 128,-1,32
 1032 1230 1032 1230 1005 1239 c 128,-1,33
 978 1248 978 1248 957 1251 c 128,-1,34
 936 1254 936 1254 888 1258 c 1,35,36
 878 1266 878 1266 878 1290 c 128,-1,37
 878 1314 878 1314 888 1326 c 1,38,39
 1076 1322 1076 1322 1126 1320 c 0,40,41
 1180 1320 1180 1320 1336 1326 c 1,42,43
 1344 1316 1344 1316 1344 1291 c 128,-1,44
 1344 1266 1344 1266 1336 1258 c 1,45,46
 1280 1252 1280 1252 1257 1246 c 128,-1,47
 1234 1240 1234 1240 1212 1221 c 128,-1,48
 1190 1202 1190 1202 1184 1167 c 128,-1,49
 1178 1132 1178 1132 1178 1072 c 2,50,-1
 1178 604 l 2,51,52
 1178 508 1178 508 1169 430 c 128,-1,53
 1160 352 1160 352 1137 280 c 128,-1,54
 1114 208 1114 208 1075 154 c 128,-1,55
 1036 100 1036 100 979 60 c 128,-1,56
 922 20 922 20 841 0 c 128,-1,57
 760 -20 760 -20 658 -20 c 0,58,59
 588 -20 588 -20 526 -9 c 128,-1,60
 464 2 464 2 398 35 c 128,-1,61
 332 68 332 68 286 121 c 128,-1,62
 240 174 240 174 209 265 c 128,-1,63
 178 356 178 356 178 478 c 2,64,-1
 178 1072 l 2,65,66
 178 1138 178 1138 172 1172 c 128,-1,67
 166 1206 166 1206 144 1226 c 128,-1,68
 122 1246 122 1246 98 1251 c 128,-1,69
 74 1256 74 1256 20 1258 c 1,70,71
 10 1266 10 1266 10 1290 c 128,-1,72
 10 1314 10 1314 20 1326 c 1,73,74
 180 1322 180 1322 264 1321 c 128,-1,75
 348 1320 348 1320 540 1326 c 1,76,77
 548 1316 548 1316 548 1291 c 128,-1,78
 548 1266 548 1266 540 1258 c 1,79,80
 472 1256 472 1256 443 1251 c 128,-1,81
 414 1246 414 1246 389 1226 c 128,-1,82
 364 1206 364 1206 358 1172 c 128,-1,83
 352 1138 352 1138 352 1072 c 2,14,-1
EndSplineSet
Position2: "'cpsp' Capital Spacing lookup 0 subtable" dx=4 dy=0 dh=10 dv=0
EndChar

StartChar: Yacute
Encoding: 221 221 130
Width: 1176
GlyphClass: 2
Flags: W
AnchorPoint: "Anchor-2" 704 1830 basechar 0
LayerCount: 2
Fore
SplineSet
738 1680 m 1,0,1
 826 1640 826 1640 864 1572 c 1,2,-1
 570 1454 l 2,3,4
 512 1430 512 1430 484 1430 c 0,5,6
 454 1430 454 1430 452 1460 c 0,7,8
 452 1482 452 1482 484 1504 c 2,9,-1
 738 1680 l 1,0,1
690 250 m 2,10,11
 690 184 690 184 696 149 c 128,-1,12
 702 114 702 114 729 95 c 128,-1,13
 756 76 756 76 788 71 c 128,-1,14
 820 66 820 66 888 64 c 1,15,16
 896 54 896 54 897 29 c 128,-1,17
 898 4 898 4 888 -4 c 1,18,19
 684 0 684 0 604 0 c 0,20,21
 518 0 518 0 318 -4 c 1,22,23
 308 4 308 4 308 29 c 128,-1,24
 308 54 308 54 318 64 c 1,25,26
 388 66 388 66 419 71 c 128,-1,27
 450 76 450 76 477 95 c 128,-1,28
 504 114 504 114 510 149 c 128,-1,29
 516 184 516 184 516 250 c 2,30,-1
 516 510 l 2,31,32
 516 566 516 566 508 593 c 128,-1,33
 500 620 500 620 474 668 c 2,34,-1
 204 1120 l 2,35,36
 152 1204 152 1204 117 1229 c 128,-1,37
 82 1254 82 1254 12 1258 c 1,38,39
 2 1268 2 1268 2 1291 c 128,-1,40
 2 1314 2 1314 10 1326 c 1,41,42
 132 1322 132 1322 219 1321 c 128,-1,43
 306 1320 306 1320 452 1326 c 1,44,45
 462 1316 462 1316 462 1291 c 128,-1,46
 462 1266 462 1266 452 1258 c 1,47,48
 366 1254 366 1254 354 1232 c 128,-1,49
 342 1210 342 1210 378 1144 c 2,50,-1
 616 724 l 2,51,52
 630 700 630 700 640 699 c 128,-1,53
 650 698 650 698 662 720 c 2,54,-1
 888 1148 l 1,55,56
 916 1210 916 1210 898 1232 c 128,-1,57
 880 1254 880 1254 808 1258 c 1,58,59
 798 1266 798 1266 798 1290 c 128,-1,60
 798 1314 798 1314 808 1326 c 1,61,62
 940 1322 940 1322 995 1321 c 128,-1,63
 1050 1320 1050 1320 1166 1326 c 1,64,65
 1176 1316 1176 1316 1176 1291 c 128,-1,66
 1176 1266 1176 1266 1166 1258 c 1,67,68
 1092 1252 1092 1252 1052 1226 c 128,-1,69
 1012 1200 1012 1200 970 1126 c 2,70,-1
 724 684 l 2,71,72
 710 656 710 656 702 630 c 128,-1,73
 694 604 694 604 692 584 c 128,-1,74
 690 564 690 564 690 528 c 2,75,-1
 690 250 l 2,10,11
EndSplineSet
Position2: "'cpsp' Capital Spacing lookup 0 subtable" dx=4 dy=0 dh=10 dv=0
EndChar

StartChar: agrave
Encoding: 224 224 131
Width: 934
GlyphClass: 2
Flags: W
AnchorPoint: "Anchor-2" 522 1708 basechar 0
LayerCount: 2
Fore
SplineSet
402 1374 m 1,0,-1
 544 1116 l 2,1,2
 556 1092 556 1092 558 1068 c 0,3,4
 558 1060 558 1060 548 1052 c 128,-1,5
 538 1044 538 1044 526 1044 c 0,6,7
 510 1044 510 1044 466 1086 c 2,8,-1
 234 1308 l 1,9,-1
 238 1332 l 1,10,11
 302 1380 302 1380 370 1378 c 0,12,13
 386 1378 386 1378 402 1374 c 1,0,-1
600 478 m 1,14,-1
 438 434 l 1,15,16
 244 384 244 384 244 208 c 0,17,18
 244 152 244 152 282 108 c 128,-1,19
 320 64 320 64 392 64 c 0,20,21
 462 64 462 64 572 154 c 0,22,23
 600 176 600 176 600 206 c 2,24,-1
 600 478 l 1,14,-1
600 98 m 1,25,-1
 596 98 l 1,26,-1
 556 66 l 2,27,28
 446 -20 446 -20 332 -20 c 0,29,30
 74 -20 74 -20 74 200 c 0,31,32
 74 302 74 302 167 380 c 128,-1,33
 260 458 260 458 412 498 c 2,34,-1
 588 540 l 2,35,36
 600 544 600 544 600 566 c 0,37,38
 600 832 600 832 434 832 c 0,39,40
 366 832 366 832 318 810 c 128,-1,41
 270 788 270 788 270 746 c 0,42,43
 270 718 270 718 274 704 c 0,44,45
 280 692 280 692 280 668 c 0,46,47
 280 646 280 646 253 622 c 128,-1,48
 226 598 226 598 184 598 c 0,49,50
 112 598 112 598 112 672 c 0,51,52
 112 758 112 758 218 829 c 128,-1,53
 324 900 324 900 450 900 c 0,54,55
 760 900 760 900 760 552 c 2,56,-1
 760 252 l 2,57,58
 760 208 760 208 761 184 c 128,-1,59
 762 160 762 160 768 131 c 128,-1,60
 774 102 774 102 787 90 c 128,-1,61
 800 78 800 78 822 78 c 0,62,63
 858 78 858 78 898 110 c 1,64,65
 926 94 926 94 932 56 c 1,66,67
 854 -20 854 -20 738 -20 c 0,68,69
 668 -20 668 -20 639 10 c 128,-1,70
 610 40 610 40 600 98 c 1,25,-1
EndSplineSet
EndChar

StartChar: aacute
Encoding: 225 225 132
Width: 934
GlyphClass: 2
Flags: W
AnchorPoint: "Anchor-2" 522 1708 basechar 0
LayerCount: 2
Fore
SplineSet
500 1374 m 1,0,1
 512 1378 512 1378 528 1378 c 0,2,3
 592 1378 592 1378 642 1332 c 1,4,-1
 648 1308 l 1,5,-1
 412 1086 l 2,6,7
 374 1048 374 1048 350 1046 c 0,8,9
 340 1046 340 1046 331 1054 c 128,-1,10
 322 1062 322 1062 322 1074 c 0,11,12
 322 1094 322 1094 344 1130 c 2,13,-1
 500 1374 l 1,0,1
600 478 m 1,14,-1
 438 434 l 1,15,16
 244 384 244 384 244 208 c 0,17,18
 244 152 244 152 282 108 c 128,-1,19
 320 64 320 64 392 64 c 0,20,21
 462 64 462 64 572 154 c 0,22,23
 600 176 600 176 600 206 c 2,24,-1
 600 478 l 1,14,-1
600 98 m 1,25,-1
 596 98 l 1,26,-1
 556 66 l 2,27,28
 446 -20 446 -20 332 -20 c 0,29,30
 74 -20 74 -20 74 200 c 0,31,32
 74 302 74 302 167 380 c 128,-1,33
 260 458 260 458 412 498 c 2,34,-1
 588 540 l 2,35,36
 600 544 600 544 600 566 c 0,37,38
 600 832 600 832 434 832 c 0,39,40
 366 832 366 832 318 810 c 128,-1,41
 270 788 270 788 270 746 c 0,42,43
 270 718 270 718 274 704 c 0,44,45
 280 692 280 692 280 668 c 0,46,47
 280 646 280 646 253 622 c 128,-1,48
 226 598 226 598 184 598 c 0,49,50
 112 598 112 598 112 672 c 0,51,52
 112 758 112 758 218 829 c 128,-1,53
 324 900 324 900 450 900 c 0,54,55
 514 900 514 900 563 885 c 128,-1,56
 612 870 612 870 659 835 c 128,-1,57
 706 800 706 800 733 729 c 128,-1,58
 760 658 760 658 760 552 c 2,59,-1
 760 252 l 2,60,61
 760 208 760 208 761 184 c 128,-1,62
 762 160 762 160 768 131 c 128,-1,63
 774 102 774 102 787 90 c 128,-1,64
 800 78 800 78 822 78 c 0,65,66
 858 78 858 78 898 110 c 1,67,68
 926 94 926 94 932 56 c 1,69,70
 854 -20 854 -20 738 -20 c 0,71,72
 668 -20 668 -20 639 10 c 128,-1,73
 610 40 610 40 600 98 c 1,25,-1
EndSplineSet
EndChar

StartChar: acircumflex
Encoding: 226 226 133
Width: 934
GlyphClass: 2
Flags: W
AnchorPoint: "Anchor-2" 438 1708 basechar 0
LayerCount: 2
Fore
SplineSet
474 1352 m 1,0,1
 550 1230 550 1230 696 1064 c 1,2,3
 676 1036 676 1036 650 1030 c 1,4,5
 532 1106 532 1106 438 1200 c 1,6,7
 324 1086 324 1086 226 1030 c 1,8,9
 200 1036 200 1036 180 1064 c 1,10,11
 336 1236 336 1236 408 1352 c 1,12,13
 446 1360 446 1360 474 1352 c 1,0,1
600 478 m 1,14,-1
 438 434 l 1,15,16
 244 384 244 384 244 208 c 0,17,18
 244 152 244 152 282 108 c 128,-1,19
 320 64 320 64 392 64 c 0,20,21
 462 64 462 64 572 154 c 0,22,23
 600 176 600 176 600 206 c 2,24,-1
 600 478 l 1,14,-1
600 98 m 1,25,-1
 596 98 l 1,26,-1
 556 66 l 2,27,28
 446 -20 446 -20 332 -20 c 0,29,30
 74 -20 74 -20 74 200 c 0,31,32
 74 302 74 302 167 380 c 128,-1,33
 260 458 260 458 412 498 c 2,34,-1
 588 540 l 2,35,36
 600 544 600 544 600 566 c 0,37,38
 600 832 600 832 434 832 c 0,39,40
 366 832 366 832 318 810 c 128,-1,41
 270 788 270 788 270 746 c 0,42,43
 270 718 270 718 274 704 c 0,44,45
 280 692 280 692 280 668 c 0,46,47
 280 646 280 646 253 622 c 128,-1,48
 226 598 226 598 184 598 c 0,49,50
 112 598 112 598 112 672 c 0,51,52
 112 758 112 758 218 829 c 128,-1,53
 324 900 324 900 450 900 c 0,54,55
 760 900 760 900 760 552 c 2,56,-1
 760 252 l 2,57,58
 760 208 760 208 761 184 c 128,-1,59
 762 160 762 160 768 131 c 128,-1,60
 774 102 774 102 787 90 c 128,-1,61
 800 78 800 78 822 78 c 0,62,63
 858 78 858 78 898 110 c 1,64,65
 926 94 926 94 932 56 c 1,66,67
 854 -20 854 -20 738 -20 c 0,68,69
 668 -20 668 -20 639 10 c 128,-1,70
 610 40 610 40 600 98 c 1,25,-1
EndSplineSet
EndChar

